<svg id="Group_3432" data-name="Group 3432" xmlns="http://www.w3.org/2000/svg" xmlns:xlink="http://www.w3.org/1999/xlink" width="150.686" height="48.67" viewBox="0 0 150.686 48.67">
  <defs>
    <clipPath id="clip-path">
      <rect id="Rectangle_1199" data-name="Rectangle 1199" width="150.686" height="48.67" fill="none"/>
    </clipPath>
  </defs>
  <rect id="Rectangle_1196" data-name="Rectangle 1196" width="50.184" height="48.67" fill="#d1111b"/>
  <rect id="Rectangle_1197" data-name="Rectangle 1197" width="48.429" height="48.67" transform="translate(51.494)" fill="#d1111b"/>
  <rect id="Rectangle_1198" data-name="Rectangle 1198" width="49.453" height="48.67" transform="translate(101.233)" fill="#d1111b"/>
  <path id="Path_1329" data-name="Path 1329" d="M3.9,16.2H22.977v6.329H18.644v-2H14.074v3.41h3.843v4.427H14.074v4.137H16.41v4.33H3.9V32.607H5.843V20.923H3.9Z" transform="translate(-0.444 -1.847)" fill="#fff"/>
  <g id="Group_3430" data-name="Group 3430">
    <g id="Group_3429" data-name="Group 3429" clip-path="url(#clip-path)">
      <path id="Path_1330" data-name="Path 1330" d="M49.97,32.555,46.96,26.568s3.47-1.954,3.254-4.525c-.438-5.306-7.589-5.84-7.589-5.84H27.632v4.674h2.29V32.556H27.97v4.283H40.143v-4.33h-2V28.273h2.237l3.648,8.566h8.084V32.556H49.97Zm-11.777-7.4V20.534s3.843-.145,3.843,2.336-3.843,2.289-3.843,2.289" transform="translate(-3.151 -1.847)" fill="#fff"/>
      <path id="Path_1331" data-name="Path 1331" d="M79.233,32.556,75.679,20.534h2.336V16.2H62.44v4.384h2.139L60.626,32.5l-.913.005v4.33H67.94V32.557H65.895l.434-2.291h5.358l.443,2.291H70.181v4.281H81.47V32.557H79.233ZM67.165,26.713l2.139-5.79,2.094,5.79Z" transform="translate(-6.808 -1.847)" fill="#fff"/>
      <path id="Path_1332" data-name="Path 1332" d="M86.077,16.2H94.21l8.074,10.12V20.585h-1.847V16.2h8.176v4.284h-1.464V36.838h-6.761l-7.6-10.853v6.523h1.853v4.33H86.03V32.556h1.63L87.675,20.5l-1.6.014Z" transform="translate(-9.809 -1.847)" fill="#fff"/>
      <path id="Path_1333" data-name="Path 1333" d="M115.521,16.2h12.073v3.946h-1.95V25.2l4.969-5.035-1.458-.019V16.2h9.733V20.1h-1.459l-5.5,5.886,6.279,6.183h2.235v4.67H129.05v-4.33H131l-5.163-5.453v5.453h1.708v4.33H115.474v-4.33h2.336V20.487l-2.289.025Z" transform="translate(-13.166 -1.847)" fill="#fff"/>
      <path id="Path_1334" data-name="Path 1334" d="M144.918,16.2h19.13v6.278h-4.721V20.1h-4.239v4.284h3.556v3.89h-3.6v3.945h4.332V29.781h4.672v7.057h-19.13v-4.67H147.3V20.1h-2.386Z" transform="translate(-16.523 -1.847)" fill="#fff"/>
    </g>
  </g>
</svg>
