<svg xmlns="http://www.w3.org/2000/svg" xmlns:xlink="http://www.w3.org/1999/xlink" width="88.724" height="18.627" viewBox="0 0 88.724 18.627"><defs><style>.a{fill:none;}.b{clip-path:url(#a);}.c{fill:#fff;}</style><clipPath id="a"><rect class="a" width="88.724" height="18.627"/></clipPath></defs><g transform="translate(0 0)"><g class="b" transform="translate(0 0)"><path class="c" d="M259.223,44.309a.712.712,0,0,1,.148-.213.689.689,0,0,1,.477-.193.671.671,0,0,1,.263.052.69.69,0,0,1,.214.141.658.658,0,0,1,.145.213.629.629,0,0,1,.055.265.655.655,0,0,1-.055.269.675.675,0,0,1-.145.216.721.721,0,0,1-.214.141.707.707,0,0,1-.263.048.7.7,0,0,1-.26-.048.689.689,0,0,1-.216-.141.731.731,0,0,1-.148-.216.654.654,0,0,1-.053-.269.628.628,0,0,1,.053-.265m.113.494a.541.541,0,0,0,.115.183.526.526,0,0,0,.4.164.591.591,0,0,0,.219-.042.569.569,0,0,0,.177-.122.559.559,0,0,0,.116-.183.645.645,0,0,0,.042-.229.619.619,0,0,0-.042-.225.557.557,0,0,0-.116-.181.549.549,0,0,0-.4-.164.544.544,0,0,0-.221.044.562.562,0,0,0-.176.12.538.538,0,0,0-.115.181.58.58,0,0,0-.043.225.6.6,0,0,0,.043.229m.555-.622a.319.319,0,0,1,.208.057.205.205,0,0,1,.067.168.2.2,0,0,1-.059.157.267.267,0,0,1-.146.058l.223.347h-.133l-.213-.338h-.129v.338h-.122v-.788Zm-.054.352a.717.717,0,0,0,.078,0,.174.174,0,0,0,.066-.013.135.135,0,0,0,.047-.04.156.156,0,0,0,.015-.073.115.115,0,0,0-.014-.062.077.077,0,0,0-.038-.034.16.16,0,0,0-.057-.019.425.425,0,0,0-.061,0h-.163v.251Z" transform="translate(-171.801 -29.103)"/><path class="c" d="M.125,21.128c0-.489-.031-1.223-.031-1.223a12.816,12.816,0,0,1,4.191.427c2.019.613,3.182,1.1,5.751,3.458,2.569-2.357,3.732-2.845,5.754-3.458a12.81,12.81,0,0,1,4.189-.427s-.03.734-.03,1.223a11,11,0,0,0-9.913,4.65,11.136,11.136,0,0,0-3.671-3.306A11.216,11.216,0,0,0,.125,21.128" transform="translate(-0.062 -13.178)"/><path class="c" d="M18.134,4.746A9.388,9.388,0,0,0,1.81,4.754C.81,4.707,0,4.739,0,4.739V5.9c4.068.06,4.866.579,6.213,1.1A14.637,14.637,0,0,1,9.973,9.444,14.612,14.612,0,0,1,13.738,7c1.345-.52,2.142-1.039,6.211-1.1V4.739s-.813-.036-1.815.007m-2.316.269A13.281,13.281,0,0,0,9.973,7.8,13.265,13.265,0,0,0,4.131,5.015c-.268-.056-.556-.12-.858-.154a8.081,8.081,0,0,1,13.409.014c-.3.036-.594.083-.864.14" transform="translate(0 0)"/><path class="c" d="M20.491,25.847a10.981,10.981,0,0,0-5.451,1.379,11.156,11.156,0,0,0-3.917,3.948,11.146,11.146,0,0,0-3.915-3.948,10.984,10.984,0,0,0-5.45-1.379c-.019.224-.024.45-.024.678A9.378,9.378,0,0,0,9.429,35.76V34.432a8.114,8.114,0,0,1-6.369-7.266,8.893,8.893,0,0,1,3.874,1.375,10.315,10.315,0,0,1,4.191,5.754,10.305,10.305,0,0,1,4.193-5.754,8.879,8.879,0,0,1,3.872-1.375,8.109,8.109,0,0,1-6.367,7.266V35.76a9.378,9.378,0,0,0,7.691-9.235q0-.342-.022-.678" transform="translate(-1.15 -17.134)"/><path class="c" d="M53.737,45.652H54v.691h.106v-.691h.266v-.1h-.639Z" transform="translate(-35.621 -30.198)"/><path class="c" d="M56.519,45.556l-.224.665h0l-.224-.665h-.153v.787h.1v-.465c0-.022,0-.122,0-.194h0l.222.659h.106l.22-.662h0c0,.075,0,.175,0,.2v.465h.1v-.787Z" transform="translate(-37.066 -30.199)"/><path class="c" d="M75.464,17.2h3.228v1.388h.038A3.392,3.392,0,0,1,81.646,16.9,2.939,2.939,0,0,1,84.6,18.546,3.716,3.716,0,0,1,87.771,16.9c3.228,0,3.581,2.446,3.581,4.383v6.064H88.025V21.382c0-1.1-.528-1.74-1.39-1.74-1.428,0-1.564,1.1-1.564,2.739v4.968H81.744v-5.77c0-1.2-.351-1.937-1.253-1.937-1.193,0-1.7.683-1.7,2.757v4.95H75.464Z" transform="translate(-50.024 -11.204)"/><path class="c" d="M130.672,9h-3.326V6.455h3.326Zm-3.326,1.272h3.326V20.424h-3.326Z" transform="translate(-84.416 -4.279)"/><path class="c" d="M142.022,17.386h3.229v1.781h.039a3.062,3.062,0,0,1,3.051-1.978,3.611,3.611,0,0,1,.784.079V20.3a4.673,4.673,0,0,0-1.272-.2,2.336,2.336,0,0,0-2.5,2.407v5.027h-3.328Z" transform="translate(-94.145 -11.394)"/><path class="c" d="M168.455,16.9a5.207,5.207,0,0,1,5.361,5.381,5.352,5.352,0,1,1-10.7,0,5.191,5.191,0,0,1,5.342-5.381m0,8.2c1.544,0,2.034-1.526,2.034-2.817s-.49-2.838-2.034-2.838-2.016,1.545-2.016,2.838.468,2.817,2.016,2.817" transform="translate(-108.126 -11.204)"/><rect class="c" width="3.326" height="13.969" transform="translate(66.78 2.176)"/><path class="c" d="M216.088,9h-3.327V6.455h3.327Zm-3.327,1.272h3.327V20.424h-3.327Z" transform="translate(-141.037 -4.279)"/><path class="c" d="M227.267,17.2h3.23v1.388h.038a3.841,3.841,0,0,1,3.19-1.682c3.384,0,3.657,2.465,3.657,3.934v6.513h-3.325v-4.91c0-1.389.156-2.8-1.663-2.8-1.251,0-1.8,1.056-1.8,2.17v5.537h-3.328Z" transform="translate(-150.653 -11.204)"/></g></g></svg>