<svg xmlns="http://www.w3.org/2000/svg" xmlns:xlink="http://www.w3.org/1999/xlink" width="138.974" height="52.22" viewBox="0 0 138.974 52.22">
  <defs>
    <clipPath id="clip-path">
      <rect id="Rectangle_1124" data-name="Rectangle 1124" width="138.974" height="52.22" fill="none"/>
    </clipPath>
  </defs>
  <g id="Group_3404" data-name="Group 3404" transform="translate(0 0)">
    <g id="Group_3161" data-name="Group 3161" transform="translate(0 0)" clip-path="url(#clip-path)">
      <path id="Path_1156" data-name="Path 1156" d="M1.349,22.318A11.214,11.214,0,0,0,5.9,37.515a1.175,1.175,0,1,0,1.115-2.067,8.871,8.871,0,0,1-3.6-12.014,6.868,6.868,0,0,1,9.29-2.789,5.259,5.259,0,0,1,2.14,7.114,3.969,3.969,0,0,1-5.376,1.617,2.937,2.937,0,0,1-1.2-3.98,2.119,2.119,0,0,1,2.872-.864,1.173,1.173,0,0,0,1.114-2.065,4.46,4.46,0,0,0-6.053,1.815,5.281,5.281,0,0,0,2.148,7.161,6.32,6.32,0,0,0,8.558-2.567,7.6,7.6,0,0,0-3.091-10.3A9.217,9.217,0,0,0,1.349,22.318" transform="translate(0 2.662)" fill="#fff"/>
      <path id="Path_1157" data-name="Path 1157" d="M10.418.613a1.172,1.172,0,0,0,.475,1.593A8.884,8.884,0,0,1,14.5,14.223,6.87,6.87,0,0,1,5.206,17.01,5.256,5.256,0,0,1,3.065,9.892,3.983,3.983,0,0,1,8.448,8.277a2.953,2.953,0,0,1,1.19,3.982,2.107,2.107,0,0,1-2.872.861,1.175,1.175,0,0,0-1.115,2.067A4.463,4.463,0,0,0,11.7,13.374a5.249,5.249,0,0,0,.414-4.022A5.305,5.305,0,0,0,9.559,6.21,6.323,6.323,0,0,0,1,8.777a7.6,7.6,0,0,0,3.085,10.3A9.229,9.229,0,0,0,16.563,15.34,11.234,11.234,0,0,0,12,.138a1.173,1.173,0,0,0-1.587.475" transform="translate(0.013 -0.001)" fill="#fff"/>
      <path id="Path_1158" data-name="Path 1158" d="M29.969,31.868H22.387v-19.5h7.339c3.395,0,5.748,1.945,5.748,5.2A4.458,4.458,0,0,1,32.6,21.842a4.725,4.725,0,0,1,3.178,4.628c0,3.534-2.354,5.4-5.807,5.4M29.561,14.23H24.469V21h5.092c2.164,0,3.834-1.068,3.834-3.4s-1.67-3.371-3.834-3.371m.217,8.626H24.469V30h5.309c2.414,0,3.918-1.393,3.918-3.588s-1.5-3.56-3.918-3.56" transform="translate(3.41 1.884)" fill="#fff"/>
      <path id="Path_1159" data-name="Path 1159" d="M45.262,31.093V29.8a4.738,4.738,0,0,1-3.894,1.452c-1.863,0-2.956-.355-3.8-1.235a3.876,3.876,0,0,1-1.014-2.737c0-2.354,1.646-3.888,4.655-3.888h4.057V22.109c0-1.972-.991-2.957-3.454-2.957a3.54,3.54,0,0,0-3.4,1.531l-1.346-1.231c1.21-1.56,2.577-2,4.768-2,3.614,0,5.4,1.56,5.4,4.492v9.146Zm0-6.217H41.481c-2.027,0-3.016.818-3.016,2.378s.96,2.3,3.1,2.3a3.96,3.96,0,0,0,3.013-.9,3.128,3.128,0,0,0,.687-2.331Z" transform="translate(5.568 2.659)" fill="#fff"/>
      <path id="Path_1160" data-name="Path 1160" d="M49.4,12.345h2.218v2.218H49.4Zm.111,6.054h1.97V31.87h-1.97Z" transform="translate(7.526 1.88)" fill="#fff"/>
      <path id="Path_1161" data-name="Path 1161" d="M63.663,31.093v-8.3c0-2.382-1.287-3.588-3.313-3.588s-3.342,1.233-3.342,3.588v8.3H55.037V17.622h1.972V19.1a4.864,4.864,0,0,1,3.78-1.642,4.729,4.729,0,0,1,3.452,1.262,4.986,4.986,0,0,1,1.391,3.75v8.626Z" transform="translate(8.384 2.659)" fill="#fff"/>
      <path id="Path_1162" data-name="Path 1162" d="M74.781,32.032a6.437,6.437,0,0,1-6.793-6.6V12.37h2.081v12.9c0,2.96,1.862,4.9,4.712,4.9a4.543,4.543,0,0,0,4.735-4.9V12.37H81.6V25.434a6.457,6.457,0,0,1-6.816,6.6" transform="translate(10.357 1.884)" fill="#fff"/>
      <path id="Path_1163" data-name="Path 1163" d="M87.049,31.868c-2.358,0-3.427-1.534-3.427-3.584V12.369H85.6V28.2c0,1.31.436,1.97,1.808,1.97h1.065v1.7Z" transform="translate(12.738 1.884)" fill="#fff"/>
      <path id="Path_1164" data-name="Path 1164" d="M94.689,31.618A3.3,3.3,0,0,1,91.239,28V19.731h-1.7v-1.5h1.7V14.01H93.21v4.219h2.873v1.5H93.21V27.95c0,1.232.573,1.97,1.835,1.97h1.038v1.7Z" transform="translate(13.64 2.134)" fill="#fff"/>
      <path id="Path_1165" data-name="Path 1165" d="M106.029,20.191a2.822,2.822,0,0,0-2.328-.985c-1.97,0-3.232,1.563-3.232,3.617v8.27H98.5V17.621h1.97V19.26a4.544,4.544,0,0,1,3.782-1.8,4.132,4.132,0,0,1,3.229,1.262Z" transform="translate(15.005 2.659)" fill="#fff"/>
      <path id="Path_1166" data-name="Path 1166" d="M116.046,31.093V29.8a4.724,4.724,0,0,1-3.887,1.452c-1.86,0-2.959-.355-3.806-1.235a3.874,3.874,0,0,1-1.011-2.737c0-2.354,1.64-3.888,4.651-3.888h4.053V22.109c0-1.972-.983-2.957-3.452-2.957a3.543,3.543,0,0,0-3.394,1.531l-1.34-1.231c1.2-1.56,2.575-2,4.765-2,3.614,0,5.4,1.56,5.4,4.492v9.146Zm0-6.217h-3.781c-2.021,0-3.01.818-3.01,2.378s.959,2.3,3.094,2.3a3.958,3.958,0,0,0,3.016-.9,3.134,3.134,0,0,0,.681-2.331Z" transform="translate(16.352 2.659)" fill="#fff"/>
      <path id="Path_1167" data-name="Path 1167" d="M119.541,17.313a1.44,1.44,0,1,1-1.453,1.432,1.432,1.432,0,0,1,1.453-1.432m0,2.668a1.229,1.229,0,1,0-1.19-1.235,1.188,1.188,0,0,0,1.19,1.235m-.564-2.071h.652c.4,0,.59.156.59.482a.431.431,0,0,1-.444.456l.481.744h-.281l-.46-.724h-.273v.724h-.265Zm.265.747h.27c.232,0,.446-.012.446-.278,0-.222-.194-.259-.371-.259h-.345Z" transform="translate(17.989 2.637)" fill="#fff"/>
      <path id="Path_1168" data-name="Path 1168" d="M24.691,39.338v5.2h-.613v-5.2H22.415V38.79h3.939v.549Z" transform="translate(3.414 5.908)" fill="#fff"/>
      <path id="Path_1169" data-name="Path 1169" d="M29.392,44.536V42.082a.916.916,0,0,0-.968-1.05.938.938,0,0,0-.993,1.05v2.453H26.85V38.79h.581V41a1.418,1.418,0,0,1,1.114-.485,1.342,1.342,0,0,1,1.428,1.469v2.55Z" transform="translate(4.09 5.909)" fill="#fff"/>
      <path id="Path_1170" data-name="Path 1170" d="M31.265,42.475c0,.872.411,1.372,1.17,1.372a1.308,1.308,0,0,0,1.042-.452l.4.347a1.818,1.818,0,0,1-1.452.613c-1.05,0-1.735-.629-1.735-2.034,0-1.284.621-2.034,1.629-2.034,1.026,0,1.631.742,1.631,1.921v.266Zm1.977-1.1a1.019,1.019,0,0,0-1.856,0,1.666,1.666,0,0,0-.121.661h2.1a1.666,1.666,0,0,0-.121-.661" transform="translate(4.674 6.137)" fill="#fff"/>
      <path id="Path_1171" data-name="Path 1171" d="M38.578,46.083V43.839a1.286,1.286,0,0,1-1.122.516,1.382,1.382,0,0,1-.968-.347A2.366,2.366,0,0,1,36,42.322a2.362,2.362,0,0,1,.484-1.686,1.378,1.378,0,0,1,.968-.348,1.281,1.281,0,0,1,1.13.516v-.468h.573v5.747ZM37.585,40.8c-.863,0-1,.743-1,1.518s.137,1.518,1,1.518.993-.743.993-1.518-.13-1.518-.993-1.518" transform="translate(5.485 6.137)" fill="#fff"/>
      <path id="Path_1172" data-name="Path 1172" d="M42.582,44.3v-.444a1.457,1.457,0,0,1-1.122.492,1.411,1.411,0,0,1-1.024-.371,1.485,1.485,0,0,1-.4-1.114V40.33h.581v2.446c0,.7.371,1.057.969,1.057a.94.94,0,0,0,.992-1.057V40.33h.581V44.3Z" transform="translate(6.098 6.143)" fill="#fff"/>
      <path id="Path_1173" data-name="Path 1173" d="M44.475,42.475c0,.872.413,1.372,1.171,1.372a1.305,1.305,0,0,0,1.041-.452l.4.347a1.822,1.822,0,0,1-1.453.613c-1.05,0-1.735-.629-1.735-2.034,0-1.284.621-2.034,1.631-2.034s1.629.742,1.629,1.921v.266Zm1.977-1.1a1.018,1.018,0,0,0-1.855,0,1.685,1.685,0,0,0-.122.661h2.1a1.645,1.645,0,0,0-.121-.661" transform="translate(6.686 6.137)" fill="#fff"/>
      <path id="Path_1174" data-name="Path 1174" d="M49.247,44.356a2.192,2.192,0,0,1-1.631-.573L48,43.4a1.619,1.619,0,0,0,1.234.459c.653,0,1.057-.234,1.057-.7,0-.347-.2-.54-.661-.581l-.655-.056c-.773-.065-1.186-.411-1.186-1.065,0-.726.613-1.163,1.461-1.163a2.244,2.244,0,0,1,1.429.429L50.3,41.1a1.69,1.69,0,0,0-1.058-.316c-.581,0-.888.25-.888.655,0,.339.194.54.695.581l.638.055c.693.066,1.168.332,1.168,1.074,0,.767-.652,1.211-1.613,1.211" transform="translate(7.253 6.137)" fill="#fff"/>
      <path id="Path_1175" data-name="Path 1175" d="M52.735,44.462A.974.974,0,0,1,51.719,43.4V40.959h-.5v-.444h.5V39.272H52.3v1.243h.847v.444H52.3V43.38c0,.364.171.581.54.581h.307v.5Z" transform="translate(7.802 5.982)" fill="#fff"/>
      <path id="Path_1176" data-name="Path 1176" d="M56.257,41.035v3.5h-.582v-3.5h-.508v-.444h.508v-.75a.968.968,0,0,1,1.009-1.066H57.1v.5h-.315c-.371,0-.532.218-.532.581v.734H57.1v.444Z" transform="translate(8.404 5.906)" fill="#fff"/>
      <path id="Path_1177" data-name="Path 1177" d="M60.357,43.9a1.656,1.656,0,0,1-2.276,0,2.127,2.127,0,0,1-.484-1.581,2.135,2.135,0,0,1,.484-1.582,1.659,1.659,0,0,1,2.276,0,2.135,2.135,0,0,1,.484,1.582,2.127,2.127,0,0,1-.484,1.581M59.945,41.1a1.018,1.018,0,0,0-.726-.292,1,1,0,0,0-.719.292,2.493,2.493,0,0,0,0,2.453,1,1,0,0,0,.719.29,1.017,1.017,0,0,0,.726-.29,1.732,1.732,0,0,0,.315-1.227,1.729,1.729,0,0,0-.315-1.226" transform="translate(8.774 6.137)" fill="#fff"/>
      <path id="Path_1178" data-name="Path 1178" d="M63.793,41.1a.832.832,0,0,0-.687-.292.97.97,0,0,0-.952,1.066v2.437h-.582V40.336h.582v.485a1.336,1.336,0,0,1,1.114-.534,1.222,1.222,0,0,1,.952.371Z" transform="translate(9.379 6.137)" fill="#fff"/>
      <path id="Path_1179" data-name="Path 1179" d="M67.192,45.261a1.135,1.135,0,0,1-.282.468,1.085,1.085,0,0,1-.774.274h-.25v-.516h.177c.4,0,.525-.128.653-.492L67,44.22l-1.428-3.89H66.2l1.09,3.187,1.081-3.187H69Z" transform="translate(9.989 6.143)" fill="#fff"/>
      <path id="Path_1180" data-name="Path 1180" d="M71.937,43.9a1.656,1.656,0,0,1-2.276,0,2.127,2.127,0,0,1-.484-1.581,2.135,2.135,0,0,1,.484-1.582,1.659,1.659,0,0,1,2.276,0,2.135,2.135,0,0,1,.484,1.582,2.127,2.127,0,0,1-.484,1.581M71.525,41.1A1.018,1.018,0,0,0,70.8,40.8a1,1,0,0,0-.719.292,2.493,2.493,0,0,0,0,2.453,1,1,0,0,0,.719.29,1.017,1.017,0,0,0,.726-.29,1.732,1.732,0,0,0,.315-1.227,1.729,1.729,0,0,0-.315-1.226" transform="translate(10.538 6.137)" fill="#fff"/>
      <path id="Path_1181" data-name="Path 1181" d="M75.67,44.3v-.444a1.453,1.453,0,0,1-1.121.492,1.414,1.414,0,0,1-1.026-.371,1.484,1.484,0,0,1-.4-1.114V40.33h.58v2.446c0,.7.372,1.057.97,1.057a.94.94,0,0,0,.992-1.057V40.33h.581V44.3Z" transform="translate(11.139 6.143)" fill="#fff"/>
      <path id="Path_1182" data-name="Path 1182" d="M79.367,41.1a.833.833,0,0,0-.687-.292.97.97,0,0,0-.952,1.066v2.437h-.583V40.336h.583v.485a1.333,1.333,0,0,1,1.114-.534,1.226,1.226,0,0,1,.952.371Z" transform="translate(11.752 6.137)" fill="#fff"/>
      <path id="Path_1183" data-name="Path 1183" d="M85.559,44.3h-.543l-1.039-3.084L82.944,44.3H82.4L81.143,40.33h.63l.911,3.187,1.042-3.187h.5l1.049,3.187.9-3.187h.63Z" transform="translate(12.361 6.143)" fill="#fff"/>
      <path id="Path_1184" data-name="Path 1184" d="M87.277,42.475c0,.872.413,1.372,1.171,1.372a1.3,1.3,0,0,0,1.039-.452l.4.347a1.818,1.818,0,0,1-1.452.613c-1.051,0-1.735-.629-1.735-2.034,0-1.284.621-2.034,1.629-2.034,1.024,0,1.629.742,1.629,1.921v.266Zm1.976-1.1a1.018,1.018,0,0,0-1.854,0,1.644,1.644,0,0,0-.122.661h2.1a1.626,1.626,0,0,0-.121-.661" transform="translate(13.207 6.137)" fill="#fff"/>
      <path id="Path_1185" data-name="Path 1185" d="M91.66,44.536a.947.947,0,0,1-1.011-1.058V38.79h.583v4.663c0,.387.128.581.531.581h.315v.5Z" transform="translate(13.809 5.909)" fill="#fff"/>
      <path id="Path_1186" data-name="Path 1186" d="M93.846,44.536a.947.947,0,0,1-1.011-1.058V38.79h.583v4.663c0,.387.128.581.531.581h.315v.5Z" transform="translate(14.142 5.909)" fill="#fff"/>
      <path id="Path_1187" data-name="Path 1187" d="M97.593,44.307V41.862a.983.983,0,1,0-1.961,0v2.445h-.583V40.336h.583v.437a1.425,1.425,0,0,1,1.114-.485,1.382,1.382,0,0,1,1.014.371,1.461,1.461,0,0,1,.413,1.106v2.542Z" transform="translate(14.479 6.137)" fill="#fff"/>
      <path id="Path_1188" data-name="Path 1188" d="M99.464,42.475c0,.872.413,1.372,1.171,1.372a1.308,1.308,0,0,0,1.042-.452l.4.347a1.826,1.826,0,0,1-1.454.613c-1.049,0-1.735-.629-1.735-2.034,0-1.284.621-2.034,1.632-2.034s1.629.742,1.629,1.921v.266Zm1.979-1.1a1.019,1.019,0,0,0-1.856,0,1.727,1.727,0,0,0-.122.661h2.1a1.666,1.666,0,0,0-.121-.661" transform="translate(15.063 6.137)" fill="#fff"/>
      <path id="Path_1189" data-name="Path 1189" d="M104.235,44.356a2.191,2.191,0,0,1-1.629-.573l.387-.387a1.623,1.623,0,0,0,1.235.459c.653,0,1.056-.234,1.056-.7,0-.347-.2-.54-.661-.581l-.652-.056c-.774-.065-1.187-.411-1.187-1.065,0-.726.612-1.163,1.461-1.163a2.244,2.244,0,0,1,1.429.429l-.38.379a1.688,1.688,0,0,0-1.058-.316c-.581,0-.887.25-.887.655,0,.339.194.54.694.581l.64.055c.693.066,1.167.332,1.167,1.074,0,.767-.652,1.211-1.613,1.211" transform="translate(15.63 6.137)" fill="#fff"/>
      <path id="Path_1190" data-name="Path 1190" d="M107.879,44.356a2.193,2.193,0,0,1-1.632-.573l.389-.387a1.617,1.617,0,0,0,1.233.459c.656,0,1.058-.234,1.058-.7,0-.347-.2-.54-.661-.581l-.655-.056c-.774-.065-1.187-.411-1.187-1.065,0-.726.614-1.163,1.461-1.163a2.244,2.244,0,0,1,1.429.429l-.378.379a1.69,1.69,0,0,0-1.058-.316c-.581,0-.888.25-.888.655,0,.339.192.54.695.581l.637.055c.693.066,1.17.332,1.17,1.074,0,.767-.652,1.211-1.613,1.211" transform="translate(16.185 6.137)" fill="#fff"/>
      <path id="Path_1191" data-name="Path 1191" d="M110.96,40.386a1.023,1.023,0,1,1-1.034,1.019,1.017,1.017,0,0,1,1.034-1.019m0,1.9a.874.874,0,1,0-.848-.878.845.845,0,0,0,.848.878m-.4-1.473h.462c.285,0,.419.111.419.342a.307.307,0,0,1-.315.325l.341.53h-.2l-.326-.516h-.195v.516h-.187Zm.187.531h.192c.165,0,.316-.008.316-.2,0-.158-.137-.183-.263-.183h-.245Z" transform="translate(16.745 6.152)" fill="#fff"/>
    </g>
  </g>
</svg>
