<svg xmlns="http://www.w3.org/2000/svg" width="170.078" height="54.933" viewBox="0 0 170.078 54.933">
  <g id="Franke_Colour" data-name="Franke Colour" transform="translate(-315.437 -272.67)">
    <g id="Group_3395" data-name="Group 3395">
      <rect id="Rectangle_1183" data-name="Rectangle 1183" width="56.642" height="54.933" transform="translate(315.437 272.67)" fill="#dc281e"/>
      <rect id="Rectangle_1184" data-name="Rectangle 1184" width="54.662" height="54.933" transform="translate(373.558 272.67)" fill="#dc281e"/>
      <rect id="Rectangle_1185" data-name="Rectangle 1185" width="55.817" height="54.933" transform="translate(429.698 272.67)" fill="#dc281e"/>
      <path id="Path_1305" data-name="Path 1305" d="M319.335,288.873h21.534v7.143h-4.89v-2.255H330.82v3.849h4.338v5H330.82v4.669h2.637v4.887H319.335v-4.775h2.2V294.2h-2.2Z" fill="#fff"/>
      <path id="Path_1306" data-name="Path 1306" d="M368.282,307.329l-3.4-6.757s3.916-2.2,3.673-5.107c-.494-5.989-8.566-6.592-8.566-6.592H343.069v5.275h2.585V307.33h-2.2v4.834H357.19v-4.887h-2.253V302.5h2.525l4.117,9.668H370.7V307.33h-2.421Zm-13.293-8.347v-5.221s4.337-.164,4.337,2.637-4.337,2.584-4.337,2.584" fill="#fff"/>
      <path id="Path_1307" data-name="Path 1307" d="M397.182,307.331l-4.011-13.57h2.637v-4.888h-17.58v4.948h2.414l-4.461,13.45-1.031.006v4.887h9.286v-4.832h-2.309l.49-2.586h6.047l.5,2.586h-2.2v4.832h12.742v-4.832h-2.525Zm-13.621-6.6,2.414-6.535,2.364,6.535Z" fill="#fff"/>
      <path id="Path_1308" data-name="Path 1308" d="M401.52,288.873h9.18l9.113,11.422v-6.476h-2.085v-4.946h9.228v4.835H425.3v18.455h-7.631l-8.577-12.25v7.363h2.092v4.887h-9.721v-4.832h1.84l.017-13.611-1.8.016Z" fill="#fff"/>
      <path id="Path_1309" data-name="Path 1309" d="M430.964,288.873h13.627v4.454h-2.2v5.7L448,293.348l-1.646-.021v-4.454h10.986v4.4h-1.647l-6.211,6.644,7.087,6.979h2.523v5.271H446.234v-4.887h2.2l-5.828-6.155v6.155h1.928v4.887H430.911v-4.887h2.637V293.708l-2.584.028Z" fill="#fff"/>
      <path id="Path_1310" data-name="Path 1310" d="M460.355,288.873h21.592v7.086h-5.329v-2.69h-4.784V298.1h4.014v4.391h-4.064v4.453h4.89V304.2h5.273v7.965H460.355v-5.271h2.693V293.269h-2.693Z" fill="#fff"/>
    </g>
  </g>
</svg>
