<svg xmlns="http://www.w3.org/2000/svg" width="123.734" height="83.707" viewBox="0 0 123.734 83.707">
  <g id="taps-logo" transform="translate(-0.7 -0.7)">
    <path id="Path_1090" data-name="Path 1090" d="M133.4,65.961c-.2-.1-.457-.254-.406-.507.051-.2.254-.254.457-.254a.322.322,0,0,1,.3.254C133.805,65.606,133.755,65.758,133.4,65.961Z" transform="translate(-65.176 -31.778)" fill="#0a0203" fill-rule="evenodd"/>
    <path id="Path_1091" data-name="Path 1091" d="M132.476,69.1h.609v.609l-.051.051h-.2C132.933,69.455,132.324,69.506,132.476,69.1Z" transform="translate(-64.912 -33.7)" fill="#0a0203" fill-rule="evenodd"/>
    <g id="Group_3124" data-name="Group 3124" transform="translate(17.847 32.702)">
      <path id="Path_1092" data-name="Path 1092" d="M106.082,73.065c.051-.051.051-.1,0-.2h-.051a.38.38,0,0,0-.051-.254,11.1,11.1,0,0,0-3.247-5.378A7.006,7.006,0,0,0,97.66,65.2H84.978a.664.664,0,0,0-.71.507,1.933,1.933,0,0,0-.152.507c-.051.609-.051,1.218-.051,1.826a9.057,9.057,0,0,0,.1,1.167,1.06,1.06,0,0,0,1.42.964l1.065-.152a1.006,1.006,0,0,1,1.116.71,2.276,2.276,0,0,1,.254.964c.051.761.051,1.471.051,2.232V88.893a.693.693,0,0,1-.2.558l-.051.051-.1.1a1.378,1.378,0,0,1-.862.3h-3.4a2.879,2.879,0,0,1-2.638-1.573,18.225,18.225,0,0,1-.862-1.725c-.66-1.623-1.268-3.247-1.928-4.819-.812-1.928-1.674-3.8-2.435-5.733-1.116-2.689-2.131-5.428-3.247-8.117a13.4,13.4,0,0,0-.913-1.928,1.443,1.443,0,0,0-1.37-.761c-.609,0-1.268-.051-1.877-.051h-3.4l-.051-.051c-.862,0-1.674,0-2.537.051a.489.489,0,0,0-.457.2.5.5,0,0,0-.152.406v3.6a.694.694,0,0,0,.761.761h1.116c.66.051,1.015.457.812,1.116v.051h0c-.254.812-.507,1.623-.812,2.384,0,.051-.051.1-.051.152-.812,2.029-1.674,4.109-2.435,6.138-.71,1.826-1.319,3.653-1.979,5.428a20.678,20.678,0,0,1-1.776,3.7,3.257,3.257,0,0,1-.507.66.683.683,0,0,1-.609.254H50.937a1.265,1.265,0,0,1-1.319-1.37V71.543a.92.92,0,0,1,.964-1.015h2.131a1.243,1.243,0,0,1,1.116,1.015c0,.3.051.66.051.964v1.877a.8.8,0,0,0,.761.862,2.893,2.893,0,0,0,.66.051h2.486c.152,0,.355-.051.507-.051a.7.7,0,0,0,.558-.609,3.349,3.349,0,0,0,.051-.71V65.76c0-.406-.152-.558-.558-.558H57.228c-3.754-.051-7.559-.051-11.313-.1H40.994c-1.877,0-3.8.051-5.682.051-.558,0-.812.1-.812.862v1.37c0,2.283,0,4.617.051,6.9a.858.858,0,0,0,.761.964,1.117,1.117,0,0,0,.406.051H37.9a3.943,3.943,0,0,0,.812-.1.873.873,0,0,0,.812-.812,2.47,2.47,0,0,0,.051-.609V71.543a1.012,1.012,0,0,1,1.065-1.065h1.268a2.373,2.373,0,0,1,.862.1A1.243,1.243,0,0,1,43.784,71.7a3.349,3.349,0,0,1,.051.71V89.248a.733.733,0,0,1-.1.355c-.1.1-.254.2-.355.3-.051,0-.051.051-.1.051a2.967,2.967,0,0,1-.964.2c-.507.051-1.015,0-1.573,0a.5.5,0,0,0-.406.152.05.05,0,0,1-.051-.051.384.384,0,0,1-.051.2.721.721,0,0,0-.1.3v3.4c0,.558.1.761.66.862a4.543,4.543,0,0,0,1.167.1H65.6a.7.7,0,0,0,.812-.812v-3.4c0-.71-.152-.862-.862-.862H64.076c-.507,0-.913-.406-.812-.812a5.493,5.493,0,0,1,.913-2.334c.051-.1.152-.152.2-.254l.051-.051a1.382,1.382,0,0,1,1.015-.355H72.8a1.258,1.258,0,0,1,1.268.71,7.9,7.9,0,0,1,.761,2.08V89.3c0,.051-.051.1-.051.152-.051.051-.1.152-.152.2l-.3.152h0a2.3,2.3,0,0,0-.406.1,9.056,9.056,0,0,1-1.167.1.733.733,0,0,0-.558.152h0a.956.956,0,0,0-.2.457,1.726,1.726,0,0,0-.051.507c.051.913.051,1.776.1,2.689a2.47,2.47,0,0,0,.051.609.808.808,0,0,0,.71.66H96.139a3.841,3.841,0,0,0,.761-.051.664.664,0,0,0,.66-.609,2.68,2.68,0,0,0,.051-.66v-.051h0V90.719a.956.956,0,0,0-.1-.406h0c-.152-.254-.2-.3-.355-.254a.305.305,0,0,0-.2-.051H94.414a1.013,1.013,0,0,1-.457-.1,1.81,1.81,0,0,1-.507-.558h0a1.481,1.481,0,0,1-.1-.457V84.124a.946.946,0,0,1,1.015-.964H96.7a7.41,7.41,0,0,0,1.826-.152,11.527,11.527,0,0,0,5.428-3.4,7.763,7.763,0,0,0,1.826-3.5,9.8,9.8,0,0,0,.1-2.435A.506.506,0,0,0,106.082,73.065ZM94.464,70.376H97.1a3.353,3.353,0,0,1,1.979.71,4.08,4.08,0,0,1,1.725,2.638,3.213,3.213,0,0,1-.355,1.928.385.385,0,0,0-.1.2,4.389,4.389,0,0,1-1.928,1.674v.051l-.913.3h-3.3a1.513,1.513,0,0,1-.406-.862v-.1a.186.186,0,0,0-.051-.152V71.34a.863.863,0,0,1,.051-.355A.753.753,0,0,1,94.464,70.376ZM67.932,81.233a.809.809,0,0,1-.609-.2c-.406-.254-.457-.406-.355-.862A25.037,25.037,0,0,1,68.642,75.8a7.678,7.678,0,0,1,.457-.71c.152.2.254.3.355.457a22.558,22.558,0,0,1,1.979,4.363,3.916,3.916,0,0,1,.1.761.494.494,0,0,1-.406.507,1.726,1.726,0,0,1-.507.051A23.763,23.763,0,0,0,67.932,81.233Z" transform="translate(-34.5 -64.431)" fill="#0a0203" fill-rule="evenodd"/>
      <path id="Path_1093" data-name="Path 1093" d="M197.661,85a12.361,12.361,0,0,0-.051-1.37c0-.1,0-.152-.051-.2a6.236,6.236,0,0,0-2.587-4.515,12.475,12.475,0,0,0-3.653-1.877c-1.42-.507-2.892-.964-4.312-1.42a10.553,10.553,0,0,1-2.181-.964,3.358,3.358,0,0,1-1.218-1.167,2.652,2.652,0,0,1-.3-.812h0c0-.051.051-.2,0-.2h0a2.97,2.97,0,0,1,.558-1.979,2.366,2.366,0,0,1,2.181-1.167h1.116a3.064,3.064,0,0,1,2.232.913,7.9,7.9,0,0,1,.812,1.015,9.748,9.748,0,0,1,.66.862,1.46,1.46,0,0,0,1.065.457h2.993a1,1,0,0,0,1.065-.862.863.863,0,0,0,.051-.355V70.335h0c0-.2.051-.355,0-.457,0-.71-.051-1.471-.051-2.181V66.124a2.47,2.47,0,0,0-.051-.609c-.1-.71-.355-.964-1.065-.964h-2.435a2.977,2.977,0,0,0-1.167.2,1.033,1.033,0,0,1-1.015,0c-.507-.2-1.015-.457-1.522-.66a3.355,3.355,0,0,0-1.573-.3h-1.623a6.059,6.059,0,0,0-2.486.507L183,64.247a8.3,8.3,0,0,0-2.892,2.029,9.147,9.147,0,0,0-2.537,6.95,6.772,6.772,0,0,0,3.247,5.58,14.031,14.031,0,0,0,3.044,1.471c1.319.507,2.689.964,4.059,1.42a9.6,9.6,0,0,1,2.384,1.218,3.6,3.6,0,0,1-.507,6.189,2.309,2.309,0,0,1-1.015.254h-1.826a.989.989,0,0,1-.406-.051,3.134,3.134,0,0,1-1.826-1.015,16.562,16.562,0,0,1-1.471-1.826l-.609-.913a.56.56,0,0,0-.507-.254h-3.7a.62.62,0,0,0-.457.152c-.1,0-.152.152-.2.254h0a.644.644,0,0,0-.051.3V93.57c0,.406.355.862.761.812h3.044a1,1,0,0,0,.761-.254,1.188,1.188,0,0,1,1.167-.152c.609.2,1.167.355,1.776.507a10.051,10.051,0,0,0,2.739.507,9.326,9.326,0,0,0,3.348-.609A10.487,10.487,0,0,0,197.2,88.5a4.876,4.876,0,0,0,.406-1.471.863.863,0,0,0,.051-.355C197.611,86.163,197.661,85.6,197.661,85Z" transform="translate(-104.975 -63.781)" fill="#0a0203" fill-rule="evenodd"/>
    </g>
    <g id="Group_3125" data-name="Group 3125" transform="translate(0.7 0.7)">
      <path id="Path_1094" data-name="Path 1094" d="M207.389,148.9H170.254a2.2,2.2,0,0,0-.254.051V152.2h37.846v-3.3h-.457Z" transform="translate(-84.112 -73.716)" fill="#0a0203" fill-rule="evenodd"/>
      <path id="Path_1095" data-name="Path 1095" d="M124.332,71.115v-1.42h-.254c-.558-.1-4.414-.051-5.682,0H101c-.406,0-.812-.051-1.218-.051-2.892-.051-5.783,0-8.675,0a.643.643,0,0,0-.3.051.05.05,0,0,1,.051.051H87.856v-.051a5.316,5.316,0,0,0-1.268.051h-.152v-.862c.1,0,.2-.051.3-.051h36.983a1.726,1.726,0,0,1,.507.051v-24.2c-.051-.152-.051-.254-.1-.406a16.586,16.586,0,0,0-.66-3.856,23.854,23.854,0,0,0-5.986-10.4,27.628,27.628,0,0,0-5.986-4.667c.051,0,.1,0,.1.051a.676.676,0,0,0-.3-.254,24.031,24.031,0,0,0-4.363-1.979,13.293,13.293,0,0,0-3.348-.761,19.388,19.388,0,0,0-3.45-.3h-55.4c-.558-.051-1.116-.1-1.674-.1-.862,0-1.725.051-2.587.051-.71,0-1.37,0-2.08.051h-7c-.152-.152-.254-.1-.406,0A3.021,3.021,0,0,1,28.3,20.587a12.713,12.713,0,0,1-1.522-3.4c-.051-.1,0-.2,0-.3a.863.863,0,0,0-.051-.355.788.788,0,0,1,.558-1.116,3.807,3.807,0,0,0,1.268-.457c.152-.1.3-.152.457-.254h.051a2.832,2.832,0,0,0,.406-.254c.152-.1.254-.2.406-.3a8.891,8.891,0,0,0,1.218-1.167,7.156,7.156,0,0,0,1.268-2.283c.051-.2.152-.406.2-.609a.6.6,0,0,1,.66-.457h1.167a.305.305,0,0,1,.2.051h.051a1.2,1.2,0,0,1,.457.3c.152.2.254.355.406.558-.051.1-.051.152.051.254a6.2,6.2,0,0,1,.609.964l.1.051a.177.177,0,0,0,.051.1c.1.2.3.3.457.507a2.814,2.814,0,0,0,.3.406c0,.051.051.051.1.1a6.274,6.274,0,0,0,1.877,1.218c.051,0,.051,0,.1.051a.05.05,0,0,0-.051.051c.1.051.2.152.3.152.2.051.406.2.66.152h.051c.1.2.254.1.355.051h.558a.643.643,0,0,1,.3.051.384.384,0,0,0,.507,0,.643.643,0,0,1,.3-.051,4.628,4.628,0,0,0,2.435-.66,2.73,2.73,0,0,0,1.065-.761c.1-.1.3-.152.406-.3a5.324,5.324,0,0,0,1.37-2.08,11.418,11.418,0,0,0,.406-1.218,13.5,13.5,0,0,0,.152-1.42h0a3.426,3.426,0,0,0-.1-.71c-.1-.254-.051-.609-.152-.913a3.976,3.976,0,0,1-.254-.71,4.272,4.272,0,0,0-.558-1.065,3.257,3.257,0,0,0-.507-.66,7.1,7.1,0,0,0-1.928-1.573,7.886,7.886,0,0,0-1.167-.406,6.111,6.111,0,0,0-2.537-.254,11.218,11.218,0,0,0-1.268.254,3.263,3.263,0,0,0-1.218.507,5.381,5.381,0,0,0-1.623,1.42l-.761,1.065a11.7,11.7,0,0,1-.71.964,5.391,5.391,0,0,1-.457.558.385.385,0,0,1-.2.1H32.711c-.2-.457-.3-.913-.558-1.37A8.545,8.545,0,0,0,31.088,3.49a6.389,6.389,0,0,0-1.725-1.573,11.018,11.018,0,0,0-2.08-.964A4.355,4.355,0,0,0,26.421.8a1.291,1.291,0,0,1-.355-.1H24.29a.385.385,0,0,1-.2.1,5.687,5.687,0,0,0-1.826.457,5.466,5.466,0,0,0-1.319.71,4.637,4.637,0,0,0-1.218,1.015A7.277,7.277,0,0,0,18.2,5.215c-.152.3-.2.66-.355,1.015,0,.051-.051.1-.051.2a.445.445,0,0,1-.3.355h-1.42a.951.951,0,0,1-.964-.609c-.355-.558-.71-1.065-1.065-1.623a8.762,8.762,0,0,0-1.319-1.42,4.486,4.486,0,0,0-1.167-.71c-.355-.152-.71-.254-1.015-.355a4.633,4.633,0,0,0-2.029-.2,5.759,5.759,0,0,0-2.587.66,3.764,3.764,0,0,0-1.116.66,4.828,4.828,0,0,0-.964,1.065,9.025,9.025,0,0,0-.862,1.522c-.1.254-.152.558-.254.862-.152.457,0,.862-.2,1.319-.1.2,0,.457.051.71,0,.1.051.254.051.355a3.932,3.932,0,0,0,.355,1.522,6.688,6.688,0,0,0,1.826,2.587,7.73,7.73,0,0,0,2.08,1.218,7.183,7.183,0,0,0,1.015.2,1.628,1.628,0,0,0,.862.1.186.186,0,0,0,.152-.051h.558a4.468,4.468,0,0,0,.862-.1h0a.393.393,0,0,0,.152-.051h.051a8.622,8.622,0,0,0,1.065-.355h0a5.679,5.679,0,0,0,1.674-1.218A8.036,8.036,0,0,0,14.753,10.9a12.306,12.306,0,0,1,.71-1.015c.051-.051.1-.1.152-.1s.1-.051.152-.051a.457.457,0,0,0,.254-.051h1.37c0,.051.051.1.1.152s.152.1.2.152h0c.051.2.152.355.2.558h0c0,.152-.051.254.1.355-.051.3.254.507.254.761h0a6.8,6.8,0,0,1,.862.862h0c.254.355.558.66.862,1.015a3.486,3.486,0,0,0,1.065.812,3.6,3.6,0,0,0,1.116.66c.355.1.71.254,1.015.355a1.771,1.771,0,0,1,.457.3v.051h0c0,.051.051.152.051.2a2.867,2.867,0,0,1,0,.66.939.939,0,0,0,0,.609h0l-.152.3c-.3.66-.609,1.37-.913,2.029a8.129,8.129,0,0,1-3.856,3.856c-1.015.507-2.029.964-3.044,1.42-.2.1-.457.2-.66.3a15.971,15.971,0,0,0-2.892,1.573,19.529,19.529,0,0,0-3.45,3.044A40.528,40.528,0,0,0,4.3,35.5c-.254.406-.507.862-.761,1.268A21.826,21.826,0,0,0,.954,45.09C.9,45.7.8,46.307.7,46.916V49.6a.969.969,0,0,1,.152.406,19.533,19.533,0,0,0,.66,3.348,31.574,31.574,0,0,0,4.363,9.588,25.509,25.509,0,0,0,6.8,7,21.585,21.585,0,0,0,8.32,3.5,28.022,28.022,0,0,0,5.022.457H86.436v1.065h37.846v-.457h0V72.535h-.051c-.507-.1-6.646-.051-8.066,0h-6.95c0-.051-.051-.051-.152-.051h-7.153v.051h-4.87l.051-.051H91.306a1.414,1.414,0,0,0-.507.051H86.385v-.862c.051-.051.051-.1.1-.152h37.744v-.1h.051v-.152A.393.393,0,0,0,124.332,71.115Zm-38.15-3.6c-.051-.051-.051-.051-.1-.051H24.29c-.558,0-1.116-.051-1.725-.051-.1,0-.254-.051-.355-.051-.051,0-.152-.051-.2-.051a2.909,2.909,0,0,1-.71-.2c-.1,0-.152-.051-.254-.051a16.129,16.129,0,0,1-3.45-1.573,21.346,21.346,0,0,1-10.5-16.995,16.761,16.761,0,0,1,2.739-10.4A21.3,21.3,0,0,1,18,30.378,17.013,17.013,0,0,1,24.442,28.4a14.256,14.256,0,0,1,1.471-.051H99.575a17.711,17.711,0,0,1,12.734,5.276,22.1,22.1,0,0,1,5.276,8.574,15.747,15.747,0,0,1,.812,4.819V57.976h0v9.487h0a6.009,6.009,0,0,0-1.319.1h-.3l.051-.051h-6.392c.051,0,.051.051.1.051C102.416,67.513,94.3,67.513,86.182,67.513Z" transform="translate(-0.7 -0.7)" fill="#0a0203" fill-rule="evenodd"/>
      <path id="Path_1096" data-name="Path 1096" d="M202.468,157.351H170v4.211h16.183v-.254c.152.1.2.2.3.254h21.307V157.3h-.457C205.715,157.351,204.091,157.351,202.468,157.351Z" transform="translate(-84.112 -77.855)" fill="#0a0203" fill-rule="evenodd"/>
    </g>
    <g id="Group_3129" data-name="Group 3129" transform="translate(17.644 77.507)">
      <g id="Group_3126" data-name="Group 3126" transform="translate(0 0.558)">
        <path id="Path_1097" data-name="Path 1097" d="M36.383,153.2l1.42,3.754h-.862l-.3-.812h-1.42l-.3.812H34.1l1.42-3.754Zm.051,2.334-.457-1.37h0l-.507,1.37Z" transform="translate(-34.1 -153.2)" fill="#0a0203"/>
      </g>
      <g id="Group_3127" data-name="Group 3127" transform="translate(32.651 0.457)">
        <path id="Path_1098" data-name="Path 1098" d="M99.394,155.942a.4.4,0,0,0,.2.2.387.387,0,0,0,.254.1.643.643,0,0,0,.3.051h.254c.1,0,.152-.051.254-.051.051-.051.152-.1.2-.152a.38.38,0,0,0,.051-.254.387.387,0,0,0-.1-.254,1.109,1.109,0,0,0-.254-.152.733.733,0,0,0-.355-.1c-.152-.051-.254-.051-.406-.1s-.254-.1-.406-.152a.818.818,0,0,1-.355-.2,1.345,1.345,0,0,1-.254-.3,1.013,1.013,0,0,1-.1-.457,1.5,1.5,0,0,1,.1-.507,2.206,2.206,0,0,1,.3-.355,1.8,1.8,0,0,1,.457-.2,1.726,1.726,0,0,1,.507-.051,1.9,1.9,0,0,1,.558.051.956.956,0,0,1,.457.2,1.185,1.185,0,0,1,.355.355,1,1,0,0,1,.1.558h-.761a2.2,2.2,0,0,0-.051-.254c-.051-.051-.1-.152-.152-.152-.051-.051-.152-.051-.254-.1a.644.644,0,0,0-.3-.051h-.2c-.051,0-.152.051-.2.051l-.152.152c-.051.051-.051.1-.051.2a.3.3,0,0,0,.051.2c.051.051.1.1.152.1a1.573,1.573,0,0,0,.355.1c.152.051.355.1.558.152a1.794,1.794,0,0,0,.3.051c.1.051.254.1.355.152.1.1.254.2.3.3a.857.857,0,0,1,.152.507,1.211,1.211,0,0,1-.1.457,1.064,1.064,0,0,1-.3.406,1.587,1.587,0,0,1-.507.254,2.03,2.03,0,0,1-1.268,0,1.587,1.587,0,0,1-.507-.254,1.368,1.368,0,0,1-.355-.406.787.787,0,0,1-.1-.609h.812A2.064,2.064,0,0,0,99.394,155.942Z" transform="translate(-98.461 -153)" fill="#0a0203"/>
        <path id="Path_1099" data-name="Path 1099" d="M106.612,153.2v1.42h1.522V153.2h.812v3.754h-.812v-1.623h-1.522v1.623H105.8V153.2Z" transform="translate(-102.077 -153.099)" fill="#0a0203"/>
        <path id="Path_1100" data-name="Path 1100" d="M113.3,154.267a1.754,1.754,0,0,1,.355-.609,1.439,1.439,0,0,1,.558-.406,1.853,1.853,0,0,1,.761-.152,1.694,1.694,0,0,1,.761.152,2.253,2.253,0,0,1,.558.406,3.783,3.783,0,0,1,.355.609,1.972,1.972,0,0,1,.1.761,3.915,3.915,0,0,1-.1.761,1.754,1.754,0,0,1-.355.609,2.253,2.253,0,0,1-.558.406,2.035,2.035,0,0,1-.761.152,1.694,1.694,0,0,1-.761-.152,2.252,2.252,0,0,1-.558-.406,2.4,2.4,0,0,1-.355-.609,1.972,1.972,0,0,1-.1-.761A3.916,3.916,0,0,1,113.3,154.267Zm.761,1.268a3.494,3.494,0,0,0,.152.406c.051.1.2.2.3.3a1.481,1.481,0,0,0,.457.1,1.212,1.212,0,0,0,.457-.1.457.457,0,0,0,.3-.3.576.576,0,0,0,.152-.406c0-.152.051-.3.051-.457a1.4,1.4,0,0,0-.051-.457,3.493,3.493,0,0,0-.152-.406l-.3-.3a1.481,1.481,0,0,0-.457-.1,1.212,1.212,0,0,0-.457.1.457.457,0,0,0-.3.3.576.576,0,0,0-.152.406,2.08,2.08,0,0,0,0,.913Z" transform="translate(-105.723 -153.049)" fill="#0a0203"/>
        <path id="Path_1101" data-name="Path 1101" d="M123.995,156.954l-.66-2.537h0l-.609,2.537h-.812L120.9,153.2h.812l.609,2.537h0l.66-2.537h.761l.66,2.587h0l.609-2.587h.812l-1.015,3.754Z" transform="translate(-109.516 -153.099)" fill="#0a0203"/>
        <path id="Path_1102" data-name="Path 1102" d="M133.379,153.2a1.482,1.482,0,0,1,.457.1,2.206,2.206,0,0,1,.355.2,1.061,1.061,0,0,1,.2.3.989.989,0,0,1,.051.406,1.023,1.023,0,0,1-.152.558.81.81,0,0,1-.457.355h0c.1.051.2.051.254.152a.7.7,0,0,1,.152.2c.051.1.051.152.1.254,0,.1.051.2.051.3v.457a.457.457,0,0,0,.051.254.385.385,0,0,0,.1.2h-.812c-.051-.1-.051-.254-.1-.406a1.4,1.4,0,0,0-.051-.457.956.956,0,0,0-.2-.457.62.62,0,0,0-.457-.152h-.71v1.471H131.4V153.2Zm-.3,1.725a.656.656,0,0,0,.406-.1.617.617,0,0,0,0-.812.547.547,0,0,0-.406-.1h-.862v1.065h.862Z" transform="translate(-114.69 -153.099)" fill="#0a0203"/>
        <path id="Path_1103" data-name="Path 1103" d="M138.6,154.267a1.754,1.754,0,0,1,.355-.609,1.439,1.439,0,0,1,.558-.406,1.853,1.853,0,0,1,.761-.152,1.694,1.694,0,0,1,.761.152,2.252,2.252,0,0,1,.558.406,3.782,3.782,0,0,1,.355.609,1.972,1.972,0,0,1,.1.761,3.915,3.915,0,0,1-.1.761,1.754,1.754,0,0,1-.355.609,2.252,2.252,0,0,1-.558.406,2.035,2.035,0,0,1-.761.152,1.694,1.694,0,0,1-.761-.152,2.252,2.252,0,0,1-.558-.406,2.4,2.4,0,0,1-.355-.609,1.972,1.972,0,0,1-.1-.761A3.916,3.916,0,0,1,138.6,154.267Zm.761,1.268a3.5,3.5,0,0,0,.152.406l.3.3a1.481,1.481,0,0,0,.457.1,1.212,1.212,0,0,0,.457-.1.457.457,0,0,0,.3-.3c.051-.152.152-.254.152-.406a2.08,2.08,0,0,0,0-.913,3.494,3.494,0,0,0-.152-.406l-.3-.3a1.481,1.481,0,0,0-.457-.1,1.212,1.212,0,0,0-.457.1.592.592,0,0,0-.3.3.576.576,0,0,0-.152.406,1.4,1.4,0,0,0-.051.457C139.312,155.231,139.362,155.383,139.362,155.535Z" transform="translate(-118.188 -153.049)" fill="#0a0203"/>
        <path id="Path_1104" data-name="Path 1104" d="M146.7,154.267a1.754,1.754,0,0,1,.355-.609,1.438,1.438,0,0,1,.558-.406,2.035,2.035,0,0,1,.761-.152,1.694,1.694,0,0,1,.761.152,2.252,2.252,0,0,1,.558.406,3.783,3.783,0,0,1,.355.609,1.972,1.972,0,0,1,.1.761,3.917,3.917,0,0,1-.1.761,1.754,1.754,0,0,1-.355.609,2.252,2.252,0,0,1-.558.406,1.853,1.853,0,0,1-.761.152,1.694,1.694,0,0,1-.761-.152,1.59,1.59,0,0,1-.558-.406,1.484,1.484,0,0,1-.355-.609,2.9,2.9,0,0,1,0-1.522Zm.761,1.268a3.5,3.5,0,0,0,.152.406l.3.3a1.481,1.481,0,0,0,.457.1,1.013,1.013,0,0,0,.457-.1.457.457,0,0,0,.3-.3c.051-.152.152-.254.152-.406s.051-.3.051-.457a1.4,1.4,0,0,0-.051-.457,3.494,3.494,0,0,0-.152-.406l-.3-.3a1.481,1.481,0,0,0-.457-.1,1.212,1.212,0,0,0-.457.1.592.592,0,0,0-.3.3.576.576,0,0,0-.152.406,2.08,2.08,0,0,0,0,.913Z" transform="translate(-122.178 -153.049)" fill="#0a0203"/>
        <path id="Path_1105" data-name="Path 1105" d="M156.067,153.2l.862,2.587h0l.812-2.587h1.167v3.754h-.761v-2.638h0l-.913,2.638h-.66l-.913-2.638h0v2.638H154.9V153.2Z" transform="translate(-126.268 -153.099)" fill="#0a0203"/>
      </g>
      <g id="Group_3128" data-name="Group 3128" transform="translate(4.363)">
        <path id="Path_1106" data-name="Path 1106" d="M53.8,154.979a2.309,2.309,0,0,0,.254,1.015,1.907,1.907,0,0,0,.71.71,2.156,2.156,0,0,0,2.029,0,1.907,1.907,0,0,0,.71-.71,2.145,2.145,0,0,0,.254-1.015,2.309,2.309,0,0,0-.254-1.015,1.907,1.907,0,0,0-.71-.71A2.145,2.145,0,0,0,55.779,153a2.309,2.309,0,0,0-1.015.254,1.6,1.6,0,0,0-.71.71,2.145,2.145,0,0,0-.254,1.015m1.116,0a3.12,3.12,0,0,1,.051-.66,1.113,1.113,0,0,1,.254-.609.655.655,0,0,1,.558-.254.727.727,0,0,1,.558.254,1.113,1.113,0,0,1,.254.609,4.312,4.312,0,0,1,0,1.319,1.114,1.114,0,0,1-.254.609.655.655,0,0,1-.558.254.727.727,0,0,1-.558-.254,1.693,1.693,0,0,1-.254-.609C54.967,155.384,54.916,155.181,54.916,154.979Z" transform="translate(-48.169 -152.543)" fill="#e03127" fill-rule="evenodd"/>
        <path id="Path_1107" data-name="Path 1107" d="M62.4,156.954h2.384v-.507h-1.37V153.2H62.4v3.754" transform="translate(-52.406 -152.642)" fill="#e03127" fill-rule="evenodd"/>
        <path id="Path_1108" data-name="Path 1108" d="M67.4,156.232a1.467,1.467,0,0,0,.558.558,1.932,1.932,0,0,0,.812.152,1.463,1.463,0,0,0,.964-.3,1.286,1.286,0,0,0,.406-.913,1,1,0,0,0-.254-.71,1.313,1.313,0,0,0-.558-.355,4.943,4.943,0,0,0-.558-.254c-.152-.1-.254-.2-.254-.355a.733.733,0,0,1,.1-.355.362.362,0,0,1,.3-.152.708.708,0,0,1,.457.152,2.813,2.813,0,0,1,.3.406l.406-.3a1.373,1.373,0,0,0-.507-.558,1.214,1.214,0,0,0-.761-.152,1.216,1.216,0,0,0-1.268,1.268.876.876,0,0,0,.254.66,1.313,1.313,0,0,0,.558.355,4.94,4.94,0,0,0,.558.254c.152.1.254.2.254.355a.461.461,0,0,1-.152.355.428.428,0,0,1-.355.1.461.461,0,0,1-.406-.2,1.542,1.542,0,0,1-.254-.355l-.609.355" transform="translate(-54.869 -152.58)" fill="#e03127" fill-rule="evenodd"/>
        <path id="Path_1109" data-name="Path 1109" d="M75.935,156.954v-.507h-1.42V155.28h1.268v-.507H74.515v-1.065h1.319V153.2H73.5v3.754h2.435" transform="translate(-57.875 -152.642)" fill="#e03127" fill-rule="evenodd"/>
        <path id="Path_1110" data-name="Path 1110" d="M79.2,156.954h2.435v-.507h-1.37V153.2H79.2v3.754" transform="translate(-60.683 -152.642)" fill="#e03127" fill-rule="evenodd"/>
        <path id="Path_1111" data-name="Path 1111" d="M86.935,156.954v-.507h-1.37V155.28h1.218v-.507H85.565v-1.065h1.319V153.2H84.5v3.754h2.435" transform="translate(-63.294 -152.642)" fill="#e03127" fill-rule="evenodd"/>
        <path id="Path_1112" data-name="Path 1112" d="M91.277,154.57l-.761-1.37H89.4l1.116,1.979v1.776h1.015v-1.877L92.6,153.2h-.507l-.812,1.37" transform="translate(-65.708 -152.642)" fill="#e03127" fill-rule="evenodd"/>
        <path id="Path_1113" data-name="Path 1113" d="M44.019,152.1l.812,2.435h.051l.457-1.471-.3-.964h1.319l.812,2.486h.051l.862-2.486h.558l-1.674,4.566h-.406l-.862-2.638h-.051l-.913,2.587h-.558L42.7,152.151V152.1h1.319" transform="translate(-42.7 -152.1)" fill="#e03127" fill-rule="evenodd"/>
      </g>
    </g>
    <g id="Group_3130" data-name="Group 3130" transform="translate(118.701 23.428)">
      <path id="Path_1114" data-name="Path 1114" d="M236.04,51.08a2.679,2.679,0,0,1-2.739-2.79,2.74,2.74,0,1,1,2.739,2.79Zm0-5.124a2.343,2.343,0,1,0,2.131,2.334A2.2,2.2,0,0,0,236.04,45.957Zm-.558,3.906h-.507V46.768h1.167c.761,0,1.116.254,1.116.913a.814.814,0,0,1-.812.862l.862,1.37h-.558l-.812-1.319h-.457v1.268Zm.558-1.725c.406,0,.71-.051.71-.507,0-.406-.355-.406-.66-.406h-.609v.913Z" transform="translate(-233.3 -45.5)" fill="#0a0203"/>
    </g>
  </g>
</svg>
