<svg xmlns="http://www.w3.org/2000/svg" xmlns:xlink="http://www.w3.org/1999/xlink" width="101.125" height="21.247" viewBox="0 0 101.125 21.247"><defs><style>.a{fill:none;}.b{clip-path:url(#a);}.c{fill:#fff;}</style><clipPath id="a"><rect class="a" width="101.125" height="21.247" transform="translate(0 0)"/></clipPath></defs><g transform="translate(0 0)"><g class="b" transform="translate(0 0)"><path class="c" d="M116.245,10.52c4.687,0,7.064,2.236,7.064,6.645,0,4.244-2.566,6.58-7.225,6.58-.7,0-1.707-.029-2.333-.084V10.606c.784-.053,1.71-.086,2.494-.086m-2.488-1.928-2.417.031,0,.174V25.707l1.91.03,2.578.037c6.257,0,9.992-3.278,9.992-8.769,0-5.605-3.091-8.447-9.187-8.447l-2.874.035" transform="translate(-85.055 -6.537)"/><path class="c" d="M201.667,8.83h-9.152V25.918h9.211v-2h-6.8V18.066h6.507V16.135h-6.507V10.793h6.8V8.83Z" transform="translate(-147.07 -6.746)"/><path class="c" d="M259.29,8.83h-2.356V25.918h8.818V23.89h-6.4V8.83Z" transform="translate(-196.283 -6.746)"/><path class="c" d="M306.732,8.83H294.048v2.028H299.2v15.06h2.413V10.858h5.181V8.83Z" transform="translate(-224.635 -6.746)"/><path class="c" d="M356.118,11.659c.275.834.59,1.732.876,2.494l2.289,5.939h-6.369l2.318-5.9c.32-.812.616-1.663.886-2.529m-.886,2.529Zm2.2-5.359h-2.453l-6.836,17.088h2.473l1.545-3.894h7.867l1.513,3.894h2.666L357.474,8.83Z" transform="translate(-265.962 -6.746)"/><path class="c" d="M423.292,74.861c0,.126-.1.215-.276.215-.051,0-.084,0-.1,0v-.408a1.019,1.019,0,0,1,.109,0c.175,0,.269.054.269.2m.207.836-.341-.415c-.029-.035-.067-.079-.1-.118.207-.008.368-.119.368-.321s-.161-.286-.375-.286c-.121,0-.2,0-.267,0V75.7h.129v-.525h.005l.414.525Z" transform="translate(-322.981 -56.956)"/><path class="c" d="M419.7,73.684a1.025,1.025,0,1,0,1.025-1.025,1.026,1.026,0,0,0-1.025,1.025m.112,0a.913.913,0,1,1,.913.912.914.914,0,0,1-.913-.912" transform="translate(-320.629 -55.507)"/><path class="c" d="M10.623,0A10.624,10.624,0,1,0,21.245,10.623,10.622,10.622,0,0,0,10.623,0M8.286,2.749a3.1,3.1,0,0,1,.474-.642,2.586,2.586,0,1,1,3.656,3.657,2.983,2.983,0,0,1-.644.475c-.218.124-8.251,4.767-8.251,4.767L8.286,2.749M4.972,16.582a3.063,3.063,0,0,1-.793-.09,2.586,2.586,0,1,1,1.338-5,2.989,2.989,0,0,1,.733.32c.217.127,8.253,4.763,8.253,4.763l-9.532,0m12.139-.1a2.609,2.609,0,0,1-3.179-1.872,2.966,2.966,0,0,1-.09-.795c0-.251,0-9.529,0-9.529l4.768,8.254a3.055,3.055,0,0,1,.318.732,2.608,2.608,0,0,1-1.816,3.21" transform="translate(0 0)"/></g></g></svg>