<svg xmlns="http://www.w3.org/2000/svg" width="283.772" height="22.311" viewBox="0 0 283.772 22.311">
  <g id="Rubinet_Logo_White" data-name="Rubinet Logo White" transform="translate(-197.043 -567.553)">
    <path id="Path_1192" data-name="Path 1192" d="M204.582,590.016h-.327c-.073-1.186-.533-1.5-1.671-1.5-.448,0-1.174-.061-1.174.327v5.738c0,.9.169,1.235,1.345,1.283v.278c-.666-.013-1.345-.036-2.01-.048-.642.012-1.271.036-1.925.048v-.278c1.174-.048,1.345-.387,1.345-1.283v-5.738c0-.364-.533-.327-1.017-.327-1.2,0-1.78.06-1.828,1.5h-.278v-1.888h7.433Z" transform="translate(0 -6.738)" fill="#fff"/>
    <path id="Path_1193" data-name="Path 1193" d="M212.768,593.842a6.955,6.955,0,0,0,.121,1.61c.157.412.654.412,1.041.412v.278c-.581-.013-1.174-.036-1.755-.048-.605.012-1.223.036-1.816.048v-.278c.387,0,.884,0,1.041-.412a6.957,6.957,0,0,0,.121-1.61v-3.414a6.965,6.965,0,0,0-.121-1.611c-.157-.411-.654-.411-1.041-.411v-.278c.569.012,1.15.036,1.731.048.617-.012,1.223-.036,1.84-.048v.278c-.387,0-.884,0-1.041.411a6.965,6.965,0,0,0-.121,1.611v1.4h4.322v-1.4a6.963,6.963,0,0,0-.121-1.611c-.157-.411-.654-.411-1.041-.411v-.278c.593.012,1.174.036,1.767.048.605-.012,1.2-.036,1.8-.048v.278c-.387,0-.884,0-1.041.411a6.965,6.965,0,0,0-.121,1.611v3.414a6.956,6.956,0,0,0,.121,1.61c.157.412.654.412,1.041.412v.278c-.581-.013-1.174-.036-1.755-.048-.605.012-1.211.036-1.816.048v-.278c.387,0,.884,0,1.041-.412a6.958,6.958,0,0,0,.121-1.61V592.22h-4.322Z" transform="translate(-4.361 -6.738)" fill="#fff"/>
    <path id="Path_1194" data-name="Path 1194" d="M227.377,590.477a6.955,6.955,0,0,0-.121-1.61c-.157-.412-.654-.412-1.041-.412v-.326h6.016v1.828h-.278c-.23-1.417-.859-1.5-2.143-1.5h-.874c-.182,0-.269-.011-.3.049a1.933,1.933,0,0,0-.012.448v2.869c1.658.073,1.9-.617,1.973-1.49h.278c-.012.545-.024,1.1-.048,1.647.024.5.036,1,.048,1.5h-.278c-.169-1.272-.811-1.332-1.973-1.332v1.985a2.305,2.305,0,0,0,.218,1.223c.315.424,1.065.448,1.547.436,1.259-.025,2.085-.182,2.24-1.623h.278l-.109,1.95h-6.585v-.278c.387,0,.884,0,1.041-.412a6.948,6.948,0,0,0,.121-1.609Z" transform="translate(-9.551 -6.738)" fill="#fff"/>
    <path id="Path_1195" data-name="Path 1195" d="M263.346,584.564a31.326,31.326,0,0,0,2.163,2.84,3.393,3.393,0,0,0,2.066,1.131v1.159c-1.065-.032-2.131-.1-3.2-.129-1.065.032-2.131.1-3.2.129l-4.584-6.489c-1.065-1.485-2.453-3.1-3.357-3.035-.161,0-.356.033-.517.033v4.261c0,2.647-.033,4.164,3.067,4.067v1.162c-1.841-.032-3.712-.1-5.553-.129-1.839.032-3.647.1-5.487.129v-1.162c3.1.1,3.034-1.42,3.034-4.067V573.554c0-2.647.067-4.164-3.034-4.068v-1.162c1.84.032,3.648.1,5.487.129,1.744-.032,3.487-.1,5.23-.129a17.372,17.372,0,0,1,5.326.775,4.9,4.9,0,0,1,3.2,4.842c0,2.872-2.421,4.681-5.068,5.1Zm-9.395-5.875c3.1,0,4.681-1.2,4.681-4.391,0-2.937-1.227-4.487-4.262-4.487-.354,0-1.452-.032-1.547.356-.1.355-.1,2.55-.1,3v5.521Z" transform="translate(-15.623 -0.252)" fill="#fff"/>
    <path id="Path_1196" data-name="Path 1196" d="M299.037,592.314l-5.779,1.324-.29-3.131H292.9a5.953,5.953,0,0,1-5.52,3.131c-3.2,0-4.1-1.969-4.1-4.778V583.63a5.957,5.957,0,0,0-.29-2.421c-.356-.452-1.2-.452-1.712-.516v-1.065l6.23-.355v8.81c0,1.681.129,3.454,2.164,3.454,2.421,0,2.97-2.389,2.97-4.519v-3.39a6.56,6.56,0,0,0-.291-2.421c-.322-.484-1.194-.452-1.71-.517v-1.063l6.23-.355v9.3a5.124,5.124,0,0,0,.323,2.227c.387.613,1.226.484,1.84.484Z" transform="translate(-27.584 -3.838)" fill="#fff"/>
    <path id="Path_1197" data-name="Path 1197" d="M313.914,589.867h-.549V572.4c0-1.776.129-2.615-2.034-2.809v-1.065l6.263-.968v9.458a5.711,5.711,0,0,1,3.81-1.839c3.968,0,6.747,3.422,6.747,7.263a7.142,7.142,0,0,1-7.2,7.36,6.541,6.541,0,0,1-4.262-1.614Zm3.745-4.842c0,1.9.387,3.3,2.582,3.3,2.841,0,3.228-3.519,3.228-5.649,0-2.194-.549-5.39-3.357-5.39a2.494,2.494,0,0,0-2.034,1.032,4.3,4.3,0,0,0-.419,2Z" transform="translate(-37.426 -0.002)" fill="#fff"/>
    <path id="Path_1198" data-name="Path 1198" d="M348.012,585.407a5.959,5.959,0,0,0,.323,2.421,2.227,2.227,0,0,0,1.711.58v1.034c-1.291-.032-2.615-.1-3.968-.129-1.453.032-2.873.1-4.326.129v-1.034a2.227,2.227,0,0,0,1.711-.58,5.958,5.958,0,0,0,.323-2.421v-5.582c0-1.937-.355-2.648-2.066-2.615v-1.065a39.131,39.131,0,0,0,6.295-.968Zm-4.939-15.4a2.452,2.452,0,0,1,2.453-2.453,2.378,2.378,0,0,1,2.389,2.453,2.406,2.406,0,0,1-2.488,2.389,2.488,2.488,0,0,1-2.354-2.385Z" transform="translate(-47.377)" fill="#fff"/>
    <path id="Path_1199" data-name="Path 1199" d="M364.458,589.117a6.575,6.575,0,0,0,.291,2.421,2.227,2.227,0,0,0,1.711.58v1.034c-1.388-.032-2.744-.1-4.132-.129-1.356.032-2.744.1-4.1.129v-1.034a2.227,2.227,0,0,0,1.711-.58,6.574,6.574,0,0,0,.291-2.421V584.5c0-1.742.032-3.3-2.1-3.3v-1.059a21.254,21.254,0,0,0,5.94-1.259l.355,2.9c1.194-1.678,2.679-2.9,4.775-2.9a4.89,4.89,0,0,1,3.841,1.681c.807,1.065.775,2.97.775,4.293v4.256a6.575,6.575,0,0,0,.291,2.421,2.227,2.227,0,0,0,1.711.58v1.034c-1.259-.032-2.518-.1-3.777-.129-1.485.032-3,.1-4.487.129v-1.1c.517,0,1.356-.032,1.711-.517a5.959,5.959,0,0,0,.323-2.421v-4.035c0-1.517.1-4.1-2.066-4.1a3.072,3.072,0,0,0-2.647,2,8.372,8.372,0,0,0-.42,3.357Z" transform="translate(-52.751 -3.711)" fill="#fff"/>
    <path id="Path_1200" data-name="Path 1200" d="M394.249,585.634c-.067,2.841.807,6.068,4.229,6.068,1.84,0,2.712-.9,3.938-2.162l1,.807a7.09,7.09,0,0,1-6.166,3.161c-4.229,0-7.489-2.679-7.683-7.07-.194-4.488,3.228-7.554,7.618-7.554,3.454,0,6.553,2.354,6.553,5.972,0,.9-.517.775-1.291.775Zm4.326-1.291c.678,0,.936-.226.936-.9,0-1.485-.9-3.26-2.583-3.26-1.969,0-2.583,2.453-2.647,4.164Z" transform="translate(-63.044 -3.711)" fill="#fff"/>
    <path id="Path_1201" data-name="Path 1201" d="M422.279,578.856v8.138c0,1.259,0,2.712,1.163,2.712a2.588,2.588,0,0,0,1.9-1.259l1.1.74a5.133,5.133,0,0,1-4.552,2.454c-3.161,0-3.842-1.84-3.842-4.649v-8.138h-1.743v-.968a6.461,6.461,0,0,0,4.584-4.713h1.387v4.39h3.261v1.291Z" transform="translate(-71.803 -1.84)" fill="#fff"/>
    <path id="Path_1202" data-name="Path 1202" d="M446.415,590.029h-.278c-.145-.521-.269-1.029-.811-1.259a4.638,4.638,0,0,0-1.792-.218c-.484,0-.714-.024-.859.06-.073.048-.1.269-.1.617v2.713c1.658.073,1.9-.593,1.973-1.465h.279c-.013.545-.025,1.1-.049,1.646.024.5.036,1.005.049,1.5h-.279c-.169-1.271-.811-1.3-1.973-1.3v1.525a6.869,6.869,0,0,0,.122,1.6c.181.484.774.387,1.2.412v.278c-.617-.013-1.247-.036-1.864-.048-.617.012-1.223.036-1.864.048v-.278c.387,0,.884,0,1.041-.412a6.958,6.958,0,0,0,.121-1.61V590.43a6.962,6.962,0,0,0-.121-1.611c-.157-.411-.654-.411-1.041-.411v-.278c.74.012,1.453.036,2.167.048,1.295-.012,2.59-.036,3.885-.048Z" transform="translate(-79.617 -6.738)" fill="#fff"/>
    <path id="Path_1203" data-name="Path 1203" d="M451.846,593.421a6.987,6.987,0,0,0-.58,1.828c0,.521.617.484.981.521v.278c-.448-.013-.884-.036-1.332-.048-.424.012-.835.036-1.259.048v-.278a1.176,1.176,0,0,0,1.163-.86c.336-.775.665-1.538,1-2.312l1.853-4.757h.411l2.445,6.149a8.968,8.968,0,0,0,.629,1.332,1.345,1.345,0,0,0,1.041.448v.278c-.568-.013-1.15-.036-1.718-.048-.582.012-1.175.036-1.756.048v-.278c.336-.013.932.012.932-.461a2.861,2.861,0,0,0-.241-.942l-.471-1.247h-2.99Zm2.942-.691-1.331-3.413-1.345,3.413Z" transform="translate(-82.723 -6.643)" fill="#fff"/>
    <path id="Path_1204" data-name="Path 1204" d="M471.219,592.934c0,2.2-.859,3.342-3.161,3.342-2.167,0-3.22-.763-3.22-2.954V590.43a6.965,6.965,0,0,0-.121-1.611c-.157-.411-.654-.411-1.041-.411v-.278c.568.012,1.15.036,1.718.048.618-.012,1.223-.036,1.841-.048v.278c-.387,0-.9-.013-1.041.411a7.722,7.722,0,0,0-.109,1.611v2.978c0,1.547.605,2.433,2.264,2.433a2.227,2.227,0,0,0,2.506-2.494V590.7a8.107,8.107,0,0,0-.121-1.73c-.169-.509-.654-.557-1.126-.557v-.278c.471.012.932.036,1.4.048.448-.012.9-.036,1.356-.048v.278c-.387.012-.812,0-.981.436a6.687,6.687,0,0,0-.169,1.852Z" transform="translate(-87.315 -6.738)" fill="#fff"/>
    <path id="Path_1205" data-name="Path 1205" d="M486.169,588.093h.182l.1,2.385h-.278a2.514,2.514,0,0,0-2.556-2.287c-2.166,0-2.821,2.143-2.821,3.958s.7,3.777,2.846,3.777c1.694,0,2.311-1.211,2.675-2.663h.218v2.651h-.157l-.291-.617a4.03,4.03,0,0,1-2.675.908,3.858,3.858,0,0,1-4.129-4.055,4.1,4.1,0,0,1,4.237-4.237,4.15,4.15,0,0,1,2.457.75Z" transform="translate(-92.423 -6.666)" fill="#fff"/>
    <path id="Path_1206" data-name="Path 1206" d="M493.531,590.477a6.921,6.921,0,0,0-.122-1.61c-.157-.412-.654-.412-1.041-.412v-.326h6.016v1.828h-.28c-.229-1.417-.86-1.5-2.142-1.5h-.874c-.182,0-.269-.011-.3.049a1.916,1.916,0,0,0-.013.448v2.869c1.658.073,1.9-.617,1.974-1.49h.278c-.013.545-.024,1.1-.049,1.647.025.5.036,1,.049,1.5h-.278c-.17-1.272-.811-1.332-1.974-1.332v1.985a2.305,2.305,0,0,0,.218,1.223c.315.424,1.065.448,1.547.436,1.259-.025,2.085-.182,2.24-1.623h.278l-.109,1.95h-6.585v-.278c.387,0,.884,0,1.041-.412a6.909,6.909,0,0,0,.122-1.609Z" transform="translate(-96.708 -6.738)" fill="#fff"/>
    <path id="Path_1207" data-name="Path 1207" d="M512.206,590.016h-.326c-.073-1.186-.533-1.5-1.671-1.5-.448,0-1.174-.061-1.174.327v5.738c0,.9.169,1.235,1.345,1.283v.278c-.666-.013-1.345-.036-2.01-.048-.642.012-1.271.036-1.924.048v-.278c1.174-.048,1.345-.387,1.345-1.283v-5.738c0-.364-.533-.327-1.018-.327-1.2,0-1.78.06-1.828,1.5h-.278v-1.888H512.1Z" transform="translate(-100.738 -6.738)" fill="#fff"/>
    <path id="Path_1208" data-name="Path 1208" d="M531.025,588.093h.182l.1,2.385h-.279a2.514,2.514,0,0,0-2.556-2.286c-2.167,0-2.82,2.143-2.82,3.958s.7,3.777,2.845,3.777c1.695,0,2.312-1.21,2.675-2.663h.218v2.651h-.157l-.291-.617a4.036,4.036,0,0,1-2.675.908,3.857,3.857,0,0,1-4.128-4.055,4.1,4.1,0,0,1,4.237-4.237,4.155,4.155,0,0,1,2.457.75Z" transform="translate(-107.113 -6.666)" fill="#fff"/>
    <path id="Path_1209" data-name="Path 1209" d="M537.6,592.088a4.323,4.323,0,0,1,4.443-4.177,4.155,4.155,0,1,1-4.443,4.177Zm1.513,0c0,1.9.751,3.789,2.954,3.789,2.152,0,2.809-2.021,2.809-3.826s-.751-3.813-2.881-3.813c-2.094,0-2.88,2.058-2.88,3.85Z" transform="translate(-111.522 -6.666)" fill="#fff"/>
    <path id="Path_1210" data-name="Path 1210" d="M562.025,594.556c0,1.15.037,1.211,1.2,1.307v.278c-.629-.013-1.222-.036-1.816-.048-.605.012-1.222.036-1.828.048v-.278c1.163-.1,1.2-.157,1.2-1.307v-5.278h-.027l-1.38,3.377c-.508,1.163-1,2.324-1.513,3.487h-.121l-2.942-6.864h-.024v5.1c0,.942.181,1.441,1.161,1.489v.278c-.448-.013-.9-.036-1.345-.048-.424.012-.847.036-1.271.048v-.278a.959.959,0,0,0,1.09-1.1V589.6a2.553,2.553,0,0,0-.11-.788c-.157-.411-.654-.411-1.04-.411v-.278c.411.024.81.036,1.222.048.376-.012.74-.024,1.114-.048l2.663,6.2,2.591-6.2c.375.024.763.036,1.138.048.387-.012.775-.024,1.2-.048v.291c-.387,0-.859.012-1.04.412a4.392,4.392,0,0,0-.122,1.345Z" transform="translate(-116.65 -6.738)" fill="#fff"/>
    <path id="Path_1211" data-name="Path 1211" d="M572.693,593.842a6.915,6.915,0,0,0,.122,1.61c.169.471.74.387,1.162.412v.278c-.629-.013-1.259-.036-1.888-.048-.594.012-1.174.036-1.78.048v-.278c.387,0,.9,0,1.029-.412a7.707,7.707,0,0,0,.109-1.61v-3.4a7.782,7.782,0,0,0-.109-1.622c-.145-.424-.641-.411-1.029-.411v-.278c.617.012,1.223.036,1.827.048.582-.012,1.15-.036,1.732-.048,1.307.048,2.784.557,2.784,2.094,0,1.767-1.707,2.191-3.148,2.191-.218,0-.762-.037-.811-.037Zm0-1.792c.23.012.471.049.7.049,1.248,0,1.865-.533,1.865-1.84a1.549,1.549,0,0,0-1.731-1.78,2.538,2.538,0,0,0-.751.073c-.1.061-.085.194-.085.5Z" transform="translate(-122.234 -6.738)" fill="#fff"/>
    <path id="Path_1212" data-name="Path 1212" d="M582.2,593.421a6.969,6.969,0,0,0-.581,1.828c0,.521.617.484.981.521v.278c-.448-.013-.884-.036-1.332-.048-.424.012-.835.036-1.259.048v-.278a1.176,1.176,0,0,0,1.162-.859c.336-.775.665-1.538,1-2.312l1.853-4.757h.412l2.445,6.149a8.9,8.9,0,0,0,.63,1.332,1.339,1.339,0,0,0,1.041.448v.278c-.569-.013-1.15-.036-1.719-.048-.581.012-1.174.036-1.755.048v-.278c.336-.013.931.012.931-.461a2.861,2.861,0,0,0-.241-.942l-.471-1.247H582.31Zm2.942-.691-1.332-3.413-1.345,3.413Z" transform="translate(-125.41 -6.643)" fill="#fff"/>
    <path id="Path_1213" data-name="Path 1213" d="M595.244,589.133a1.393,1.393,0,0,0-1.32-.726v-.278c.387.012.763.036,1.151.048.314-.012.641-.036.956-.048l5.108,6.234h.024V591a10.559,10.559,0,0,0-.109-1.864c-.145-.679-.471-.63-1.076-.726v-.278c.448.012.883.036,1.331.048.424-.012.835-.036,1.283-.048v.278c-.448.048-.762.012-.92.533a11.886,11.886,0,0,0-.145,2.118v5.218h-.363c-.269-.327-.533-.666-.8-1l-4.733-5.738h-.024V593.6a5.762,5.762,0,0,0,.181,1.767c.206.471.605.448,1.054.5v.278c-.461-.013-.933-.036-1.393-.048-.448.012-.9.036-1.345.048v-.278c.471-.048.92-.073,1.041-.593a9.408,9.408,0,0,0,.1-1.671Z" transform="translate(-129.967 -6.738)" fill="#fff"/>
    <path id="Path_1214" data-name="Path 1214" d="M611.765,594.556c0,1.15.036,1.211,1.2,1.307v.278c-.605-.013-1.211-.036-1.816-.048-.617.012-1.235.036-1.852.048v-.278c1.174-.1,1.223-.169,1.223-1.307v-1.5L609.4,591.13a17.775,17.775,0,0,0-1.48-2.507c-.2-.23-.412-.169-.7-.217v-.278c.544.012,1.1.036,1.646.048.568-.012,1.137-.036,1.707-.048v.278c-.269,0-.909-.024-.909.387a1.806,1.806,0,0,0,.315.847l1.574,2.917.774-1.235a10.41,10.41,0,0,0,1.2-2.409c0-.461-.544-.471-.874-.508v-.278c.436.012.859.036,1.295.048.4-.012.787-.036,1.187-.048v.278c-.7.061-.956.533-1.283,1.076l-2.094,3.462Z" transform="translate(-134.322 -6.738)" fill="#fff"/>
  </g>
</svg>
