<svg xmlns="http://www.w3.org/2000/svg" width="86.167" height="18.273" viewBox="0 0 86.167 18.273">
  <g id="toto-logo" transform="translate(-22.88 -82.699)">
    <path id="Path_712" data-name="Path 712" d="M34.7,86.662v11c0,1.274.314,1.715,1.645,1.715h2.176v1.884H26.492V99.374h2.172c1.273,0,1.651-.66,1.651-1.715v-11H28.688c-3.268,0-3.722,2.674-3.722,4.12l-2.086-.019V84.647H41.924v6.116l-1.981.019c0-1.446-.449-4.12-3.72-4.12Z" transform="translate(0 -1.29)" fill="#fff"/>
    <path id="Path_713" data-name="Path 713" d="M155.845,86.662v11c0,1.274.32,1.715,1.652,1.715h2.179v1.884H147.647V99.374h2.17c1.273,0,1.651-.66,1.651-1.715v-11h-1.632c-3.266,0-3.717,2.674-3.717,4.12l-2.084-.019V84.647h19.043v6.116l-1.974.019c0-1.446-.458-4.12-3.732-4.12Z" transform="translate(-80.214 -1.29)" fill="#fff"/>
    <path id="Path_714" data-name="Path 714" d="M91.51,82.7c-6.153,0-10.116,4.017-10.116,9.139,0,5.637,4.359,9.134,10.116,9.134,6.1,0,10.108-3.739,10.108-9.134C101.619,86.777,97.406,82.7,91.51,82.7Zm0,16.121c-3.619,0-5.358-2.776-5.358-6.99,0-4.1,1.673-6.978,5.358-6.978,3.477,0,5.346,2.573,5.346,6.978C96.857,95.909,95.155,98.82,91.51,98.82Z" transform="translate(-38.741)" fill="#fff"/>
    <path id="Path_715" data-name="Path 715" d="M212.9,82.7c-6.144,0-10.115,4.017-10.115,9.139,0,5.637,4.359,9.134,10.115,9.134,6.1,0,10.116-3.739,10.116-9.134C223.02,86.777,218.807,82.7,212.9,82.7Zm0,16.121c-3.61,0-5.346-2.776-5.346-6.99,0-4.1,1.663-6.978,5.346-6.978,3.48,0,5.353,2.573,5.353,6.978C218.257,95.909,216.553,98.82,212.9,98.82Z" transform="translate(-119.113)" fill="#fff"/>
    <g id="Group_3018" data-name="Group 3018" transform="translate(104.358 95.276)">
      <path id="Path_716" data-name="Path 716" d="M265.891,121.173h.339a.613.613,0,0,1,.331.069.524.524,0,0,1,.141.166.428.428,0,0,1,.053.217.606.606,0,0,1-.125.37.5.5,0,0,1-.429.164h-.31Zm0,1.336h.339c.038,0,.125.1.229.284l.094.17.393.758h.516l-.475-.884a1.327,1.327,0,0,0-.319-.416.845.845,0,0,0,.544-.82.816.816,0,0,0-.095-.4.69.69,0,0,0-.268-.28,1,1,0,0,0-.494-.1h-.915v2.9h.451Zm1.6,1.8a2.334,2.334,0,0,0,.874-3.213,2.165,2.165,0,0,0-.857-.862,2.253,2.253,0,0,0-1.176-.314,2.375,2.375,0,0,0-2.033,1.176,2.351,2.351,0,0,0,.884,3.213,2.276,2.276,0,0,0,1.15.3A2.311,2.311,0,0,0,267.488,124.307ZM265.35,124a2.03,2.03,0,0,1-1-1.726,2.011,2.011,0,0,1,.265-1,1.932,1.932,0,0,1,.726-.735,2.061,2.061,0,0,1,1.985,0,1.916,1.916,0,0,1,.733.735,2.008,2.008,0,0,1,.262,1,1.9,1.9,0,0,1-.269,1,1.95,1.95,0,0,1-.733.729,2.077,2.077,0,0,1-1.967,0Z" transform="translate(-263.992 -119.918)" fill="#fff"/>
    </g>
  </g>
</svg>
