<svg id="Group_3470" data-name="Group 3470" xmlns="http://www.w3.org/2000/svg" xmlns:xlink="http://www.w3.org/1999/xlink" width="103.461" height="103.463" viewBox="0 0 103.461 103.463">
  <defs>
    <clipPath id="clip-path">
      <rect id="Rectangle_1197" data-name="Rectangle 1197" width="103.461" height="103.463" fill="#fff"/>
    </clipPath>
  </defs>
  <path id="Path_1359" data-name="Path 1359" d="M3.6,51.729,51.727,3.6,99.861,51.729,51.727,99.861ZM51.727,0,0,51.731l51.727,51.731,51.734-51.731Z" transform="translate(0 0)" fill="#fff"/>
  <g id="Group_3469" data-name="Group 3469" transform="translate(0 0)">
    <g id="Group_3468" data-name="Group 3468" clip-path="url(#clip-path)">
      <path id="Path_1360" data-name="Path 1360" d="M15.35,27.85h7.226v5.129a5.992,5.992,0,0,1-.4,2.6H25.2a5.725,5.725,0,0,1-.4-2.6V21.9a5.932,5.932,0,0,1,.4-2.623h-3.02a6.136,6.136,0,0,1,.4,2.623v4.088H15.35V21.9a5.974,5.974,0,0,1,.4-2.623H12.725A5.979,5.979,0,0,1,13.1,21.9V32.978a6.052,6.052,0,0,1-.379,2.6h3.027a5.679,5.679,0,0,1-.4-2.6Z" transform="translate(15.515 23.498)" fill="#fff"/>
      <path id="Path_1361" data-name="Path 1361" d="M22.2,35.447a3.032,3.032,0,0,1,.262-1.014L23.6,31.641h6.829l1.123,2.741a3.1,3.1,0,0,1,.284,1.181v.191h3.074a12.043,12.043,0,0,1-1.394-2.621l-6.1-13.968h-.468L20.6,33.081a11.151,11.151,0,0,1-1.514,2.672h3.14a2.138,2.138,0,0,1-.024-.306m4.825-12.122,2.634,6.418H24.388Z" transform="translate(23.266 23.366)" fill="#fff"/>
      <path id="Path_1362" data-name="Path 1362" d="M44.1,19.578a2.9,2.9,0,0,1-.257,1.014L39.278,31.7,37.05,26.267l1.977-4.328a11.1,11.1,0,0,1,1.509-2.668H37.394a2.1,2.1,0,0,1,.024.308,2.918,2.918,0,0,1-.26,1.014L35.94,23.564l-1.2-2.921a3.142,3.142,0,0,1-.286-1.178v-.191H31.388A11.932,11.932,0,0,1,32.78,21.9l1.982,4.538L32.6,31.7,28.062,20.646a3.141,3.141,0,0,1-.284-1.178v-.191H24.706A11.858,11.858,0,0,1,26.1,21.9l6.1,13.966h.475l3.169-6.949,3.034,6.949h.473l6.36-13.919a11.013,11.013,0,0,1,1.514-2.668H44.074a2.153,2.153,0,0,1,.022.3" transform="translate(30.124 23.498)" fill="#fff"/>
      <path id="Path_1363" data-name="Path 1363" d="M13.091,26.538c-1.869-1.416-3.076-2.288-3.076-3.733,0-1.134.852-1.869,2.339-1.869a4.955,4.955,0,0,1,2.958.994l.832-2.23c-1.285,0-1.7-.537-3.646-.537-2.9,0-4.7,1.633-4.7,3.9,0,1.4.8,2.577,2.408,3.946,2.222,1.891,3.928,2.883,3.928,4.609,0,1.438-1.141,2.5-2.983,2.5a6.965,6.965,0,0,1-3.558-1.079l-.149,2.335c1.285,0,1.764.59,3.7.59,3.282,0,5.155-1.8,5.155-4.49,0-2.2-1.205-3.4-3.211-4.94" transform="translate(9.075 23.365)" fill="#fff"/>
      <path id="Path_1364" data-name="Path 1364" d="M40.831,26.538c-1.864-1.416-3.071-2.288-3.071-3.733,0-1.134.852-1.869,2.339-1.869a4.944,4.944,0,0,1,2.956.994l.832-2.23c-1.285,0-1.7-.537-3.646-.537-2.9,0-4.7,1.633-4.7,3.9,0,1.4.8,2.577,2.408,3.946,2.224,1.891,3.928,2.883,3.928,4.609,0,1.438-1.141,2.5-2.983,2.5a6.96,6.96,0,0,1-3.56-1.079l-.146,2.335c1.285,0,1.762.59,3.706.59,3.282,0,5.153-1.8,5.153-4.49,0-2.2-1.2-3.4-3.214-4.94" transform="translate(42.9 23.365)" fill="#fff"/>
      <path id="Path_1365" data-name="Path 1365" d="M15.016,32.625h2.071v-.648H15.016V30.43H17.16v-.641H14.29v5.053h2.938V34.2H15.016Z" transform="translate(17.424 36.321)" fill="#fff"/>
      <path id="Path_1366" data-name="Path 1366" d="M20.442,33.722l-3.418-3.933h-.584v5.06h.677v-3.9l3.382,3.9h.628v-5.06h-.686Z" transform="translate(20.046 36.321)" fill="#fff"/>
      <path id="Path_1367" data-name="Path 1367" d="M22.344,33.037h.976v1.056l-.069.02a3.367,3.367,0,0,1-1.043.2,2.025,2.025,0,0,1-1.46-.55,2,2,0,0,1,0-2.794,1.89,1.89,0,0,1,1.394-.568,3.568,3.568,0,0,1,1.8.528v-.743a6.47,6.47,0,0,0-.972-.335,3.452,3.452,0,0,0-.812-.091,2.7,2.7,0,0,0-1.953.75,2.53,2.53,0,0,0-.779,1.891,2.411,2.411,0,0,0,.755,1.809,2.756,2.756,0,0,0,2.011.732,4.642,4.642,0,0,0,1.851-.406V32.391h-1.7v.646Z" transform="translate(23.686 36.287)" fill="#fff"/>
      <path id="Path_1368" data-name="Path 1368" d="M23.176,29.789h-.723v5.06H25.46v-.661H23.176Z" transform="translate(27.377 36.321)" fill="#fff"/>
      <path id="Path_1369" data-name="Path 1369" d="M26.485,29.776,24.31,34.865h.746l.632-1.5h2.159l.675,1.5h.739l-2.27-5.089Zm-.515,2.945.761-1.833.814,1.833Z" transform="translate(29.641 36.305)" fill="#fff"/>
      <path id="Path_1370" data-name="Path 1370" d="M31.272,33.722l-3.418-3.933h-.586v5.06h.684v-3.9l3.382,3.9h.624v-5.06h-.686Z" transform="translate(33.247 36.321)" fill="#fff"/>
      <path id="Path_1371" data-name="Path 1371" d="M33.684,30.1a3.6,3.6,0,0,0-1.636-.311H30.34v5.053h1.607a7.255,7.255,0,0,0,.912-.038,2.666,2.666,0,0,0,.524-.151A2.494,2.494,0,0,0,35,32.321a2.532,2.532,0,0,0-.353-1.312,2.361,2.361,0,0,0-.959-.91m.024,3.555a1.774,1.774,0,0,1-.368.28,2.118,2.118,0,0,1-.5.191,3.848,3.848,0,0,1-.843.075h-.93V30.435h.9a4.555,4.555,0,0,1,.763.042,1.991,1.991,0,0,1,.5.16,1.853,1.853,0,0,1,.464.313,1.744,1.744,0,0,1,.553,1.334,1.884,1.884,0,0,1-.537,1.372" transform="translate(36.993 36.321)" fill="#fff"/>
      <rect id="Rectangle_1196" data-name="Rectangle 1196" width="0.976" height="6.813" transform="translate(41.43 25.697)" fill="#fff"/>
      <path id="Path_1372" data-name="Path 1372" d="M20.492,16.564a1.8,1.8,0,0,0,.632,1.394,2.22,2.22,0,0,0,1.551.561,2.251,2.251,0,0,0,1.556-.548,1.791,1.791,0,0,0,.613-1.4,1.756,1.756,0,0,0-.948-1.611,1.782,1.782,0,0,0,.852-1.507,1.8,1.8,0,0,0-.59-1.365,2.032,2.032,0,0,0-1.438-.55,2.072,2.072,0,0,0-1.469.557,1.792,1.792,0,0,0-.6,1.358,1.64,1.64,0,0,0,.189.808,2.333,2.333,0,0,0,.619.7,1.772,1.772,0,0,0-.968,1.6m1.429-3.815a1.082,1.082,0,0,1,.777-.28,1.064,1.064,0,0,1,.772.286.96.96,0,0,1,.306.73.972.972,0,0,1-.313.719,1.052,1.052,0,0,1-.757.3,1.08,1.08,0,0,1-.768-.3.968.968,0,0,1-.32-.726.953.953,0,0,1,.3-.728m-.113,3a1.205,1.205,0,0,1,.848-.3,1.272,1.272,0,0,1,.868.293.975.975,0,0,1,.333.763v.1a.861.861,0,0,1-.331.708,1.254,1.254,0,0,1-.839.271,1.292,1.292,0,0,1-.877-.293,1,1,0,0,1-.331-.772.98.98,0,0,1,.328-.77" transform="translate(24.986 14.071)" fill="#fff"/>
      <path id="Path_1373" data-name="Path 1373" d="M25.194,15.546a2.031,2.031,0,0,0,1.09-.286,3.742,3.742,0,0,1-.757,1.394A5.593,5.593,0,0,1,24.2,17.812l.6.708a5.834,5.834,0,0,0,1.973-1.988,4.841,4.841,0,0,0,.768-2.508,2.64,2.64,0,0,0-.613-1.791,2.024,2.024,0,0,0-1.58-.692,1.98,1.98,0,0,0-1.456.588,1.956,1.956,0,0,0-.59,1.44,1.933,1.933,0,0,0,.555,1.394,1.771,1.771,0,0,0,1.336.584m-.621-2.787a1.05,1.05,0,0,1,.786-.32,1.077,1.077,0,0,1,.85.375,1.412,1.412,0,0,1,.328.963,4.7,4.7,0,0,1-.064.508,1.833,1.833,0,0,1-1.065.362,1.121,1.121,0,0,1-.806-.324,1.03,1.03,0,0,1-.333-.763,1.079,1.079,0,0,1,.3-.8" transform="translate(28.413 14.071)" fill="#fff"/>
      <path id="Path_1374" data-name="Path 1374" d="M26.6,18.106l.874.366,3.087-6.893H26.148v.932H29.1Z" transform="translate(31.882 14.118)" fill="#fff"/>
    </g>
  </g>
</svg>
