<svg xmlns="http://www.w3.org/2000/svg" width="216.484" height="74.267" viewBox="0 0 216.484 74.267">
  <g id="Rohl_Colour" data-name="Rohl Colour" transform="translate(-42.572 -88.259)">
    <g id="Group_3154" data-name="Group 3154" transform="translate(42.572 88.259)">
      <path id="Path_1135" data-name="Path 1135" d="M278.126,125.531a3.968,3.968,0,0,1,.042.555c0,4.367-2.7,6.6-6.405,6.6-6.937,0-9.683-5.942-10.053-12.341-.185-3.217-.436-7.894-.436-7.894-.273-3.192-1.233-5.929-4.249-6.136a9.081,9.081,0,0,0,6.013-8.437c0-4.758-3.977-9.617-13.1-9.617-10.053,0-14.647,6.993-14.647,13.228,0,5.022,2.96,9.552,8.416,9.552a8.227,8.227,0,0,0,4.113-1.032.137.137,0,0,0,.022-.084.415.415,0,0,0-.146-.273,9.078,9.078,0,0,1-3.526.635c-5.21,0-7.862-4.1-7.862-8.731,0-5.941,4.41-12.769,13.413-12.769,7.955,0,11.163,4.694,11.163,9.255,0,3.973-2.467,7.879-6.445,8.4l.155-2.4c.153-2.528.093-5.088,1.263-7.417a5.332,5.332,0,0,1,1.177-1.625c-.01-.14-.089-.222-.2-.222-.062,0-.132.043-.248.131-2.66,2.032-3.792,4.979-4.176,9.4-.217,2.33-.277,5.054-.463,8.271-.369,6.4-3.115,12.342-10.052,12.342-3.7,0-6.385-2.233-6.385-6.6,0-.159.011-.438.014-.472a.435.435,0,0,0-.136-.03c-.251,0-.273.283-.284.41-.007.077-.024.305-.024.453,0,4.267,2.837,6.695,6.969,6.695,6.66,0,10.759-5.087,11.87-12.307a52.089,52.089,0,0,0,.523-6.139,8.854,8.854,0,0,0,1.389-.264c2.807.034,3.39,2.955,3.39,6.172,0,.228.216,6.087.525,7.992,1.109,7.22,5.21,12.307,11.87,12.307,4.219,0,6.894-2.428,6.894-6.7,0-.178-.012-.357-.022-.536-.008-.143-.054-.42-.247-.42a.193.193,0,0,0-.109.04" transform="translate(-156.524 -88.259)" fill="#fff"/>
      <path id="Path_1136" data-name="Path 1136" d="M338.192,118.235c-.012-.129-.032-.411-.284-.411a.52.52,0,0,0-.135.029c0,.034.013.315.013.473,0,4.365-2.686,6.6-6.384,6.6-6.938,0-9.683-5.942-10.053-12.343-.185-3.216-.246-5.941-.461-8.271-.386-4.415-1.518-7.364-4.178-9.394-.117-.089-.187-.131-.249-.131-.115,0-.195.081-.205.221a5.316,5.316,0,0,1,1.178,1.624c1.171,2.329,1.111,4.89,1.265,7.418l.154,2.394c-3.976-.524-6.445-4.429-6.445-8.4,0-4.562,3.208-9.256,11.162-9.256,9,0,13.412,6.827,13.412,12.769,0,4.627-2.651,8.731-7.861,8.731a9.081,9.081,0,0,1-3.527-.634.423.423,0,0,0-.146.273.125.125,0,0,0,.024.084,8.225,8.225,0,0,0,4.112,1.031c5.456,0,8.416-4.529,8.416-9.551,0-6.236-4.595-13.227-14.646-13.227-9.128,0-13.1,4.859-13.1,9.616a9.08,9.08,0,0,0,6.013,8.436c-3.016.207-3.976,2.946-4.248,6.137,0,0-.252,4.677-.437,7.892a16.714,16.714,0,0,1-2.587,8.6,9.552,9.552,0,0,0,.695.762,16.737,16.737,0,0,0,3.865-8.873c.308-1.9.524-7.766.524-7.993,0-3.217.584-6.138,3.39-6.172a8.783,8.783,0,0,0,1.388.264,52.424,52.424,0,0,0,.523,6.137c1.112,7.222,5.211,12.308,11.872,12.308,4.131,0,6.968-2.427,6.968-6.7,0-.147-.017-.374-.024-.45" transform="translate(-200.28 -88.26)" fill="#fff"/>
      <path id="Path_1137" data-name="Path 1137" d="M286.723,184.762a8.85,8.85,0,0,1-5.8,1.935c-3.7,0-6.4-2.232-6.4-6.6a4.109,4.109,0,0,1,.041-.554.188.188,0,0,0-.106-.04c-.193,0-.24.277-.247.42-.011.178-.022.357-.022.536,0,4.268,2.673,6.7,6.894,6.7a10.662,10.662,0,0,0,6.224-1.873c-.2-.167-.389-.34-.575-.521" transform="translate(-179.674 -142.272)" fill="#fff"/>
      <path id="Path_1138" data-name="Path 1138" d="M52.365,250.339v-6.232H44.7v6.232H43.009V237.857l-.437-.741H44.7v5.718h7.664v-4.977l-.456-.741h2.148v13.223Z" transform="translate(-42.572 -176.376)" fill="#fff"/>
      <path id="Path_1139" data-name="Path 1139" d="M152.62,248.894a12.086,12.086,0,0,1-2.223,1.183,8.527,8.527,0,0,1-2.39.528,5.114,5.114,0,0,1-3.982-1.255,4.468,4.468,0,0,1-.988-1.425,4.371,4.371,0,0,1-.361-1.786v-8.281l-.437-.741h2.128v8.547a3.6,3.6,0,0,0,.286,1.426,3.748,3.748,0,0,0,1.335,1.631,4.114,4.114,0,0,0,2.52.617,5.729,5.729,0,0,0,3.087-1.032V237.858l-.419-.741h2.148V248.4q-.341.264-.7.493" transform="translate(-101.57 -176.376)" fill="#fff"/>
    </g>
    <g id="Group_3155" data-name="Group 3155" transform="translate(61.68 148.694)">
      <path id="Path_1140" data-name="Path 1140" d="M197.219,245.905a3.833,3.833,0,0,1-.5,1.93,3.658,3.658,0,0,1-1.415,1.4l-.76.437a4.086,4.086,0,0,1-1,.4,4.375,4.375,0,0,1-1.074.133,6.49,6.49,0,0,1-2.005-.315,5.441,5.441,0,0,1-1.777-.958l.57-1.52a7.191,7.191,0,0,0,1.806,1.13,5.218,5.218,0,0,0,2.09.408,3.707,3.707,0,0,0,.608-.056,1.423,1.423,0,0,0,.57-.211,1.57,1.57,0,0,0,.494-.408,2.568,2.568,0,0,0,.351-.57,3.383,3.383,0,0,0,.22-.647,2.893,2.893,0,0,0,.076-.636,1.642,1.642,0,0,0-.495-1.328,3.621,3.621,0,0,0-1.236-.913,9.958,9.958,0,0,0-1.6-.57,8.021,8.021,0,0,1-1.6-.607,3.607,3.607,0,0,1-1.235-1.027,2.093,2.093,0,0,1-.494-1.537,3.561,3.561,0,0,1,1.806-3.117l.76-.437a3.692,3.692,0,0,1,1.9-.514,5.693,5.693,0,0,1,1.862.305,5.943,5.943,0,0,1,1.655.873l-.589,1.54a6.225,6.225,0,0,0-1.663-1.055,4.815,4.815,0,0,0-1.93-.408,2.582,2.582,0,0,0-.533.066,1.924,1.924,0,0,0-.512.182,1.253,1.253,0,0,0-.182.16c-.082.082-.136.137-.16.162a2.442,2.442,0,0,0-.686,1.711,1.425,1.425,0,0,0,.286.956,2.49,2.49,0,0,0,.759.809,4.264,4.264,0,0,0,1.074.521q.6.2,1.216.4t1.217.437a3.919,3.919,0,0,1,1.074.637,2.9,2.9,0,0,1,.76,1.008,2.281,2.281,0,0,1,.287,1.232" transform="translate(-148.173 -236.369)" fill="#fff"/>
      <path id="Path_1141" data-name="Path 1141" d="M238.746,250.339h-8.195V237.857l-.439-.741h9.109l-.476,1.272h-6.5v4.445h6.98l-.476,1.273h-6.5v4.958h6.98Z" transform="translate(-172.696 -236.811)" fill="#fff"/>
      <path id="Path_1142" data-name="Path 1142" d="M308.421,243.378a6.6,6.6,0,0,1-3.4,5.434c-.141.077-.27.15-.391.219s-.251.143-.389.22a8.345,8.345,0,0,1-1.711.7,6.792,6.792,0,0,1-1.843.247,7.1,7.1,0,0,1-5-2.024,6.961,6.961,0,0,1-1.5-2.225,6.063,6.063,0,0,1,.381-5.619,7.386,7.386,0,0,1,2.547-2.558l.369-.218c.121-.069.244-.143.371-.219a7.182,7.182,0,0,1,6.338-.428,6.946,6.946,0,0,1,2.233,1.493,7.065,7.065,0,0,1,1.5,2.233,6.131,6.131,0,0,1,.488,2.743m-1.743.439a5.41,5.41,0,0,0-.409-2.392A6.221,6.221,0,0,0,305,239.467a6.073,6.073,0,0,0-1.918-1.331,5.812,5.812,0,0,0-2.386-.494,7.473,7.473,0,0,0-1.369.123,3.634,3.634,0,0,0-1.273.5,4.723,4.723,0,0,0-1.158.97,5.873,5.873,0,0,0-.827,1.234,6.2,6.2,0,0,0-.5,1.417,5.83,5.83,0,0,0,1.578,5.241,6,6,0,0,0,1.918,1.329,5.9,5.9,0,0,0,2.4.485,7.334,7.334,0,0,0,1.36-.123,3.642,3.642,0,0,0,1.264-.5,4.943,4.943,0,0,0,1.141-.968,6.158,6.158,0,0,0,.834-1.245,5.77,5.77,0,0,0,.627-2.288" transform="translate(-210.323 -236.368)" fill="#fff"/>
      <path id="Path_1143" data-name="Path 1143" d="M465.227,243.378a6.6,6.6,0,0,1-3.4,5.434c-.14.077-.268.15-.389.219s-.251.143-.389.22a8.345,8.345,0,0,1-1.711.7,6.788,6.788,0,0,1-1.843.247,7.108,7.108,0,0,1-5-2.024,6.958,6.958,0,0,1-1.5-2.225,6.056,6.056,0,0,1,.38-5.619,7.387,7.387,0,0,1,2.547-2.558c.127-.075.251-.148.371-.218s.243-.143.37-.219a7.181,7.181,0,0,1,6.338-.428,6.947,6.947,0,0,1,2.233,1.493,7.071,7.071,0,0,1,1.5,2.233,6.168,6.168,0,0,1,.489,2.743m-1.744.439a5.426,5.426,0,0,0-.408-2.392,6.222,6.222,0,0,0-1.274-1.957,6.055,6.055,0,0,0-1.919-1.331,5.8,5.8,0,0,0-2.384-.494,7.474,7.474,0,0,0-1.369.123,3.622,3.622,0,0,0-1.273.5,4.758,4.758,0,0,0-1.16.97,5.918,5.918,0,0,0-.826,1.234,6.2,6.2,0,0,0-.5,1.417,5.833,5.833,0,0,0,1.578,5.241,5.986,5.986,0,0,0,1.918,1.329,5.9,5.9,0,0,0,2.395.485,7.336,7.336,0,0,0,1.36-.123,3.637,3.637,0,0,0,1.263-.5,4.928,4.928,0,0,0,1.141-.968,6.134,6.134,0,0,0,.834-1.245,5.784,5.784,0,0,0,.628-2.288" transform="translate(-303.144 -236.368)" fill="#fff"/>
      <path id="Path_1144" data-name="Path 1144" d="M104.147,243.378a6.6,6.6,0,0,1-3.4,5.434c-.139.077-.27.15-.39.219s-.25.143-.389.22a8.324,8.324,0,0,1-1.711.7,6.79,6.79,0,0,1-1.844.247,7.1,7.1,0,0,1-5-2.024,6.931,6.931,0,0,1-1.5-2.225,6.059,6.059,0,0,1,.379-5.619,7.407,7.407,0,0,1,2.547-2.558c.127-.075.25-.148.371-.218s.243-.143.371-.219a7.181,7.181,0,0,1,6.338-.428,6.946,6.946,0,0,1,2.233,1.493,7.07,7.07,0,0,1,1.5,2.233,6.149,6.149,0,0,1,.489,2.743m-1.744.439a5.432,5.432,0,0,0-.408-2.392,6.207,6.207,0,0,0-1.274-1.957,6.071,6.071,0,0,0-1.918-1.331,5.811,5.811,0,0,0-2.386-.494,7.471,7.471,0,0,0-1.369.123,3.628,3.628,0,0,0-1.273.5,4.751,4.751,0,0,0-1.159.97,5.907,5.907,0,0,0-.827,1.234,6.241,6.241,0,0,0-.5,1.417,5.83,5.83,0,0,0,1.578,5.241,5.993,5.993,0,0,0,1.919,1.329,5.9,5.9,0,0,0,2.4.485,7.314,7.314,0,0,0,1.359-.123,3.631,3.631,0,0,0,1.263-.5,4.877,4.877,0,0,0,1.141-.968,6.223,6.223,0,0,0,.837-1.245,5.814,5.814,0,0,0,.625-2.288" transform="translate(-89.401 -236.368)" fill="#fff"/>
      <path id="Path_1145" data-name="Path 1145" d="M356.488,244.619h-6.181v5.718h-1.691V237.856l-.437-.742h8.785l-.476,1.275h-6.181v4.977h6.657Z" transform="translate(-242.586 -236.81)" fill="#fff"/>
      <path id="Path_1146" data-name="Path 1146" d="M418.641,250.338l-4.534-5.3h-1.951v5.3h-1.693V237.856l-.437-.741h5.632a4.1,4.1,0,0,1,1.549.3,3.842,3.842,0,0,1,1.273.828,3.965,3.965,0,0,1,.856,1.246,3.537,3.537,0,0,1,.111,2.591,3.817,3.817,0,0,1-2.292,2.309,3.773,3.773,0,0,1-1.23.317l4.866,5.637h-2.149Zm-.723-8.861a2.98,2.98,0,0,0-.246-1.211,3.22,3.22,0,0,0-.67-.982,3.034,3.034,0,0,0-.991-.658,3.11,3.11,0,0,0-1.2-.238h-2.654v5.432h3.4a3.457,3.457,0,0,0,.59-.056,2.454,2.454,0,0,0,1.775-2.287" transform="translate(-279.197 -236.81)" fill="#fff"/>
      <path id="Path_1147" data-name="Path 1147" d="M512.317,250.339v-6.232h-7.664v6.232h-1.691V237.857l-.437-.741h2.128v5.718h7.664v-4.977l-.456-.741h2.149v13.223Z" transform="translate(-333.951 -236.811)" fill="#fff"/>
      <path id="Path_1148" data-name="Path 1148" d="M560.553,250.339h-7.416V237.857l-.437-.741h2.128v11.968h6.2Z" transform="translate(-363.653 -236.811)" fill="#fff"/>
    </g>
  </g>
</svg>
