<svg xmlns="http://www.w3.org/2000/svg" width="100.039" height="34.32" viewBox="0 0 100.039 34.32">
  <g id="house-of-rohl-logo" transform="translate(-42.572 -88.259)">
    <g id="Group_3154" data-name="Group 3154" transform="translate(42.572 88.259)">
      <path id="Path_1135" data-name="Path 1135" d="M254.968,105.482a1.839,1.839,0,0,1,.019.256,2.777,2.777,0,0,1-2.96,3.049c-3.206,0-4.475-2.746-4.645-5.7-.085-1.486-.2-3.648-.2-3.648-.126-1.475-.57-2.74-1.963-2.836A4.2,4.2,0,0,0,248,92.7c0-2.2-1.838-4.444-6.055-4.444-4.645,0-6.769,3.232-6.769,6.113,0,2.321,1.368,4.414,3.889,4.414a3.8,3.8,0,0,0,1.9-.477.063.063,0,0,0,.01-.039.192.192,0,0,0-.067-.126,4.2,4.2,0,0,1-1.63.293c-2.408,0-3.633-1.9-3.633-4.035a5.9,5.9,0,0,1,6.2-5.9c3.676,0,5.158,2.169,5.158,4.277a3.742,3.742,0,0,1-2.978,3.883l.072-1.107a8.51,8.51,0,0,1,.584-3.427,2.464,2.464,0,0,1,.544-.751c0-.065-.041-.1-.094-.1-.028,0-.061.02-.115.06-1.229.939-1.752,2.3-1.93,4.342-.1,1.076-.128,2.336-.214,3.822-.171,2.957-1.439,5.7-4.645,5.7a2.771,2.771,0,0,1-2.95-3.049c0-.073.005-.2.007-.218a.2.2,0,0,0-.063-.014c-.116,0-.126.131-.131.189,0,.036-.011.141-.011.209a2.937,2.937,0,0,0,3.221,3.094c3.078,0,4.972-2.351,5.485-5.687a24.075,24.075,0,0,0,.242-2.837,4.09,4.09,0,0,0,.642-.122c1.3.016,1.567,1.366,1.567,2.852,0,.105.1,2.813.243,3.693.512,3.337,2.408,5.687,5.485,5.687a2.891,2.891,0,0,0,3.186-3.094c0-.082-.006-.165-.01-.248,0-.066-.025-.194-.114-.194a.089.089,0,0,0-.05.018" transform="translate(-198.775 -88.259)" fill="#fff"/>
      <path id="Path_1136" data-name="Path 1136" d="M322.484,102.112c-.006-.06-.015-.19-.131-.19a.24.24,0,0,0-.063.013c0,.016.006.145.006.219a2.771,2.771,0,0,1-2.95,3.049c-3.206,0-4.475-2.746-4.645-5.7-.085-1.486-.114-2.745-.213-3.822-.179-2.04-.7-3.4-1.93-4.341-.054-.041-.086-.06-.115-.06-.053,0-.09.038-.095.1a2.456,2.456,0,0,1,.544.751,8.513,8.513,0,0,1,.585,3.428l.071,1.106a3.742,3.742,0,0,1-2.978-3.883c0-2.108,1.482-4.277,5.158-4.277a5.9,5.9,0,0,1,6.2,5.9c0,2.138-1.225,4.035-3.633,4.035a4.2,4.2,0,0,1-1.63-.293.2.2,0,0,0-.068.126.058.058,0,0,0,.011.039,3.8,3.8,0,0,0,1.9.476c2.521,0,3.889-2.093,3.889-4.414,0-2.882-2.123-6.112-6.768-6.112-4.218,0-6.056,2.245-6.056,4.444a4.2,4.2,0,0,0,2.779,3.9c-1.394.1-1.837,1.361-1.963,2.836,0,0-.116,2.161-.2,3.647a7.724,7.724,0,0,1-1.2,3.976,4.425,4.425,0,0,0,.321.352,7.734,7.734,0,0,0,1.786-4.1c.143-.88.242-3.589.242-3.694,0-1.487.27-2.836,1.567-2.852a4.057,4.057,0,0,0,.641.122,24.224,24.224,0,0,0,.242,2.836c.514,3.338,2.408,5.688,5.486,5.688a2.937,2.937,0,0,0,3.22-3.094c0-.068-.008-.173-.011-.208" transform="translate(-258.754 -88.261)" fill="#fff"/>
      <path id="Path_1137" data-name="Path 1137" d="M279.976,181.934a4.09,4.09,0,0,1-2.682.894,2.777,2.777,0,0,1-2.959-3.049,1.9,1.9,0,0,1,.019-.256.087.087,0,0,0-.049-.018c-.089,0-.111.128-.114.194-.005.082-.01.165-.01.248a2.89,2.89,0,0,0,3.186,3.094,4.927,4.927,0,0,0,2.876-.865c-.091-.077-.18-.157-.266-.241" transform="translate(-230.508 -162.299)" fill="#fff"/>
      <path id="Path_1138" data-name="Path 1138" d="M47.1,243.226v-2.88H43.556v2.88h-.782v-5.768l-.2-.342h.984v2.642H47.1v-2.3l-.211-.342h.993v6.11Z" transform="translate(-42.572 -209.047)" fill="#fff"/>
      <path id="Path_1139" data-name="Path 1139" d="M147.036,242.559a5.585,5.585,0,0,1-1.027.547,3.941,3.941,0,0,1-1.1.244,2.363,2.363,0,0,1-1.84-.58,2.065,2.065,0,0,1-.457-.659,2.02,2.02,0,0,1-.167-.825v-3.827l-.2-.343h.983v3.95a1.665,1.665,0,0,0,.132.659,1.732,1.732,0,0,0,.617.754,1.9,1.9,0,0,0,1.164.285,2.647,2.647,0,0,0,1.426-.477v-4.828l-.194-.343h.992v5.215q-.158.122-.325.228" transform="translate(-123.446 -209.048)" fill="#fff"/>
    </g>
    <g id="Group_3155" data-name="Group 3155" transform="translate(51.402 116.186)">
      <path id="Path_1140" data-name="Path 1140" d="M192.629,240.776a1.771,1.771,0,0,1-.233.892,1.69,1.69,0,0,1-.654.645l-.351.2a1.889,1.889,0,0,1-.461.185,2.022,2.022,0,0,1-.5.061,3,3,0,0,1-.927-.145,2.514,2.514,0,0,1-.821-.443l.263-.7a3.323,3.323,0,0,0,.835.522,2.411,2.411,0,0,0,.966.189,1.713,1.713,0,0,0,.281-.026.658.658,0,0,0,.263-.1.726.726,0,0,0,.228-.188,1.186,1.186,0,0,0,.162-.263,1.564,1.564,0,0,0,.1-.3,1.337,1.337,0,0,0,.035-.294.759.759,0,0,0-.229-.614,1.673,1.673,0,0,0-.571-.422,4.6,4.6,0,0,0-.737-.263,3.707,3.707,0,0,1-.738-.28,1.667,1.667,0,0,1-.571-.475.967.967,0,0,1-.228-.71,1.646,1.646,0,0,1,.834-1.44l.351-.2a1.706,1.706,0,0,1,.878-.237,2.63,2.63,0,0,1,.86.141,2.746,2.746,0,0,1,.765.4l-.272.711a2.876,2.876,0,0,0-.768-.487,2.225,2.225,0,0,0-.892-.188,1.192,1.192,0,0,0-.246.03.889.889,0,0,0-.236.084.579.579,0,0,0-.084.074l-.074.075a1.129,1.129,0,0,0-.317.791.658.658,0,0,0,.132.442,1.15,1.15,0,0,0,.351.374,1.97,1.97,0,0,0,.5.241q.277.093.562.185t.562.2a1.81,1.81,0,0,1,.5.294,1.341,1.341,0,0,1,.351.466,1.054,1.054,0,0,1,.133.569" transform="translate(-169.964 -236.369)" fill="#fff"/>
      <path id="Path_1141" data-name="Path 1141" d="M234.1,243.226h-3.787v-5.768l-.2-.342h4.209l-.22.588H231.1v2.054h3.226l-.22.588H231.1v2.291h3.226Z" transform="translate(-203.58 -236.975)" fill="#fff"/>
      <path id="Path_1142" data-name="Path 1142" d="M300.49,239.607a3.049,3.049,0,0,1-1.569,2.511l-.18.1c-.055.032-.116.066-.18.1a3.858,3.858,0,0,1-.791.325,3.14,3.14,0,0,1-.852.114,3.281,3.281,0,0,1-2.31-.935,3.215,3.215,0,0,1-.694-1.028,2.8,2.8,0,0,1,.176-2.6,3.413,3.413,0,0,1,1.177-1.182l.171-.1c.056-.032.113-.066.171-.1a3.319,3.319,0,0,1,2.929-.2,3.21,3.21,0,0,1,1.032.69,3.265,3.265,0,0,1,.694,1.032,2.833,2.833,0,0,1,.225,1.268m-.806.2a2.5,2.5,0,0,0-.189-1.105,2.876,2.876,0,0,0-.588-.9,2.807,2.807,0,0,0-.886-.615,2.685,2.685,0,0,0-1.1-.228,3.454,3.454,0,0,0-.633.057,1.679,1.679,0,0,0-.588.233,2.181,2.181,0,0,0-.535.448,2.716,2.716,0,0,0-.382.57,2.865,2.865,0,0,0-.233.655,2.694,2.694,0,0,0,.729,2.422,2.771,2.771,0,0,0,.886.614,2.726,2.726,0,0,0,1.107.224,3.39,3.39,0,0,0,.628-.057,1.683,1.683,0,0,0,.584-.233,2.284,2.284,0,0,0,.527-.447,2.847,2.847,0,0,0,.385-.575,2.666,2.666,0,0,0,.29-1.057" transform="translate(-255.158 -236.368)" fill="#fff"/>
      <path id="Path_1143" data-name="Path 1143" d="M457.295,239.607a3.05,3.05,0,0,1-1.57,2.511l-.18.1-.18.1a3.857,3.857,0,0,1-.791.325,3.138,3.138,0,0,1-.851.114,3.284,3.284,0,0,1-2.31-.935,3.215,3.215,0,0,1-.694-1.028,2.8,2.8,0,0,1,.176-2.6,3.413,3.413,0,0,1,1.177-1.182l.172-.1.171-.1a3.318,3.318,0,0,1,2.929-.2,3.211,3.211,0,0,1,1.032.69,3.268,3.268,0,0,1,.694,1.032,2.849,2.849,0,0,1,.226,1.268m-.806.2a2.507,2.507,0,0,0-.189-1.105,2.875,2.875,0,0,0-.589-.9,2.8,2.8,0,0,0-.887-.615,2.681,2.681,0,0,0-1.1-.228,3.454,3.454,0,0,0-.633.057,1.673,1.673,0,0,0-.588.233,2.2,2.2,0,0,0-.536.448,2.733,2.733,0,0,0-.382.57,2.864,2.864,0,0,0-.233.655,2.7,2.7,0,0,0,.729,2.422,2.766,2.766,0,0,0,.886.614,2.726,2.726,0,0,0,1.107.224,3.392,3.392,0,0,0,.629-.057,1.681,1.681,0,0,0,.584-.233,2.277,2.277,0,0,0,.527-.447,2.833,2.833,0,0,0,.385-.575,2.674,2.674,0,0,0,.29-1.057" transform="translate(-382.395 -236.368)" fill="#fff"/>
      <path id="Path_1144" data-name="Path 1144" d="M96.215,239.607a3.05,3.05,0,0,1-1.57,2.511l-.18.1c-.055.032-.116.066-.18.1a3.849,3.849,0,0,1-.79.325,3.139,3.139,0,0,1-.852.114,3.283,3.283,0,0,1-2.31-.935,3.2,3.2,0,0,1-.694-1.028,2.8,2.8,0,0,1,.175-2.6,3.423,3.423,0,0,1,1.177-1.182l.171-.1.171-.1a3.318,3.318,0,0,1,2.929-.2,3.211,3.211,0,0,1,1.032.69,3.267,3.267,0,0,1,.694,1.032,2.842,2.842,0,0,1,.226,1.268m-.806.2a2.51,2.51,0,0,0-.188-1.105,2.868,2.868,0,0,0-.589-.9,2.806,2.806,0,0,0-.886-.615,2.685,2.685,0,0,0-1.1-.228,3.453,3.453,0,0,0-.633.057,1.676,1.676,0,0,0-.588.233,2.194,2.194,0,0,0-.536.448,2.73,2.73,0,0,0-.382.57,2.884,2.884,0,0,0-.233.655A2.694,2.694,0,0,0,91,241.342a2.769,2.769,0,0,0,.887.614,2.728,2.728,0,0,0,1.107.224,3.381,3.381,0,0,0,.628-.057,1.678,1.678,0,0,0,.584-.233,2.254,2.254,0,0,0,.527-.447,2.876,2.876,0,0,0,.387-.575,2.687,2.687,0,0,0,.289-1.057" transform="translate(-89.401 -236.368)" fill="#fff"/>
      <path id="Path_1145" data-name="Path 1145" d="M352.019,240.582h-2.856v2.643h-.782v-5.768l-.2-.343h4.06l-.22.589h-2.856V240h3.076Z" transform="translate(-299.384 -236.973)" fill="#fff"/>
      <path id="Path_1146" data-name="Path 1146" d="M414.007,243.225l-2.1-2.449h-.9v2.449h-.782v-5.768l-.2-.343h2.6a1.9,1.9,0,0,1,.716.136,1.776,1.776,0,0,1,.588.383,1.833,1.833,0,0,1,.4.576,1.634,1.634,0,0,1,.051,1.2,1.764,1.764,0,0,1-1.059,1.067,1.743,1.743,0,0,1-.569.147l2.248,2.6h-.993Zm-.334-4.095a1.378,1.378,0,0,0-.114-.56,1.488,1.488,0,0,0-.309-.454,1.4,1.4,0,0,0-.458-.3,1.437,1.437,0,0,0-.555-.11H411.01v2.51h1.57a1.6,1.6,0,0,0,.272-.026,1.134,1.134,0,0,0,.82-1.057" transform="translate(-349.569 -236.974)" fill="#fff"/>
      <path id="Path_1147" data-name="Path 1147" d="M507.049,243.226v-2.88h-3.542v2.88h-.781v-5.768l-.2-.342h.984v2.642h3.542v-2.3l-.211-.342h.993v6.11Z" transform="translate(-424.625 -236.975)" fill="#fff"/>
      <path id="Path_1148" data-name="Path 1148" d="M556.329,243.226H552.9v-5.768l-.2-.342h.984v5.53h2.865Z" transform="translate(-465.34 -236.975)" fill="#fff"/>
    </g>
  </g>
</svg>
