<svg xmlns="http://www.w3.org/2000/svg" xmlns:xlink="http://www.w3.org/1999/xlink" width="177.949" height="37.274" viewBox="0 0 177.949 37.274">
  <defs>
    <clipPath id="clip-path3">
      <rect id="Rectangle_1133" data-name="Rectangle 1133" width="177.949" height="37.274" fill="#fff"/>
    </clipPath>
  </defs>
  <g id="Group_3406" data-name="Group 3406" transform="translate(0 0)">
    <g id="Group_3170" data-name="Group 3170" transform="translate(0 0)" clip-path="url(#clip-path3)">
      <path id="Path_1254" data-name="Path 1254" d="M1.032,2.962C1.032,2.068.753,1.88,0,1.88V1.317H22.63c5.222,0,10.02,3.293,10.02,9.316,0,3.058-1.787,5.692-5.173,6.961v.094c4.14,1.367,6.4,4,6.4,8.434,0,6.4-5.083,9.458-10.493,9.458H0v-.565c.753,0,1.032-.188,1.032-1.079Zm4.8,12.751H21.642c3.717,0,6.21-2.448,6.21-5.5,0-2.683-2.022-4.752-6.447-4.752H5.833V15.712m0,15.725H22.348c3.9,0,6.727-1.927,6.727-5.694,0-4.428-3.951-5.89-8.845-5.89H5.833Z" transform="translate(0 0.19)" fill="#fff"/>
      <path id="Path_1255" data-name="Path 1255" d="M68.989,35.58v-.565c.848,0,1.13-.188,1.13-1.079V2.962c0-.894-.282-1.082-1.13-1.082V1.317h7.058V1.88c-.846,0-1.131.188-1.131,1.082V33.935c0,.892.285,1.079,1.131,1.079v.565Z" transform="translate(9.968 0.19)" fill="#fff"/>
      <path id="Path_1256" data-name="Path 1256" d="M137.51.9c10.4,0,19.479,6.588,19.479,17.6s-9.082,17.606-19.479,17.606S118.031,29.521,118.031,18.5,127.11.9,137.51.9m0,31.253c7.809,0,14.678-4.609,14.678-13.654S145.319,4.856,137.51,4.856,122.83,9.468,122.83,18.5s6.869,13.654,14.68,13.654" transform="translate(17.055 0.13)" fill="#fff"/>
      <path id="Path_1257" data-name="Path 1257" d="M113.155,16.421h-9.436l11.7-14.914H85.683c-.848,0-1.225-.188-1.412-1.507H83.7V7.153h.565c.188-1.318.564-1.506,1.412-1.506h20.888L98.156,16.421H85.2c-.807,0-.975-.244-.975-.973h-.512v6.078h.512c0-.731.168-.973.975-.973h9.728L83.048,35.77h29.546c.847,0,1.222.188,1.41,1.505h.563V30.122H114c-.188,1.318-.563,1.506-1.41,1.506H91.8l8.682-11.074h12.676c.8,0,.976.241.976.973h.509V15.448h-.509c0,.729-.172.973-.976.973" transform="translate(12 0)" fill="#fff"/>
      <path id="Path_1258" data-name="Path 1258" d="M63.123,34.027,54.654,20.279c5.505-.047,9.222-3.623,9.222-9.269,0-6.025-4.611-9.693-11.528-9.693H36.706v4.14H52.348c4.517,0,6.728,2.495,6.728,5.269,0,4.517-2.823,5.93-5.785,5.93H36.706V20.8H49.761l6.822,11.114c.847,1.411,1.128,1.787,1.128,2.305,0,.565-.328.753-1.6.8v.565H65v-.565c-1.083-.047-1.41-.235-1.882-.988" transform="translate(5.304 0.19)" fill="#fff"/>
      <path id="Path_1259" data-name="Path 1259" d="M153.919,1.564a2.12,2.12,0,0,1,2.092,2.14,2.094,2.094,0,1,1-4.187,0,2.12,2.12,0,0,1,2.094-2.14M152.181,3.7a1.741,1.741,0,1,0,3.476,0,1.742,1.742,0,1,0-3.476,0m.743-1.167h1.07c.371,0,.726.166.726.561a.71.71,0,0,1-.435.647l.308.485a1.817,1.817,0,0,0,.476.536v.058H154.7c-.213,0-.356-.4-.783-1.017h-.32v.675c0,.119.032.155.3.171v.172h-.972V4.652c.269-.016.3-.052.3-.171V2.846c0-.121-.03-.155-.3-.173Zm.675,1.1h.286c.274,0,.423-.161.423-.514-.013-.319-.183-.412-.442-.412H153.6Z" transform="translate(21.938 0.226)" fill="#fff"/>
    </g>
  </g>
</svg>
