<svg xmlns="http://www.w3.org/2000/svg" xmlns:xlink="http://www.w3.org/1999/xlink" width="214.645" height="29.38" viewBox="0 0 214.645 29.38">
  <defs>
    <clipPath id="clip-path">
      <rect id="Rectangle_1148" data-name="Rectangle 1148" width="214.645" height="29.38" fill="none"/>
    </clipPath>
  </defs>
  <g id="Group_3408" data-name="Group 3408" transform="translate(0 0)">
    <path id="Path_1266" data-name="Path 1266" d="M68.745,27.93h4.049V19.3H84.5V17.086H72.795V10.8H85.145V8.542h-16.4Z" transform="translate(-15.831 -1.967)" fill="#fff"/>
    <path id="Path_1267" data-name="Path 1267" d="M102.582,8.541H98.554V27.93h16.734V25.676H102.582Z" transform="translate(-22.696 -1.967)" fill="#fff"/>
    <path id="Path_1268" data-name="Path 1268" d="M126.63,27.93h16.533V25.676H130.59V19h12.083V16.775H130.59V10.766h12.573V8.542H126.63Z" transform="translate(-29.161 -1.967)" fill="#fff"/>
    <g id="Group_3209" data-name="Group 3209" transform="translate(0 0)">
      <g id="Group_3208" data-name="Group 3208" clip-path="url(#clip-path)">
        <path id="Path_1269" data-name="Path 1269" d="M169.236,21.344a4.157,4.157,0,0,1-1.5,3.427,7.353,7.353,0,0,1-4.662,1.216,11.8,11.8,0,0,1-2.86-.3,5.022,5.022,0,0,1-1.9-.875,3.239,3.239,0,0,1-1.057-1.439,5.664,5.664,0,0,1-.323-2V8.541H152.97v13.04a6.562,6.562,0,0,0,.544,2.716,5.219,5.219,0,0,0,1.736,2.084,8.882,8.882,0,0,0,3.082,1.342,19.25,19.25,0,0,0,4.606.474,17.417,17.417,0,0,0,4.373-.5,10.066,10.066,0,0,0,3.216-1.41,5.984,5.984,0,0,0,2.672-5.109V8.541h-3.962Z" transform="translate(-35.227 -1.967)" fill="#fff"/>
        <path id="Path_1270" data-name="Path 1270" d="M196.985,19.675a5,5,0,0,0-2.081-.988,11.828,11.828,0,0,0,2.681-.718,7.484,7.484,0,0,0,1.958-1.143,4.547,4.547,0,0,0,1.19-1.469,3.8,3.8,0,0,0,.4-1.713,4.1,4.1,0,0,0-.545-2.084,4.479,4.479,0,0,0-1.714-1.609,10.091,10.091,0,0,0-2.993-1.038,22.2,22.2,0,0,0-4.361-.371h-7.787V27.93h3.961V19.3h1.868a9.413,9.413,0,0,1,1.569.119,5.03,5.03,0,0,1,1.291.393,4.359,4.359,0,0,1,1.1.74,6.8,6.8,0,0,1,1,1.18l4.34,6.2h4.473l-4.607-6.379a11.154,11.154,0,0,0-1.746-1.877m-3.561-2.715a13.448,13.448,0,0,1-2.525.215h-3.2V10.766h3.738a8.908,8.908,0,0,1,4.1.772A2.488,2.488,0,0,1,197,13.866a2.394,2.394,0,0,1-.434,1.418,3.452,3.452,0,0,1-1.223,1.038,6.722,6.722,0,0,1-1.914.638" transform="translate(-42.311 -1.967)" fill="#fff"/>
        <path id="Path_1271" data-name="Path 1271" d="M223.474,8.233a18.949,18.949,0,0,0-5.385.712,12.3,12.3,0,0,0-4.095,2.025,8.923,8.923,0,0,0-2.6,3.2,9.521,9.521,0,0,0-.913,4.213,8.473,8.473,0,0,0,3.3,7.261q3.3,2.457,9.469,2.456a27.416,27.416,0,0,0,7.322-.964V24.64a22.76,22.76,0,0,1-3.294.809,21.637,21.637,0,0,1-3.583.289q-4.428,0-6.72-1.914a6.976,6.976,0,0,1-2.292-5.682,7.773,7.773,0,0,1,.624-3.2,6.5,6.5,0,0,1,1.779-2.375,7.978,7.978,0,0,1,2.815-1.483,12.541,12.541,0,0,1,3.706-.512,20.956,20.956,0,0,1,3.694.3,19.63,19.63,0,0,1,3.271.883v-2.6a22.043,22.043,0,0,0-3.338-.705,28.876,28.876,0,0,0-3.761-.229" transform="translate(-48.47 -1.896)" fill="#fff"/>
        <path id="Path_1272" data-name="Path 1272" d="M260.352,13.92a7.862,7.862,0,0,0-2.059-3.092,9.318,9.318,0,0,0-3.46-1.951,15.736,15.736,0,0,0-4.885-.683,15.952,15.952,0,0,0-4.428.6,10.537,10.537,0,0,0-3.661,1.84,8.768,8.768,0,0,0-2.48,3.137,10.24,10.24,0,0,0-.914,4.481,12.009,12.009,0,0,0,.667,4.131,7.868,7.868,0,0,0,2.037,3.108,9.072,9.072,0,0,0,3.448,1.951,15.9,15.9,0,0,0,4.884.675,16.1,16.1,0,0,0,4.44-.6,10.515,10.515,0,0,0,3.672-1.84,8.888,8.888,0,0,0,2.492-3.137,10.219,10.219,0,0,0,.924-4.511,11.741,11.741,0,0,0-.678-4.109m-3.86,7.255a6.731,6.731,0,0,1-1.3,2.411,6.161,6.161,0,0,1-2.237,1.631,7.9,7.9,0,0,1-3.227.6,8.519,8.519,0,0,1-3.271-.563,5.692,5.692,0,0,1-2.214-1.58,6.424,6.424,0,0,1-1.257-2.433,11.51,11.51,0,0,1-.4-3.138,10.051,10.051,0,0,1,.423-2.944,6.782,6.782,0,0,1,1.291-2.418,6.074,6.074,0,0,1,2.214-1.632,7.851,7.851,0,0,1,3.215-.6,8.664,8.664,0,0,1,3.305.564,5.73,5.73,0,0,1,2.235,1.586,6.3,6.3,0,0,1,1.258,2.442,11.794,11.794,0,0,1,.389,3.122,10.053,10.053,0,0,1-.422,2.952" transform="translate(-54.916 -1.887)" fill="#fff"/>
        <path id="Path_1273" data-name="Path 1273" d="M23.556,32.378l19.3-19.359H4.264Z" transform="translate(-0.982 -2.998)" fill="#fff"/>
        <path id="Path_1274" data-name="Path 1274" d="M45.023,9.4a31.5,31.5,0,0,0-44.9,0,.044.044,0,0,1-.014.015.387.387,0,0,0,0,.546.381.381,0,0,0,.273.113H.547l.1-.1C6.507,5.067,14.534,2.784,22.576,2.784s16.069,2.283,21.93,7.188l.1.1h.16a.382.382,0,0,0,.273-.113.388.388,0,0,0,0-.546.145.145,0,0,1-.016-.015" transform="translate(0 0)" fill="#fff"/>
        <path id="Path_1275" data-name="Path 1275" d="M268.946,10.035h3.3v.708h-1.228v3.331h-.837V10.743h-1.229Z" transform="translate(-61.935 -2.311)" fill="#fff"/>
        <path id="Path_1276" data-name="Path 1276" d="M273.8,10.035h1.229l.744,3.156.694-3.156H277.7v4.039h-.784V10.7l-.753,3.378h-.823l-.751-3.378v3.378H273.8Z" transform="translate(-63.053 -2.311)" fill="#fff"/>
      </g>
    </g>
  </g>
</svg>
