<svg id="Group_3415" data-name="Group 3415" xmlns="http://www.w3.org/2000/svg" xmlns:xlink="http://www.w3.org/1999/xlink" width="163.093" height="50.111" viewBox="0 0 163.093 50.111">
  <defs>
    <clipPath id="clip-path">
      <rect id="Rectangle_1132" data-name="Rectangle 1132" width="163.093" height="50.111" fill="none"/>
    </clipPath>
  </defs>
  <path id="Path_1233" data-name="Path 1233" d="M269.674,76.5h7.211v9.124H284V76.5h7.211v26.146H284V92.832h-7.113v9.811h-7.211V76.5" transform="translate(-190.5 -54.038)" fill="#fffdfd"/>
  <path id="Path_1234" data-name="Path 1234" d="M349.374,76.5h7.211V95.9h7.947v6.745H349.374V76.5" transform="translate(-246.801 -54.038)" fill="#fffdfd"/>
  <path id="Path_1235" data-name="Path 1235" d="M406.016,76.5h14.569v6.009h-7.358v4.022h7.358v6.009h-7.358v4.1h7.358v6.009H406.016V76.5" transform="translate(-286.813 -54.038)" fill="#fffdfd"/>
  <g id="Group_3168" data-name="Group 3168">
    <g id="Group_3167" data-name="Group 3167" clip-path="url(#clip-path)">
      <path id="Path_1236" data-name="Path 1236" d="M461.153,76.5h7.211a24.679,24.679,0,0,1,3.973.368c4.121.879,7.456,5.321,6.377,9.569-.49,2.49-2.306,4.394-4.317,5.858,2.506,3.424,4.956,6.888,7.407,10.35h-7.751c-1.96-2.521-3.826-5.135-5.69-7.706v7.706h-7.211Zm7.211,6.044v5.1c1.184-.053,2.551.2,3.434-.72a2.4,2.4,0,0,0,.049-3.564c-.932-.88-2.26-.75-3.483-.817" transform="translate(-325.762 -54.038)" fill="#fffdfd"/>
      <path id="Path_1237" data-name="Path 1237" d="M201.215,87.431a13.5,13.5,0,1,0-13.5,13.615,13.557,13.557,0,0,0,13.5-13.615m-13.5-6.693c3.336,0,6.042,3,6.042,6.693s-2.706,6.693-6.042,6.693-6.042-3-6.042-6.693,2.706-6.693,6.042-6.693" transform="translate(-123.07 -52.145)" fill="#fffdfd"/>
      <path id="Path_1238" data-name="Path 1238" d="M131.474,76.508c-3.4,4.164-6.865,8.276-10.252,12.449l11.773,13.686h-9.517l-8-9.367v9.367h-7.211V76.5h7.211v7.718l6.834-7.707h9.158" transform="translate(-76.484 -54.038)" fill="#fffdfd"/>
      <path id="Path_1239" data-name="Path 1239" d="M0,.6H10.351V1.7H5.8v16.47H4.611V1.7H0V.6" transform="translate(0 -0.423)" fill="#fffdfd"/>
      <path id="Path_1240" data-name="Path 1240" d="M38.4,18.2V.64h1.186V8.023H50.173V.64H51.36V18.2H50.173V9.127H39.586V18.2H38.4" transform="translate(-27.126 -0.452)" fill="#fffdfd"/>
      <path id="Path_1241" data-name="Path 1241" d="M88.889,18.2V.64h8.388v1.1h-7.2V8.023h7.2v1.1h-7.2V17.1h7.2v1.1Z" transform="translate(-62.792 -0.452)" fill="#fffdfd"/>
      <path id="Path_1242" data-name="Path 1242" d="M140.685,18.169V.608h1.186a16.291,16.291,0,0,1,4.9.39c3.041,1.279,3.434,6.114.637,7.884a4.942,4.942,0,0,1,3.238,2.853,4.8,4.8,0,0,1-3.483,6.247,30.657,30.657,0,0,1-5.289.187Zm1.186-16.483V8.537c1.469-.048,3.035.245,4.407-.3,2.5-.984,2.452-5.129,0-6.162A14.725,14.725,0,0,0,141.871,1.687Zm0,15.4c.967.038,2.054.044,3.107.038a4.917,4.917,0,0,0,3.605-1.162c1.815-1.525,1.422-5.017-.883-5.853-1.864-.64-3.875-.393-5.788-.492-.1,2.486-.041,4.982-.041,7.47" transform="translate(-99.381 -0.42)" fill="#fffdfd"/>
      <path id="Path_1243" data-name="Path 1243" d="M241.938,18.2V.64h1.186V17.1h7.154v1.1h-8.339" transform="translate(-170.907 -0.452)" fill="#fffdfd"/>
      <path id="Path_1244" data-name="Path 1244" d="M274.018,18.2V.64H275.2V.646c2.769,0,5.709-.033,7.938,1.816,4.268,3.248,4.366,10.484.147,13.831-2.235,1.94-5.259,1.954-8.086,1.895V18.2ZM275.2,1.723V17.131c2.685.1,5.794.031,7.791-2.119a7.924,7.924,0,0,0-.441-11.517c-2-1.807-4.861-1.772-7.35-1.772" transform="translate(-193.569 -0.452)" fill="#fffdfd"/>
      <path id="Path_1245" data-name="Path 1245" d="M340.518,18.2V.64H341.7V17.1h7.153v1.1Z" transform="translate(-240.545 -0.452)" fill="#fffdfd"/>
      <path id="Path_1246" data-name="Path 1246" d="M490.022,18.2V.64h1.186v7.9l7.965-7.9h1.682l-8.512,8.442,9.071,9.12h-1.677l-8.528-8.578V18.2h-1.186" transform="translate(-346.156 -0.452)" fill="#fffdfd"/>
      <path id="Path_1247" data-name="Path 1247" d="M66.667,93.725V76.163h7.015v1.1H67.853v6.3h5.708v1.1H67.853v9.051Z" transform="translate(-47.094 -53.802)" fill="#fffdfd"/>
      <path id="Path_1248" data-name="Path 1248" d="M10.538,76.63a7.891,7.891,0,1,1-7.891,7.891,7.892,7.892,0,0,1,7.891-7.891m8.969,7.891a8.969,8.969,0,1,0-8.969,8.969,8.97,8.97,0,0,0,8.969-8.969" transform="translate(-1.108 -53.371)" fill="#fffdfd"/>
      <path id="Path_1249" data-name="Path 1249" d="M185.842,1.077a7.891,7.891,0,1,1-7.891,7.892,7.893,7.893,0,0,1,7.891-7.892m8.969,7.892a8.969,8.969,0,1,0-8.969,8.969,8.97,8.97,0,0,0,8.969-8.969" transform="translate(-124.945)" fill="#fffdfd"/>
      <path id="Path_1250" data-name="Path 1250" d="M369.049,1.077a7.891,7.891,0,1,1-7.891,7.892,7.893,7.893,0,0,1,7.891-7.892m8.969,7.892a8.969,8.969,0,1,0-8.969,8.969,8.97,8.97,0,0,0,8.969-8.969" transform="translate(-254.364)" fill="#fffdfd"/>
      <path id="Path_1251" data-name="Path 1251" d="M433.981,1.077a7.891,7.891,0,1,1-7.891,7.892,7.893,7.893,0,0,1,7.891-7.892m8.969,7.892a8.969,8.969,0,1,0-8.969,8.969,8.97,8.97,0,0,0,8.969-8.969" transform="translate(-300.232)" fill="#fffdfd"/>
      <path id="Path_1252" data-name="Path 1252" d="M540.093,152.611a2.653,2.653,0,1,1-1.876.777,2.645,2.645,0,0,1,1.876-.777m1.508,1.145a2.132,2.132,0,1,0,.625,1.508,2.128,2.128,0,0,0-.625-1.508" transform="translate(-379.652 -107.806)" fill="#fffdfd"/>
      <path id="Path_1253" data-name="Path 1253" d="M545.216,159.755H544.7l-.418-1.106H543.6v1.106h-.485v-2.691h1.167a1,1,0,0,1,.716.22.751.751,0,0,1,.229.568.711.711,0,0,1-.485.713ZM543.6,158.26h.6a.586.586,0,0,0,.39-.11.38.38,0,0,0,.128-.3.361.361,0,0,0-.126-.287.521.521,0,0,0-.353-.11H543.6v.81" transform="translate(-383.663 -110.951)" fill="#fffdfd"/>
    </g>
  </g>
</svg>
