<svg id="Group_3472" data-name="Group 3472" xmlns="http://www.w3.org/2000/svg" xmlns:xlink="http://www.w3.org/1999/xlink" width="140.681" height="45.607" viewBox="0 0 140.681 45.607">
  <defs>
    <clipPath id="clip-path-98">
      <rect id="Rectangle_1198" data-name="Rectangle 1198" width="140.681" height="45.607" fill="#fff"/>
    </clipPath>
  </defs>
  <g id="Group_3471" data-name="Group 3471" transform="translate(0 0)" clip-path="url(#clip-path-98)">
    <path id="Path_1375" data-name="Path 1375" d="M41.722,43.872c-1.956-.2-3.182-.6-3.863-1.421l-15.978-17.8c6.039-2.06,11.3-7.1,11.3-13.5C33.178,5.048,27.42.075,17.615.075c-3.549,0-9.3.355-11.079.355C4.689.43,3.481.288,1,.075L0,0,.075.92A2.892,2.892,0,0,1,.856,1C4.337,1.35,5.47,2.341,5.47,5.183V39.707c0,2.842-1.137,3.836-4.614,4.192a3.186,3.186,0,0,1-.781.071L0,44.893l1-.075c2.483-.217,4.188-.351,5.538-.351h2.7c1.342,0,3.047.135,5.534.351l.995.075-.064-.924a3.2,3.2,0,0,1-.785-.071c-3.481-.355-4.622-1.35-4.622-4.192V25.864h6.989L30.6,41.487l.108.153c1.649,1.694-1.14,2.038-3.044,2.232a3.186,3.186,0,0,1-.781.071l-.075.927,1-.075c2.483-.217,4.188-.359,5.534-.359h2.7c1.354,0,3.055.142,5.542.359l.991.075-.071-.927a3.568,3.568,0,0,1-.778-.071M15.626,1.705c8.593,0,12.855,5.186,12.855,10.657,0,5.77-4.248,9.7-9.737,11.016H10.294V5.183c0-3.264.856-3.477,5.332-3.477" transform="translate(0 0)" fill="#fff"/>
    <path id="Path_1376" data-name="Path 1376" d="M28.81,3.23c-10.8,0-18.61,8.024-18.61,17.26,0,9.8,8.312,16.269,18.61,16.269,10.8,0,18.543-8.024,18.543-17.256,0-9.812-8.312-16.273-18.543-16.273M30.3,34.557c-8.742,0-14.7-6.607-15.555-14.568C13.973,12.04,19.081,5.5,27.318,5.5c8.735,0,14.635,6.54,15.555,14.489.785,7.961-4.323,14.568-12.571,14.568" transform="translate(27.94 8.848)" fill="#fff"/>
    <path id="Path_1377" data-name="Path 1377" d="M54.606,4.487a3.358,3.358,0,0,1,.781-.067l.075-1-.995.071c-2.49.213-3.485.363-4.839.363H47.292c-1.354,0-2.348-.15-4.835-.363l-.991-.071.071,1a3.359,3.359,0,0,1,.778.067c3.485.359,3.907,1.35,3.907,4.188v5.433l-17.122,0V8.675c0-2.838.426-3.829,3.915-4.188A3.372,3.372,0,0,1,33.8,4.42l.067-1-1,.071c-2.487.213-3.481.363-4.827.363H25.695c-1.342,0-2.341-.15-4.827-.363l-1-.071.079,1a3.39,3.39,0,0,1,.781.067c3.474.359,3.9,1.35,3.9,4.188v21.6c0,2.842-.43,3.829-3.9,4.188a3.06,3.06,0,0,1-.781.075l-.079.991,1-.067c2.487-.213,3.485-.359,4.827-.359h2.348c1.346,0,2.341.146,4.827.359l1,.067-.067-.991a3.045,3.045,0,0,1-.785-.075C29.527,34.1,29.1,33.115,29.1,30.273V16.6l17.122,0V30.273c0,2.842-.423,3.829-3.907,4.188a3.033,3.033,0,0,1-.778.075l-.071.991.991-.067c2.487-.213,3.481-.359,4.835-.359h2.337c1.354,0,2.348.146,4.839.359l.995.067-.075-.991a3.032,3.032,0,0,1-.781-.075C51.125,34.1,50.7,33.115,50.7,30.273V8.675c0-2.834.43-3.829,3.907-4.188" transform="translate(54.426 9.363)" fill="#fff"/>
    <path id="Path_1378" data-name="Path 1378" d="M55.469,27.5l-1.705,2.128c-2.487,3.13-2.842,3.343-6.607,3.343H41.9c-2.27,0-2.416-.142-2.416-2.707V8.676c0-2.838.423-3.833,3.907-4.188a3.173,3.173,0,0,1,.778-.071l.079-1-1,.071c-2.479.213-3.477.363-4.831.363H36.078c-1.339,0-2.337-.15-4.831-.363l-.995-.071.075,1a3.216,3.216,0,0,1,.782.071c3.485.355,3.907,1.35,3.907,4.188v21.59c0,2.849-.423,3.836-3.907,4.2a3.06,3.06,0,0,1-.782.075l-.075.995.995-.071c2.494-.213,3.492-.359,4.831-.359h2.416c4.121,0,14.347.284,14.347.284A22.441,22.441,0,0,1,57.1,27.5Z" transform="translate(82.867 9.365)" fill="#fff"/>
    <path id="Path_1379" data-name="Path 1379" d="M39.735,12.686a1.469,1.469,0,0,1-.191.725,1.515,1.515,0,0,1-.535.531,1.428,1.428,0,0,1-.714.2,1.48,1.48,0,0,1-.722-.194,1.429,1.429,0,0,1-.531-.535,1.447,1.447,0,0,1,0-1.436,1.448,1.448,0,0,1,.531-.542,1.436,1.436,0,0,1,1.967.535,1.41,1.41,0,0,1,.194.718m-.2,0a1.232,1.232,0,0,0-.617-1.073,1.223,1.223,0,0,0-.613-.172,1.289,1.289,0,0,0-.628.172,1.169,1.169,0,0,0-.452.452,1.243,1.243,0,0,0-.165.621A1.251,1.251,0,0,0,38.3,13.935a1.219,1.219,0,0,0,.613-.168,1.3,1.3,0,0,0,.46-.452,1.231,1.231,0,0,0,.157-.624M37.7,11.856h.681a.909.909,0,0,1,.355.049.466.466,0,0,1,.176.157.538.538,0,0,1,.064.258.517.517,0,0,1-.045.221.605.605,0,0,1-.165.146.349.349,0,0,1,.157.123.575.575,0,0,1,.037.247v.187a.4.4,0,0,0,.056.221l.03.041h-.288a2.343,2.343,0,0,1-.049-.236l-.015-.206a.434.434,0,0,0-.026-.161.219.219,0,0,0-.09-.064.588.588,0,0,0-.2-.019h-.415v.684h-.254V11.856Zm.258.236v.49h.4a.427.427,0,0,0,.243-.041.222.222,0,0,0,.1-.206.218.218,0,0,0-.067-.183.436.436,0,0,0-.262-.064h-.415Z" transform="translate(100.946 30.797)" fill="#fff"/>
  </g>
</svg>
