<svg xmlns="http://www.w3.org/2000/svg" width="97.204" height="15.134" viewBox="0 0 97.204 15.134">
  <g id="ad-water-logo" transform="translate(-73.819 -163.876)">
    <path id="Path_1115" data-name="Path 1115" d="M155.576,178.925h.7l4.6-14.448h-.72l-4.236,13.292-3.984-13.292h-.766l-4.005,13.315-.038-.145-4.154-13.17h-.764l4.6,14.448h.7l4.024-13.393Z" transform="translate(-36.958 -0.258)" fill="#fff" stroke="#fff" stroke-width="0.25"/>
    <path id="Path_1116" data-name="Path 1116" d="M190.217,178.925h.761l-4.8-14.448h-.837l-4.795,14.448h.739l4.463-13.65.039.1Z" transform="translate(-57.736 -0.258)" fill="#fff" stroke="#fff" stroke-width="0.25"/>
    <path id="Path_1117" data-name="Path 1117" d="M204.549,178.925h.723V165.113h4.233v-.636h-9.168v.636h4.211Z" transform="translate(-68.457 -0.258)" fill="#fff" stroke="#fff" stroke-width="0.25"/>
    <path id="Path_1118" data-name="Path 1118" d="M225.394,178.925h6.942v-.636h-6.219v-6.805h5.346v-.635h-5.346v-5.736h6.066v-.636h-6.789Z" transform="translate(-82.033 -0.258)" fill="#fff" stroke="#fff" stroke-width="0.25"/>
    <g id="Group_3141" data-name="Group 3141" transform="translate(162.598 164.001)">
      <path id="Path_1119" data-name="Path 1119" d="M267.383,177.5a5.823,5.823,0,0,0,3.979,1.381c2.585,0,4.322-1.5,4.322-3.733,0-2.371-2.038-3.436-3.837-4.376l-.349-.184c-1.611-.854-2.884-1.528-2.884-3.339,0-1.578,1.245-2.638,3.1-2.638a5.526,5.526,0,0,1,3.2.986l.367-.541a6.121,6.121,0,0,0-3.521-1.06c-2.334,0-3.842,1.3-3.842,3.318,0,2.174,1.618,3.041,3.332,3.959l.173.093c1.742.913,3.543,1.857,3.543,3.826,0,1.811-1.462,3.075-3.555,3.075a5.465,5.465,0,0,1-3.617-1.27Z" transform="translate(-267.383 -164.001)" fill="#fff" stroke="#fff" stroke-width="0.25"/>
    </g>
    <path id="Path_1120" data-name="Path 1120" d="M85.053,178.925h.761l-5.488-14.448H79.49l-2.626,6.912H74v.636h2.622l-.022.057L74,178.925h.739l2.607-6.9h4.017v-.636H77.587l.021-.057,2.289-6.056Z" transform="translate(0 -0.258)" fill="#fff" stroke="#fff" stroke-width="0.25"/>
    <g id="Group_3142" data-name="Group 3142" transform="translate(88.076 164.219)">
      <path id="Path_1121" data-name="Path 1121" d="M104.724,178.925h2.864c4.988,0,7.966-2.733,7.966-7.312a6.8,6.8,0,0,0-2.122-5.284,8.638,8.638,0,0,0-5.823-1.852h-2.885v.614h2.842a7.8,7.8,0,0,1,5.306,1.661,6.217,6.217,0,0,1,1.937,4.906c0,4.228-2.616,6.653-7.177,6.653h-2.907v.614Z" transform="translate(-104.724 -164.477)" fill="#fff" stroke="#fff" stroke-width="0.25"/>
    </g>
    <path id="Path_1122" data-name="Path 1122" d="M99.958,179.462h.636v-4.034h4.034v-.636h-4.034v-4.034h-.636v4.034H95.924v.636h4.034Z" transform="translate(-11.88 -3.662)" fill="#fff" stroke="#fff" stroke-width="0.25"/>
    <g id="Group_3143" data-name="Group 3143" transform="translate(152.665 164.219)">
      <path id="Path_1123" data-name="Path 1123" d="M246.425,171.045v-5.932h2.2c2.583,0,3.948,1.018,3.948,2.945,0,1.954-1.358,2.988-3.926,2.988Zm3.478,2.1c-.273-.363-.484-.63-.656-.831l0-.005c-.369-.459-.472-.548-.68-.663v-.029h.281c2.83-.022,4.454-1.319,4.454-3.558,0-2.309-1.643-3.58-4.628-3.58H245.7v14.449h.723v-7.266h.565c.77,0,1.075.169,2.3,1.828l4,5.438h.9Z" transform="translate(-245.702 -164.477)" fill="#fff" stroke="#fff" stroke-width="0.25"/>
    </g>
  </g>
</svg>
