<svg id="Group_3402" data-name="Group 3402" xmlns="http://www.w3.org/2000/svg" xmlns:xlink="http://www.w3.org/1999/xlink" width="174.209" height="53.526" viewBox="0 0 174.209 53.526">
  <defs>
    <clipPath id="clip-path-k">
      <rect id="Rectangle_1132" data-name="Rectangle 1132" width="174.209" height="53.526" fill="none"/>
    </clipPath>
  </defs>
  <path id="Path_1233" data-name="Path 1233" d="M269.674,76.5h7.7v9.746h7.6V76.5h7.7v27.928h-7.7V93.945h-7.6v10.48h-7.7V76.5" transform="translate(-185.104 -52.507)" fill="#fffdfd"/>
  <path id="Path_1234" data-name="Path 1234" d="M349.374,76.5h7.7V97.22h8.489v7.2H349.374V76.5" transform="translate(-239.81 -52.507)" fill="#fffdfd"/>
  <path id="Path_1235" data-name="Path 1235" d="M406.016,76.5h15.562v6.419h-7.86v4.3h7.86v6.419h-7.86v4.375h7.86v6.419H406.016V76.5" transform="translate(-278.688 -52.507)" fill="#fffdfd"/>
  <g id="Group_3168" data-name="Group 3168">
    <g id="Group_3167" data-name="Group 3167" clip-path="url(#clip-path-k)">
      <path id="Path_1236" data-name="Path 1236" d="M461.153,76.5h7.7a26.363,26.363,0,0,1,4.244.394c4.4.939,7.964,5.684,6.812,10.221-.524,2.659-2.463,4.693-4.611,6.258,2.677,3.657,5.294,7.357,7.912,11.056h-8.279c-2.093-2.693-4.087-5.485-6.078-8.231v8.231h-7.7Zm7.7,6.456V88.4c1.265-.057,2.725.219,3.668-.769a2.567,2.567,0,0,0,.053-3.807c-1-.94-2.414-.8-3.721-.873" transform="translate(-316.535 -52.507)" fill="#fffdfd"/>
      <path id="Path_1237" data-name="Path 1237" d="M203.055,88.359A14.418,14.418,0,1,0,188.638,102.9a14.482,14.482,0,0,0,14.417-14.543M188.638,81.21c3.564,0,6.454,3.2,6.454,7.149s-2.89,7.149-6.454,7.149-6.454-3.2-6.454-7.149,2.89-7.149,6.454-7.149" transform="translate(-119.584 -50.668)" fill="#fffdfd"/>
      <path id="Path_1238" data-name="Path 1238" d="M133.055,76.509c-3.631,4.448-7.333,8.84-10.951,13.3l12.575,14.619H124.514L115.973,94.42v10.005h-7.7V76.5h7.7v8.244l7.3-8.232h9.782" transform="translate(-74.317 -52.507)" fill="#fffdfd"/>
      <path id="Path_1239" data-name="Path 1239" d="M0,.6H11.056V1.778H6.192V19.371H4.926V1.778H0V.6" transform="translate(0 -0.411)" fill="#fffdfd"/>
      <path id="Path_1240" data-name="Path 1240" d="M38.4,19.4V.64h1.267V8.526H50.976V.64h1.267V19.4H50.976V9.705H39.667V19.4H38.4" transform="translate(-26.358 -0.439)" fill="#fffdfd"/>
      <path id="Path_1241" data-name="Path 1241" d="M88.889,19.4V.64h8.96V1.819H90.156V8.526h7.693V9.705H90.156V18.22h7.693V19.4Z" transform="translate(-61.013 -0.439)" fill="#fffdfd"/>
      <path id="Path_1242" data-name="Path 1242" d="M140.685,19.367V.608h1.267a17.4,17.4,0,0,1,5.231.416c3.249,1.366,3.668,6.53.681,8.422a5.279,5.279,0,0,1,3.458,3.047,5.127,5.127,0,0,1-3.72,6.673,32.746,32.746,0,0,1-5.65.2Zm1.267-17.606V9.079c1.569-.051,3.242.262,4.707-.315,2.672-1.051,2.62-5.479,0-6.582A15.729,15.729,0,0,0,141.952,1.761Zm0,16.453c1.033.04,2.194.047,3.319.04a5.252,5.252,0,0,0,3.851-1.241c1.938-1.629,1.519-5.359-.944-6.252-1.991-.683-4.139-.42-6.183-.526-.106,2.656-.044,5.322-.044,7.979" transform="translate(-96.566 -0.408)" fill="#fffdfd"/>
      <path id="Path_1243" data-name="Path 1243" d="M241.938,19.4V.64H243.2V18.22h7.641V19.4h-8.908" transform="translate(-166.066 -0.439)" fill="#fffdfd"/>
      <path id="Path_1244" data-name="Path 1244" d="M274.018,19.4V.64h1.267V.646c2.957,0,6.1-.036,8.48,1.94,4.558,3.47,4.663,11.2.157,14.773-2.387,2.072-5.618,2.087-8.637,2.024V19.4Zm1.267-17.6V18.255c2.868.1,6.189.034,8.322-2.263,3.405-3.207,3.2-9.411-.472-12.3C281,1.759,277.943,1.8,275.285,1.8" transform="translate(-188.085 -0.439)" fill="#fffdfd"/>
      <path id="Path_1245" data-name="Path 1245" d="M340.518,19.4V.64h1.267V18.22h7.641V19.4Z" transform="translate(-233.731 -0.439)" fill="#fffdfd"/>
      <path id="Path_1246" data-name="Path 1246" d="M490.022,19.4V.64h1.267V9.074L499.8.64h1.8L492.5,9.657l9.689,9.742H500.4l-9.109-9.163V19.4h-1.267" transform="translate(-336.35 -0.439)" fill="#fffdfd"/>
      <path id="Path_1247" data-name="Path 1247" d="M66.667,94.922V76.163H74.16v1.179H67.934v6.733h6.1v1.179h-6.1v9.667Z" transform="translate(-45.76 -52.278)" fill="#fffdfd"/>
      <path id="Path_1248" data-name="Path 1248" d="M11.149,76.7A8.429,8.429,0,1,1,2.72,85.133,8.43,8.43,0,0,1,11.149,76.7m9.58,8.429a9.58,9.58,0,1,0-9.58,9.58,9.582,9.582,0,0,0,9.58-9.58" transform="translate(-1.077 -51.859)" fill="#fffdfd"/>
      <path id="Path_1249" data-name="Path 1249" d="M186.453,1.151a8.429,8.429,0,1,1-8.429,8.43,8.431,8.431,0,0,1,8.429-8.43m9.58,8.43a9.58,9.58,0,1,0-9.58,9.58,9.582,9.582,0,0,0,9.58-9.58" transform="translate(-121.405)" fill="#fffdfd"/>
      <path id="Path_1250" data-name="Path 1250" d="M369.66,1.151a8.429,8.429,0,1,1-8.429,8.43,8.431,8.431,0,0,1,8.429-8.43m9.58,8.43a9.58,9.58,0,1,0-9.58,9.58,9.582,9.582,0,0,0,9.58-9.58" transform="translate(-247.158)" fill="#fffdfd"/>
      <path id="Path_1251" data-name="Path 1251" d="M434.592,1.151a8.429,8.429,0,1,1-8.429,8.43,8.431,8.431,0,0,1,8.429-8.43m9.58,8.43a9.58,9.58,0,1,0-9.58,9.58,9.582,9.582,0,0,0,9.58-9.58" transform="translate(-291.727)" fill="#fffdfd"/>
      <path id="Path_1252" data-name="Path 1252" d="M540.274,152.611a2.834,2.834,0,1,1-2,.83,2.825,2.825,0,0,1,2-.83m1.611,1.223a2.277,2.277,0,1,0,.667,1.611,2.273,2.273,0,0,0-.667-1.611" transform="translate(-368.898 -104.752)" fill="#fffdfd"/>
      <path id="Path_1253" data-name="Path 1253" d="M545.359,159.938h-.547l-.447-1.182h-.728v1.182h-.518v-2.874h1.246a1.07,1.07,0,0,1,.765.235.8.8,0,0,1,.244.607.759.759,0,0,1-.518.762Zm-1.722-1.6h.645a.626.626,0,0,0,.417-.118.406.406,0,0,0,.137-.324.386.386,0,0,0-.135-.306.556.556,0,0,0-.377-.117h-.686v.865" transform="translate(-372.795 -107.808)" fill="#fffdfd"/>
    </g>
  </g>
</svg>
