<svg id="Studio_Colour" data-name="Studio Colour" xmlns="http://www.w3.org/2000/svg" width="108.545" height="47.494" viewBox="0 0 108.545 47.494">
  <rect id="Rectangle_1202" data-name="Rectangle 1202" width="31.56" height="7.615" transform="translate(0.836 0)" fill="#e03327"/>
  <g id="Group_3448" data-name="Group 3448" transform="translate(4.182 1.805)">
    <g id="Group_3447" data-name="Group 3447">
      <g id="Group_3446" data-name="Group 3446">
        <g id="Group_3445" data-name="Group 3445">
          <g id="Group_3444" data-name="Group 3444">
            <path id="Path_1389" data-name="Path 1389" d="M22.7,8.049a1.627,1.627,0,0,0,.264.924,2.358,2.358,0,0,0,.66.66,2.064,2.064,0,0,0,.924.264,1.627,1.627,0,0,0,.924-.264,2.358,2.358,0,0,0,.66-.66,2.064,2.064,0,0,0,.264-.924,1.627,1.627,0,0,0-.264-.924,2.358,2.358,0,0,0-.66-.66,2.064,2.064,0,0,0-.924-.264,1.627,1.627,0,0,0-.924.264,2.358,2.358,0,0,0-.66.66,1.627,1.627,0,0,0-.264.924m1.056,0a3.118,3.118,0,0,1,.044-.616,2.211,2.211,0,0,1,.22-.572A.671.671,0,0,1,24.5,6.6a.506.506,0,0,1,.484.264,1.3,1.3,0,0,1,.22.572,2.906,2.906,0,0,1,.044.616,2.51,2.51,0,0,1-.044.572,2.211,2.211,0,0,1-.22.572.671.671,0,0,1-.484.264.506.506,0,0,1-.484-.264,1.3,1.3,0,0,1-.22-.572A2.51,2.51,0,0,1,23.756,8.049Z" transform="translate(-17.55 -5.848)" fill="#fff" fill-rule="evenodd"/>
            <path id="Path_1390" data-name="Path 1390" d="M31.8,9.989h2.245v-.44H32.768V6.6H31.8V9.989" transform="translate(-22.645 -6.072)" fill="#fff" fill-rule="evenodd"/>
            <path id="Path_1391" data-name="Path 1391" d="M37.1,9.137a1.027,1.027,0,0,0,.528.528,1.873,1.873,0,0,0,.748.176,1.2,1.2,0,0,0,.88-.308,1.127,1.127,0,0,0,.352-.836,1.081,1.081,0,0,0-.22-.66,1.583,1.583,0,0,0-.528-.352l-.528-.264a.392.392,0,0,1-.22-.352A.636.636,0,0,1,38.2,6.76a.343.343,0,0,1,.308-.132.538.538,0,0,1,.4.132,2.441,2.441,0,0,1,.264.352l.4-.308a1.876,1.876,0,0,0-.484-.528,1.458,1.458,0,0,0-.66-.176,1.035,1.035,0,0,0-.836.308,1.1,1.1,0,0,0-.308.836.871.871,0,0,0,.22.616,1.583,1.583,0,0,0,.528.352l.528.264a.392.392,0,0,1,.22.352.4.4,0,0,1-.132.308c-.088.088-.176.088-.308.132a.538.538,0,0,1-.4-.176.958.958,0,0,1-.22-.352l-.616.4" transform="translate(-25.612 -5.792)" fill="#fff" fill-rule="evenodd"/>
            <path id="Path_1392" data-name="Path 1392" d="M45.8,9.989v-.44H44.524v-1.1h1.188v-.44H44.524V7.04h1.232V6.6H43.6V9.989h2.2" transform="translate(-29.251 -6.072)" fill="#fff" fill-rule="evenodd"/>
            <path id="Path_1393" data-name="Path 1393" d="M49.6,9.989h2.245v-.44H50.568V6.6H49.6V9.989" transform="translate(-32.61 -6.072)" fill="#fff" fill-rule="evenodd"/>
            <path id="Path_1394" data-name="Path 1394" d="M57.445,9.989v-.44H56.168v-1.1h1.144v-.44H56.168V7.04H57.4V6.6H55.2V9.989h2.245" transform="translate(-35.745 -6.072)" fill="#fff" fill-rule="evenodd"/>
            <path id="Path_1395" data-name="Path 1395" d="M62.161,7.832l-.7-1.232H60.4l1.012,1.761V9.989h.968V8.317L63.349,6.6h-.484l-.7,1.232" transform="translate(-38.656 -6.072)" fill="#fff" fill-rule="evenodd"/>
            <path id="Path_1396" data-name="Path 1396" d="M12.232,5.4l.7,2.245h.044l.44-1.365-.264-.88h1.188l.748,2.245h.044L15.93,5.4h.528L14.917,9.582h-.4l-.792-2.465h-.044l-.836,2.421h-.484L11,5.444V5.4h1.232" transform="translate(-11 -5.4)" fill="#fff" fill-rule="evenodd"/>
          </g>
        </g>
      </g>
    </g>
  </g>
  <g id="Group_3450" data-name="Group 3450" transform="translate(0 7.395)">
    <g id="Group_3449" data-name="Group 3449">
      <path id="Path_1397" data-name="Path 1397" d="M9.951,56.98A14.179,14.179,0,0,1,1.5,53.987l1.144-1.541a11.907,11.907,0,0,0,7.395,2.729c2.773,0,4.974-1.541,4.974-3.917v-.132c0-2.421-2.6-3.3-5.458-4.138C6.21,46.02,2.468,45.008,2.468,41.31v-.088c0-3.3,2.773-5.722,6.779-5.722a13.854,13.854,0,0,1,7.307,2.245L15.5,39.417a11.679,11.679,0,0,0-6.338-2.069c-2.817,0-4.71,1.541-4.71,3.609v.088c0,2.289,2.773,3.169,5.766,4.006,3.3.924,6.779,2.157,6.779,5.766v.088C17.082,54.647,13.913,56.98,9.951,56.98Z" transform="translate(-1.5 -27.841)" fill="#231f20"/>
      <path id="Path_1398" data-name="Path 1398" d="M49.259,50.946c-3.213,0-5.766-1.761-5.766-5.678V31.8H40.5v-1.8h2.993V24.8h1.981v5.15h7.263v1.8H45.474V45.048c0,2.949,1.761,4.005,4.138,4.005a6.982,6.982,0,0,0,3.037-.748v1.849A6.873,6.873,0,0,1,49.259,50.946Z" transform="translate(-23.334 -21.851)" fill="#231f20"/>
      <path id="Path_1399" data-name="Path 1399" d="M90.814,57.144V53.314a8.081,8.081,0,0,1-7.439,4.314c-5.238,0-8.275-3.565-8.275-8.5V36.5h1.981V48.781c0,4.27,2.377,7.043,6.558,7.043a7.082,7.082,0,0,0,7.175-7.351V36.5h1.981V57.144Z" transform="translate(-42.704 -28.401)" fill="#231f20"/>
      <path id="Path_1400" data-name="Path 1400" d="M142.331,47.011V42.389c-1.761,2.729-4.4,5.106-8.5,5.106-4.974,0-10.036-4.006-10.036-10.74v-.044c0-6.735,5.062-10.784,10.036-10.784,4.138,0,6.779,2.333,8.5,4.93V18.4h1.981V47.011Zm.132-10.344a8.621,8.621,0,0,0-8.407-8.847c-4.49,0-8.1,3.257-8.1,8.8v.088c0,5.414,3.785,8.891,8.1,8.891a8.649,8.649,0,0,0,8.407-8.847Z" transform="translate(-69.968 -18.268)" fill="#231f20"/>
      <path id="Path_1401" data-name="Path 1401" d="M185.8,20.829V18.1h2.465v2.729Zm.264,26.014V26.2h1.981V46.843Z" transform="translate(-104.678 -18.1)" fill="#231f20"/>
      <path id="Path_1402" data-name="Path 1402" d="M210.464,57.068A10.549,10.549,0,0,1,199.9,46.328v-.044A10.659,10.659,0,0,1,210.552,35.5a10.549,10.549,0,0,1,10.564,10.74v.044A10.716,10.716,0,0,1,210.464,57.068Zm8.5-10.784a8.659,8.659,0,0,0-8.5-8.935c-4.886,0-8.407,4.005-8.407,8.847v.088a8.659,8.659,0,0,0,8.5,8.935c4.886,0,8.407-4.005,8.407-8.847Z" transform="translate(-112.571 -27.841)" fill="#231f20"/>
    </g>
  </g>
  <g id="Group_3451" data-name="Group 3451" transform="translate(1.409 40.627)">
    <path id="Path_1403" data-name="Path 1403" d="M4.7,93.6H8.177v.44H5.184v1.937h2.6v.44h-2.6v2.6H4.7Z" transform="translate(-4.7 -93.6)" fill="#6d6e70"/>
    <path id="Path_1404" data-name="Path 1404" d="M13.6,93.6h.484v.792H13.6Zm0,1.5h.484v3.961H13.6Z" transform="translate(-9.683 -93.6)" fill="#6d6e70"/>
    <path id="Path_1405" data-name="Path 1405" d="M16.6,96.832h.484v.66h0a1.328,1.328,0,0,1,1.276-.792c1.1,0,1.453.572,1.453,1.541v2.553h-.484V98.329c0-.66-.22-1.188-1.012-1.188A1.24,1.24,0,0,0,17.084,98.5v2.289H16.6Z" transform="translate(-11.362 -95.335)" fill="#6d6e70"/>
    <path id="Path_1406" data-name="Path 1406" d="M25.8,93.6h.484v.792H25.8Zm0,1.5h.484v3.961H25.8Z" transform="translate(-16.513 -93.6)" fill="#6d6e70"/>
    <path id="Path_1407" data-name="Path 1407" d="M30.853,97.976a.913.913,0,0,0-1.012-.88c-.44,0-.924.176-.924.66,0,.44.484.572.836.66l.616.176c.572.088,1.144.4,1.144,1.1,0,.836-.836,1.188-1.585,1.188A1.448,1.448,0,0,1,28.3,99.473h.484a1.021,1.021,0,0,0,1.144.968c.44,0,1.1-.22,1.1-.748,0-.44-.44-.616-.88-.7l-.616-.132c-.616-.176-1.1-.4-1.1-1.056,0-.792.792-1.1,1.5-1.1a1.3,1.3,0,0,1,1.453,1.276Z" transform="translate(-17.912 -95.335)" fill="#6d6e70"/>
    <path id="Path_1408" data-name="Path 1408" d="M36.9,93.6h.484v2.2h0a1.328,1.328,0,0,1,1.276-.792c1.1,0,1.453.572,1.453,1.541V99.1h-.484V96.637c0-.66-.22-1.188-1.012-1.188a1.24,1.24,0,0,0-1.232,1.365V99.1H36.9Z" transform="translate(-22.727 -93.6)" fill="#6d6e70"/>
    <path id="Path_1409" data-name="Path 1409" d="M49.4,97h.528l1.32,3.345L52.481,97h.484l-1.717,4.534c-.264.66-.44.836-1.056.836-.176,0-.308,0-.352-.044v-.4a.859.859,0,0,0,.308.044c.44,0,.528-.264.7-.616l.176-.44Z" transform="translate(-29.725 -95.503)" fill="#6d6e70"/>
    <path id="Path_1410" data-name="Path 1410" d="M61.2,98.867a1.865,1.865,0,0,1-1.849,2.069A1.888,1.888,0,0,1,57.5,98.867,1.865,1.865,0,0,1,59.349,96.8,1.843,1.843,0,0,1,61.2,98.867Zm-3.257,0c0,.836.44,1.673,1.365,1.673s1.365-.836,1.365-1.673-.44-1.673-1.365-1.673A1.509,1.509,0,0,0,57.94,98.867Z" transform="translate(-34.259 -95.39)" fill="#6d6e70"/>
    <path id="Path_1411" data-name="Path 1411" d="M70.269,100.961h-.44v-.7h0a1.511,1.511,0,0,1-1.365.836c-1.012,0-1.365-.572-1.365-1.5V97h.484v2.553c.044.7.308,1.1,1.056,1.1.836,0,1.188-.792,1.188-1.585V97h.484v3.961Z" transform="translate(-39.634 -95.503)" fill="#6d6e70"/>
    <path id="Path_1412" data-name="Path 1412" d="M76.5,96.94h.44v.924h0a1.484,1.484,0,0,1,1.5-.968v.484a1.352,1.352,0,0,0-1.453,1.409V100.9H76.5Z" transform="translate(-44.896 -95.443)" fill="#6d6e70"/>
    <path id="Path_1413" data-name="Path 1413" d="M86.4,93.6h.484v2.2h0a1.328,1.328,0,0,1,1.276-.792c1.1,0,1.453.572,1.453,1.541V99.1h-.484V96.637c0-.66-.22-1.188-1.012-1.188a1.24,1.24,0,0,0-1.232,1.365V99.1H86.4Z" transform="translate(-50.439 -93.6)" fill="#6d6e70"/>
    <path id="Path_1414" data-name="Path 1414" d="M98.9,98.867a1.865,1.865,0,0,1-1.849,2.069A1.888,1.888,0,0,1,95.2,98.867,1.865,1.865,0,0,1,97.049,96.8,1.843,1.843,0,0,1,98.9,98.867Zm-3.257,0c0,.836.44,1.673,1.365,1.673s1.365-.836,1.365-1.673-.44-1.673-1.365-1.673S95.64,98.031,95.64,98.867Z" transform="translate(-55.365 -95.39)" fill="#6d6e70"/>
    <path id="Path_1415" data-name="Path 1415" d="M105,96.832h.44v.66h.044a1.372,1.372,0,0,1,1.276-.792,1.136,1.136,0,0,1,1.144.792,1.345,1.345,0,0,1,1.276-.792c.88,0,1.32.44,1.32,1.365v2.685h-.484V98.109c0-.66-.264-1.012-.924-1.012-.836,0-1.056.7-1.056,1.409v2.245h-.484V98.064c0-.528-.22-.968-.836-.968-.836,0-1.188.616-1.188,1.453v2.2H105Z" transform="translate(-60.851 -95.335)" fill="#6d6e70"/>
    <path id="Path_1416" data-name="Path 1416" d="M119.34,99a1.4,1.4,0,0,0,1.32,1.541,1.167,1.167,0,0,0,1.232-1.012h.484a1.639,1.639,0,0,1-1.717,1.409c-1.276,0-1.761-.968-1.761-2.069,0-1.056.528-2.069,1.761-2.069,1.276,0,1.761,1.1,1.717,2.2Zm2.553-.4a1.337,1.337,0,0,0-1.276-1.409A1.435,1.435,0,0,0,119.3,98.6Z" transform="translate(-68.633 -95.391)" fill="#6d6e70"/>
    <path id="Path_1417" data-name="Path 1417" d="M131.9,97h.528l1.012,3.389h0L134.409,97h.528l.968,3.389h0L136.918,97h.528l-1.276,3.961h-.528l-.968-3.3h0l-.968,3.3h-.528Z" transform="translate(-75.911 -95.503)" fill="#6d6e70"/>
    <path id="Path_1418" data-name="Path 1418" d="M145.5,93.6h.484v.792H145.5Zm0,1.5h.484v3.961H145.5Z" transform="translate(-83.525 -93.6)" fill="#6d6e70"/>
    <path id="Path_1419" data-name="Path 1419" d="M148.688,95.488h.792v.4h-.792v2.641c0,.308.044.484.4.528a1.218,1.218,0,0,0,.4-.044v.4h-.44c-.66,0-.88-.22-.836-.88V95.841h-.7v-.352h.7V94.3h.484Z" transform="translate(-84.645 -93.992)" fill="#6d6e70"/>
    <path id="Path_1420" data-name="Path 1420" d="M153.4,93.6h.484v2.2h0a1.328,1.328,0,0,1,1.276-.792c1.1,0,1.453.572,1.453,1.541V99.1h-.484V96.637c0-.66-.22-1.188-1.012-1.188a1.24,1.24,0,0,0-1.232,1.365V99.1H153.4V93.6Z" transform="translate(-87.948 -93.6)" fill="#6d6e70"/>
    <path id="Path_1421" data-name="Path 1421" d="M169.409,97.92a.913.913,0,0,0-1.012-.88c-.44,0-.924.176-.924.66,0,.44.484.572.836.66l.66.132c.572.088,1.144.4,1.144,1.1,0,.836-.836,1.188-1.585,1.188a1.448,1.448,0,0,1-1.629-1.409h.484a1.021,1.021,0,0,0,1.144.968c.44,0,1.1-.22,1.1-.748,0-.44-.44-.616-.88-.7l-.616-.132c-.616-.176-1.1-.4-1.1-1.056,0-.792.792-1.1,1.5-1.1a1.3,1.3,0,0,1,1.453,1.276h-.572Z" transform="translate(-95.505 -95.28)" fill="#6d6e70"/>
    <path id="Path_1422" data-name="Path 1422" d="M175.588,95.488h.792v.4h-.792v2.641c0,.308.044.484.4.528a1.218,1.218,0,0,0,.4-.044v.4h-.44c-.66,0-.88-.22-.836-.88V95.841h-.7v-.352h.7V94.3h.484Z" transform="translate(-99.704 -93.992)" fill="#6d6e70"/>
    <path id="Path_1423" data-name="Path 1423" d="M179.3,97h.528l1.32,3.345L182.381,97h.484l-1.717,4.534c-.264.66-.44.836-1.056.836-.176,0-.308,0-.352-.044v-.4a.86.86,0,0,0,.308.044c.44,0,.528-.264.7-.616l.176-.44Z" transform="translate(-102.447 -95.503)" fill="#6d6e70"/>
    <path id="Path_1424" data-name="Path 1424" d="M188.2,93.6h.484v5.458H188.2Z" transform="translate(-107.43 -93.6)" fill="#6d6e70"/>
    <path id="Path_1425" data-name="Path 1425" d="M191.24,99a1.4,1.4,0,0,0,1.32,1.541,1.167,1.167,0,0,0,1.232-1.012h.484a1.639,1.639,0,0,1-1.717,1.409c-1.276,0-1.761-.968-1.761-2.069,0-1.056.528-2.069,1.761-2.069,1.276,0,1.761,1.1,1.717,2.2Zm2.553-.4a1.337,1.337,0,0,0-1.276-1.409A1.435,1.435,0,0,0,191.2,98.6Z" transform="translate(-108.885 -95.391)" fill="#6d6e70"/>
  </g>
</svg>
