<?xml version="1.0" standalone="no"?>
<!DOCTYPE svg PUBLIC "-//W3C//DTD SVG 1.1//EN" "http://www.w3.org/Graphics/SVG/1.1/DTD/svg11.dtd" >
<svg xmlns="http://www.w3.org/2000/svg" xmlns:xlink="http://www.w3.org/1999/xlink" version="1.1">
<metadata>
Created by FontForge 20170731 at Tue Jul 12 15:47:43 2022
 By Aleksey,,,
Arrows
</metadata>
<defs>
<font id="FONTSPRINGDEMO-Operetta32Regular" horiz-adv-x="612" >
  <font-face 
    font-family="FSP DEMO - Operetta 32"
    font-weight="400"
    font-stretch="normal"
    units-per-em="2048"
    panose-1="0 0 5 0 0 0 0 0 0 0"
    ascent="1638"
    descent="-410"
    x-height="944"
    cap-height="1434"
    bbox="-53 -489 2013 1485"
    underline-thickness="12"
    underline-position="-218"
    unicode-range="U+0020-007E"
  />
<missing-glyph 
d="M103 202q-6 0 -9 -1v-101q2 -1 9 -1q19 0 25.5 12.5t6.5 39.5t-6.5 39t-25.5 12zM259 165v-25h-41v-39h48v-24h-78v148h78v-25h-48v-35h41zM101 75q-23 0 -36 2v146q26 4 37 4q34 0 48.5 -18.5t14.5 -57.5q0 -40 -15 -58t-49 -18zM293 225h40l19 -82l20 82h41
q1 -21 3.5 -79.5t2.5 -68.5h-30q0 53 -3 106l-20 -84h-28l-21 84h-1q-2 -70 -2 -106h-28q2 85 7 148zM494 75q-30 0 -42.5 18t-12.5 58t12.5 58t42.5 18t42.5 -18t12.5 -58t-12.5 -58t-42.5 -18zM494 202q-25 0 -25 -51q0 -52 25 -52q15 0 20 12t5 40t-5 39.5t-20 11.5z
M483 508q35 0 49.5 -21t14.5 -44q0 -22 -17 -36t-36 -17q-106 -11 -170 -74q3 8 8.5 21t23 46t35 58t43 46t49.5 21zM142 455q27 0 53.5 -20t44.5 -48t33 -56t22 -48l7 -20q-59 74 -160 74q-25 0 -44 15t-19 38q0 27 16.5 46t46.5 19zM322 607q19 -19 24 -51.5t-1.5 -65.5
t-15.5 -63.5t-18 -49.5l-9 -19q10 96 -62 165q-18 18 -22 41t12 42q19 19 43 20.5t49 -19.5z" />
    <glyph glyph-name=".notdef" 
d="M103 202q-6 0 -9 -1v-101q2 -1 9 -1q19 0 25.5 12.5t6.5 39.5t-6.5 39t-25.5 12zM259 165v-25h-41v-39h48v-24h-78v148h78v-25h-48v-35h41zM101 75q-23 0 -36 2v146q26 4 37 4q34 0 48.5 -18.5t14.5 -57.5q0 -40 -15 -58t-49 -18zM293 225h40l19 -82l20 82h41
q1 -21 3.5 -79.5t2.5 -68.5h-30q0 53 -3 106l-20 -84h-28l-21 84h-1q-2 -70 -2 -106h-28q2 85 7 148zM494 75q-30 0 -42.5 18t-12.5 58t12.5 58t42.5 18t42.5 -18t12.5 -58t-12.5 -58t-42.5 -18zM494 202q-25 0 -25 -51q0 -52 25 -52q15 0 20 12t5 40t-5 39.5t-20 11.5z
M483 508q35 0 49.5 -21t14.5 -44q0 -22 -17 -36t-36 -17q-106 -11 -170 -74q3 8 8.5 21t23 46t35 58t43 46t49.5 21zM142 455q27 0 53.5 -20t44.5 -48t33 -56t22 -48l7 -20q-59 74 -160 74q-25 0 -44 15t-19 38q0 27 16.5 46t46.5 19zM322 607q19 -19 24 -51.5t-1.5 -65.5
t-15.5 -63.5t-18 -49.5l-9 -19q10 96 -62 165q-18 18 -22 41t12 42q19 19 43 20.5t49 -19.5z" />
    <glyph glyph-name=".null" horiz-adv-x="0" 
 />
    <glyph glyph-name="nonmarkingreturn" horiz-adv-x="682" 
 />
    <glyph glyph-name="space" unicode=" " horiz-adv-x="573" 
 />
    <glyph glyph-name="exclam" unicode="!" 
d="M103 202q-6 0 -9 -1v-101q2 -1 9 -1q19 0 25.5 12.5t6.5 39.5t-6.5 39t-25.5 12zM259 165v-25h-41v-39h48v-24h-78v148h78v-25h-48v-35h41zM101 75q-23 0 -36 2v146q26 4 37 4q34 0 48.5 -18.5t14.5 -57.5q0 -40 -15 -58t-49 -18zM293 225h40l19 -82l20 82h41
q1 -21 3.5 -79.5t2.5 -68.5h-30q0 53 -3 106l-20 -84h-28l-21 84h-1q-2 -70 -2 -106h-28q2 85 7 148zM494 75q-30 0 -42.5 18t-12.5 58t12.5 58t42.5 18t42.5 -18t12.5 -58t-12.5 -58t-42.5 -18zM494 202q-25 0 -25 -51q0 -52 25 -52q15 0 20 12t5 40t-5 39.5t-20 11.5z
M483 508q35 0 49.5 -21t14.5 -44q0 -22 -17 -36t-36 -17q-106 -11 -170 -74q3 8 8.5 21t23 46t35 58t43 46t49.5 21zM142 455q27 0 53.5 -20t44.5 -48t33 -56t22 -48l7 -20q-59 74 -160 74q-25 0 -44 15t-19 38q0 27 16.5 46t46.5 19zM322 607q19 -19 24 -51.5t-1.5 -65.5
t-15.5 -63.5t-18 -49.5l-9 -19q10 96 -62 165q-18 18 -22 41t12 42q19 19 43 20.5t49 -19.5z" />
    <glyph glyph-name="quotedbl" unicode="&#x22;" 
d="M103 202q-6 0 -9 -1v-101q2 -1 9 -1q19 0 25.5 12.5t6.5 39.5t-6.5 39t-25.5 12zM259 165v-25h-41v-39h48v-24h-78v148h78v-25h-48v-35h41zM101 75q-23 0 -36 2v146q26 4 37 4q34 0 48.5 -18.5t14.5 -57.5q0 -40 -15 -58t-49 -18zM293 225h40l19 -82l20 82h41
q1 -21 3.5 -79.5t2.5 -68.5h-30q0 53 -3 106l-20 -84h-28l-21 84h-1q-2 -70 -2 -106h-28q2 85 7 148zM494 75q-30 0 -42.5 18t-12.5 58t12.5 58t42.5 18t42.5 -18t12.5 -58t-12.5 -58t-42.5 -18zM494 202q-25 0 -25 -51q0 -52 25 -52q15 0 20 12t5 40t-5 39.5t-20 11.5z
M483 508q35 0 49.5 -21t14.5 -44q0 -22 -17 -36t-36 -17q-106 -11 -170 -74q3 8 8.5 21t23 46t35 58t43 46t49.5 21zM142 455q27 0 53.5 -20t44.5 -48t33 -56t22 -48l7 -20q-59 74 -160 74q-25 0 -44 15t-19 38q0 27 16.5 46t46.5 19zM322 607q19 -19 24 -51.5t-1.5 -65.5
t-15.5 -63.5t-18 -49.5l-9 -19q10 96 -62 165q-18 18 -22 41t12 42q19 19 43 20.5t49 -19.5z" />
    <glyph glyph-name="numbersign" unicode="#" 
d="M103 202q-6 0 -9 -1v-101q2 -1 9 -1q19 0 25.5 12.5t6.5 39.5t-6.5 39t-25.5 12zM259 165v-25h-41v-39h48v-24h-78v148h78v-25h-48v-35h41zM101 75q-23 0 -36 2v146q26 4 37 4q34 0 48.5 -18.5t14.5 -57.5q0 -40 -15 -58t-49 -18zM293 225h40l19 -82l20 82h41
q1 -21 3.5 -79.5t2.5 -68.5h-30q0 53 -3 106l-20 -84h-28l-21 84h-1q-2 -70 -2 -106h-28q2 85 7 148zM494 75q-30 0 -42.5 18t-12.5 58t12.5 58t42.5 18t42.5 -18t12.5 -58t-12.5 -58t-42.5 -18zM494 202q-25 0 -25 -51q0 -52 25 -52q15 0 20 12t5 40t-5 39.5t-20 11.5z
M483 508q35 0 49.5 -21t14.5 -44q0 -22 -17 -36t-36 -17q-106 -11 -170 -74q3 8 8.5 21t23 46t35 58t43 46t49.5 21zM142 455q27 0 53.5 -20t44.5 -48t33 -56t22 -48l7 -20q-59 74 -160 74q-25 0 -44 15t-19 38q0 27 16.5 46t46.5 19zM322 607q19 -19 24 -51.5t-1.5 -65.5
t-15.5 -63.5t-18 -49.5l-9 -19q10 96 -62 165q-18 18 -22 41t12 42q19 19 43 20.5t49 -19.5z" />
    <glyph glyph-name="dollar" unicode="$" 
d="M103 202q-6 0 -9 -1v-101q2 -1 9 -1q19 0 25.5 12.5t6.5 39.5t-6.5 39t-25.5 12zM259 165v-25h-41v-39h48v-24h-78v148h78v-25h-48v-35h41zM101 75q-23 0 -36 2v146q26 4 37 4q34 0 48.5 -18.5t14.5 -57.5q0 -40 -15 -58t-49 -18zM293 225h40l19 -82l20 82h41
q1 -21 3.5 -79.5t2.5 -68.5h-30q0 53 -3 106l-20 -84h-28l-21 84h-1q-2 -70 -2 -106h-28q2 85 7 148zM494 75q-30 0 -42.5 18t-12.5 58t12.5 58t42.5 18t42.5 -18t12.5 -58t-12.5 -58t-42.5 -18zM494 202q-25 0 -25 -51q0 -52 25 -52q15 0 20 12t5 40t-5 39.5t-20 11.5z
M483 508q35 0 49.5 -21t14.5 -44q0 -22 -17 -36t-36 -17q-106 -11 -170 -74q3 8 8.5 21t23 46t35 58t43 46t49.5 21zM142 455q27 0 53.5 -20t44.5 -48t33 -56t22 -48l7 -20q-59 74 -160 74q-25 0 -44 15t-19 38q0 27 16.5 46t46.5 19zM322 607q19 -19 24 -51.5t-1.5 -65.5
t-15.5 -63.5t-18 -49.5l-9 -19q10 96 -62 165q-18 18 -22 41t12 42q19 19 43 20.5t49 -19.5z" />
    <glyph glyph-name="percent" unicode="%" 
d="M103 202q-6 0 -9 -1v-101q2 -1 9 -1q19 0 25.5 12.5t6.5 39.5t-6.5 39t-25.5 12zM259 165v-25h-41v-39h48v-24h-78v148h78v-25h-48v-35h41zM101 75q-23 0 -36 2v146q26 4 37 4q34 0 48.5 -18.5t14.5 -57.5q0 -40 -15 -58t-49 -18zM293 225h40l19 -82l20 82h41
q1 -21 3.5 -79.5t2.5 -68.5h-30q0 53 -3 106l-20 -84h-28l-21 84h-1q-2 -70 -2 -106h-28q2 85 7 148zM494 75q-30 0 -42.5 18t-12.5 58t12.5 58t42.5 18t42.5 -18t12.5 -58t-12.5 -58t-42.5 -18zM494 202q-25 0 -25 -51q0 -52 25 -52q15 0 20 12t5 40t-5 39.5t-20 11.5z
M483 508q35 0 49.5 -21t14.5 -44q0 -22 -17 -36t-36 -17q-106 -11 -170 -74q3 8 8.5 21t23 46t35 58t43 46t49.5 21zM142 455q27 0 53.5 -20t44.5 -48t33 -56t22 -48l7 -20q-59 74 -160 74q-25 0 -44 15t-19 38q0 27 16.5 46t46.5 19zM322 607q19 -19 24 -51.5t-1.5 -65.5
t-15.5 -63.5t-18 -49.5l-9 -19q10 96 -62 165q-18 18 -22 41t12 42q19 19 43 20.5t49 -19.5z" />
    <glyph glyph-name="ampersand" unicode="&#x26;" 
d="M103 202q-6 0 -9 -1v-101q2 -1 9 -1q19 0 25.5 12.5t6.5 39.5t-6.5 39t-25.5 12zM259 165v-25h-41v-39h48v-24h-78v148h78v-25h-48v-35h41zM101 75q-23 0 -36 2v146q26 4 37 4q34 0 48.5 -18.5t14.5 -57.5q0 -40 -15 -58t-49 -18zM293 225h40l19 -82l20 82h41
q1 -21 3.5 -79.5t2.5 -68.5h-30q0 53 -3 106l-20 -84h-28l-21 84h-1q-2 -70 -2 -106h-28q2 85 7 148zM494 75q-30 0 -42.5 18t-12.5 58t12.5 58t42.5 18t42.5 -18t12.5 -58t-12.5 -58t-42.5 -18zM494 202q-25 0 -25 -51q0 -52 25 -52q15 0 20 12t5 40t-5 39.5t-20 11.5z
M483 508q35 0 49.5 -21t14.5 -44q0 -22 -17 -36t-36 -17q-106 -11 -170 -74q3 8 8.5 21t23 46t35 58t43 46t49.5 21zM142 455q27 0 53.5 -20t44.5 -48t33 -56t22 -48l7 -20q-59 74 -160 74q-25 0 -44 15t-19 38q0 27 16.5 46t46.5 19zM322 607q19 -19 24 -51.5t-1.5 -65.5
t-15.5 -63.5t-18 -49.5l-9 -19q10 96 -62 165q-18 18 -22 41t12 42q19 19 43 20.5t49 -19.5z" />
    <glyph glyph-name="quotesingle" unicode="'" 
d="M103 202q-6 0 -9 -1v-101q2 -1 9 -1q19 0 25.5 12.5t6.5 39.5t-6.5 39t-25.5 12zM259 165v-25h-41v-39h48v-24h-78v148h78v-25h-48v-35h41zM101 75q-23 0 -36 2v146q26 4 37 4q34 0 48.5 -18.5t14.5 -57.5q0 -40 -15 -58t-49 -18zM293 225h40l19 -82l20 82h41
q1 -21 3.5 -79.5t2.5 -68.5h-30q0 53 -3 106l-20 -84h-28l-21 84h-1q-2 -70 -2 -106h-28q2 85 7 148zM494 75q-30 0 -42.5 18t-12.5 58t12.5 58t42.5 18t42.5 -18t12.5 -58t-12.5 -58t-42.5 -18zM494 202q-25 0 -25 -51q0 -52 25 -52q15 0 20 12t5 40t-5 39.5t-20 11.5z
M483 508q35 0 49.5 -21t14.5 -44q0 -22 -17 -36t-36 -17q-106 -11 -170 -74q3 8 8.5 21t23 46t35 58t43 46t49.5 21zM142 455q27 0 53.5 -20t44.5 -48t33 -56t22 -48l7 -20q-59 74 -160 74q-25 0 -44 15t-19 38q0 27 16.5 46t46.5 19zM322 607q19 -19 24 -51.5t-1.5 -65.5
t-15.5 -63.5t-18 -49.5l-9 -19q10 96 -62 165q-18 18 -22 41t12 42q19 19 43 20.5t49 -19.5z" />
    <glyph glyph-name="parenleft" unicode="(" 
d="M103 202q-6 0 -9 -1v-101q2 -1 9 -1q19 0 25.5 12.5t6.5 39.5t-6.5 39t-25.5 12zM259 165v-25h-41v-39h48v-24h-78v148h78v-25h-48v-35h41zM101 75q-23 0 -36 2v146q26 4 37 4q34 0 48.5 -18.5t14.5 -57.5q0 -40 -15 -58t-49 -18zM293 225h40l19 -82l20 82h41
q1 -21 3.5 -79.5t2.5 -68.5h-30q0 53 -3 106l-20 -84h-28l-21 84h-1q-2 -70 -2 -106h-28q2 85 7 148zM494 75q-30 0 -42.5 18t-12.5 58t12.5 58t42.5 18t42.5 -18t12.5 -58t-12.5 -58t-42.5 -18zM494 202q-25 0 -25 -51q0 -52 25 -52q15 0 20 12t5 40t-5 39.5t-20 11.5z
M483 508q35 0 49.5 -21t14.5 -44q0 -22 -17 -36t-36 -17q-106 -11 -170 -74q3 8 8.5 21t23 46t35 58t43 46t49.5 21zM142 455q27 0 53.5 -20t44.5 -48t33 -56t22 -48l7 -20q-59 74 -160 74q-25 0 -44 15t-19 38q0 27 16.5 46t46.5 19zM322 607q19 -19 24 -51.5t-1.5 -65.5
t-15.5 -63.5t-18 -49.5l-9 -19q10 96 -62 165q-18 18 -22 41t12 42q19 19 43 20.5t49 -19.5z" />
    <glyph glyph-name="parenright" unicode=")" 
d="M103 202q-6 0 -9 -1v-101q2 -1 9 -1q19 0 25.5 12.5t6.5 39.5t-6.5 39t-25.5 12zM259 165v-25h-41v-39h48v-24h-78v148h78v-25h-48v-35h41zM101 75q-23 0 -36 2v146q26 4 37 4q34 0 48.5 -18.5t14.5 -57.5q0 -40 -15 -58t-49 -18zM293 225h40l19 -82l20 82h41
q1 -21 3.5 -79.5t2.5 -68.5h-30q0 53 -3 106l-20 -84h-28l-21 84h-1q-2 -70 -2 -106h-28q2 85 7 148zM494 75q-30 0 -42.5 18t-12.5 58t12.5 58t42.5 18t42.5 -18t12.5 -58t-12.5 -58t-42.5 -18zM494 202q-25 0 -25 -51q0 -52 25 -52q15 0 20 12t5 40t-5 39.5t-20 11.5z
M483 508q35 0 49.5 -21t14.5 -44q0 -22 -17 -36t-36 -17q-106 -11 -170 -74q3 8 8.5 21t23 46t35 58t43 46t49.5 21zM142 455q27 0 53.5 -20t44.5 -48t33 -56t22 -48l7 -20q-59 74 -160 74q-25 0 -44 15t-19 38q0 27 16.5 46t46.5 19zM322 607q19 -19 24 -51.5t-1.5 -65.5
t-15.5 -63.5t-18 -49.5l-9 -19q10 96 -62 165q-18 18 -22 41t12 42q19 19 43 20.5t49 -19.5z" />
    <glyph glyph-name="asterisk" unicode="*" 
d="M103 202q-6 0 -9 -1v-101q2 -1 9 -1q19 0 25.5 12.5t6.5 39.5t-6.5 39t-25.5 12zM259 165v-25h-41v-39h48v-24h-78v148h78v-25h-48v-35h41zM101 75q-23 0 -36 2v146q26 4 37 4q34 0 48.5 -18.5t14.5 -57.5q0 -40 -15 -58t-49 -18zM293 225h40l19 -82l20 82h41
q1 -21 3.5 -79.5t2.5 -68.5h-30q0 53 -3 106l-20 -84h-28l-21 84h-1q-2 -70 -2 -106h-28q2 85 7 148zM494 75q-30 0 -42.5 18t-12.5 58t12.5 58t42.5 18t42.5 -18t12.5 -58t-12.5 -58t-42.5 -18zM494 202q-25 0 -25 -51q0 -52 25 -52q15 0 20 12t5 40t-5 39.5t-20 11.5z
M483 508q35 0 49.5 -21t14.5 -44q0 -22 -17 -36t-36 -17q-106 -11 -170 -74q3 8 8.5 21t23 46t35 58t43 46t49.5 21zM142 455q27 0 53.5 -20t44.5 -48t33 -56t22 -48l7 -20q-59 74 -160 74q-25 0 -44 15t-19 38q0 27 16.5 46t46.5 19zM322 607q19 -19 24 -51.5t-1.5 -65.5
t-15.5 -63.5t-18 -49.5l-9 -19q10 96 -62 165q-18 18 -22 41t12 42q19 19 43 20.5t49 -19.5z" />
    <glyph glyph-name="plus" unicode="+" 
d="M103 202q-6 0 -9 -1v-101q2 -1 9 -1q19 0 25.5 12.5t6.5 39.5t-6.5 39t-25.5 12zM259 165v-25h-41v-39h48v-24h-78v148h78v-25h-48v-35h41zM101 75q-23 0 -36 2v146q26 4 37 4q34 0 48.5 -18.5t14.5 -57.5q0 -40 -15 -58t-49 -18zM293 225h40l19 -82l20 82h41
q1 -21 3.5 -79.5t2.5 -68.5h-30q0 53 -3 106l-20 -84h-28l-21 84h-1q-2 -70 -2 -106h-28q2 85 7 148zM494 75q-30 0 -42.5 18t-12.5 58t12.5 58t42.5 18t42.5 -18t12.5 -58t-12.5 -58t-42.5 -18zM494 202q-25 0 -25 -51q0 -52 25 -52q15 0 20 12t5 40t-5 39.5t-20 11.5z
M483 508q35 0 49.5 -21t14.5 -44q0 -22 -17 -36t-36 -17q-106 -11 -170 -74q3 8 8.5 21t23 46t35 58t43 46t49.5 21zM142 455q27 0 53.5 -20t44.5 -48t33 -56t22 -48l7 -20q-59 74 -160 74q-25 0 -44 15t-19 38q0 27 16.5 46t46.5 19zM322 607q19 -19 24 -51.5t-1.5 -65.5
t-15.5 -63.5t-18 -49.5l-9 -19q10 96 -62 165q-18 18 -22 41t12 42q19 19 43 20.5t49 -19.5z" />
    <glyph glyph-name="comma" unicode="," horiz-adv-x="523" 
d="M253 193q46 0 77.5 -37t31.5 -96q0 -114 -67.5 -201.5t-184.5 -123.5l-6 11q114 37 179.5 120t66.5 203q-9 -35 -35.5 -58.5t-65.5 -23.5q-43 0 -71 29.5t-28 74.5t28.5 73.5t74.5 28.5z" />
    <glyph glyph-name="hyphen" unicode="-" 
d="M103 202q-6 0 -9 -1v-101q2 -1 9 -1q19 0 25.5 12.5t6.5 39.5t-6.5 39t-25.5 12zM259 165v-25h-41v-39h48v-24h-78v148h78v-25h-48v-35h41zM101 75q-23 0 -36 2v146q26 4 37 4q34 0 48.5 -18.5t14.5 -57.5q0 -40 -15 -58t-49 -18zM293 225h40l19 -82l20 82h41
q1 -21 3.5 -79.5t2.5 -68.5h-30q0 53 -3 106l-20 -84h-28l-21 84h-1q-2 -70 -2 -106h-28q2 85 7 148zM494 75q-30 0 -42.5 18t-12.5 58t12.5 58t42.5 18t42.5 -18t12.5 -58t-12.5 -58t-42.5 -18zM494 202q-25 0 -25 -51q0 -52 25 -52q15 0 20 12t5 40t-5 39.5t-20 11.5z
M483 508q35 0 49.5 -21t14.5 -44q0 -22 -17 -36t-36 -17q-106 -11 -170 -74q3 8 8.5 21t23 46t35 58t43 46t49.5 21zM142 455q27 0 53.5 -20t44.5 -48t33 -56t22 -48l7 -20q-59 74 -160 74q-25 0 -44 15t-19 38q0 27 16.5 46t46.5 19zM322 607q19 -19 24 -51.5t-1.5 -65.5
t-15.5 -63.5t-18 -49.5l-9 -19q10 96 -62 165q-18 18 -22 41t12 42q19 19 43 20.5t49 -19.5z" />
    <glyph glyph-name="period" unicode="." horiz-adv-x="523" 
d="M362 91q0 -43 -29.5 -72.5t-70.5 -29.5q-43 0 -72 29.5t-29 72.5t29 72.5t72 29.5q42 0 71 -29.5t29 -72.5z" />
    <glyph glyph-name="slash" unicode="/" 
d="M103 202q-6 0 -9 -1v-101q2 -1 9 -1q19 0 25.5 12.5t6.5 39.5t-6.5 39t-25.5 12zM259 165v-25h-41v-39h48v-24h-78v148h78v-25h-48v-35h41zM101 75q-23 0 -36 2v146q26 4 37 4q34 0 48.5 -18.5t14.5 -57.5q0 -40 -15 -58t-49 -18zM293 225h40l19 -82l20 82h41
q1 -21 3.5 -79.5t2.5 -68.5h-30q0 53 -3 106l-20 -84h-28l-21 84h-1q-2 -70 -2 -106h-28q2 85 7 148zM494 75q-30 0 -42.5 18t-12.5 58t12.5 58t42.5 18t42.5 -18t12.5 -58t-12.5 -58t-42.5 -18zM494 202q-25 0 -25 -51q0 -52 25 -52q15 0 20 12t5 40t-5 39.5t-20 11.5z
M483 508q35 0 49.5 -21t14.5 -44q0 -22 -17 -36t-36 -17q-106 -11 -170 -74q3 8 8.5 21t23 46t35 58t43 46t49.5 21zM142 455q27 0 53.5 -20t44.5 -48t33 -56t22 -48l7 -20q-59 74 -160 74q-25 0 -44 15t-19 38q0 27 16.5 46t46.5 19zM322 607q19 -19 24 -51.5t-1.5 -65.5
t-15.5 -63.5t-18 -49.5l-9 -19q10 96 -62 165q-18 18 -22 41t12 42q19 19 43 20.5t49 -19.5z" />
    <glyph glyph-name="zero" unicode="0" horiz-adv-x="1035" 
d="M519 1075q81 0 159.5 -44.5t137.5 -118.5t95.5 -176.5t36.5 -211.5q0 -143 -61 -271.5t-160.5 -204t-207.5 -75.5q-109 0 -209 75.5t-161.5 204t-61.5 271.5q0 109 36.5 211.5t96.5 176.5t138.5 118.5t160.5 44.5zM760 525q0 537 -243 537q-242 0 -242 -537
q0 -538 242 -538q243 0 243 538z" />
    <glyph glyph-name="one" unicode="1" horiz-adv-x="716" 
d="M72 817l-3 13q226 62 368 244h14v-1061h222v-13h-621v13h229v900q-86 -62 -209 -96z" />
    <glyph glyph-name="two" unicode="2" horiz-adv-x="957" 
d="M835 408l13 -1l-29 -407h-758v15l188 159q82 69 146 134t122.5 143t90 162.5t31.5 168.5q0 119 -68.5 189.5t-190.5 70.5t-197 -68t-77 -163q9 32 35 54t62 22q42 0 70.5 -29t28.5 -71q0 -41 -28 -69.5t-71 -28.5q-47 0 -77.5 34.5t-30.5 92.5q0 106 97.5 182.5
t254.5 76.5q163 0 271 -83.5t108 -230.5q0 -62 -20 -114t-52.5 -90.5t-88.5 -84t-111.5 -83t-139.5 -100t-155 -123.5h395q56 0 86 7t51.5 34.5t29.5 72t14 128.5z" />
    <glyph glyph-name="three" unicode="3" horiz-adv-x="923" 
d="M621 774q0 130 -69 203.5t-187 73.5q-114 0 -187.5 -65.5t-73.5 -159.5q7 32 33 55t65 23q44 0 70.5 -29t26.5 -70t-28 -69.5t-71 -28.5q-47 0 -77.5 34t-30.5 92q0 98 87 170t241 72q161 0 274.5 -80t113.5 -214q0 -78 -42 -143t-112 -107.5t-149.5 -68.5t-164.5 -35v-2
q74 -4 140.5 -16.5t133 -39t114 -64.5t77.5 -97.5t30 -133.5q0 -110 -62.5 -196.5t-160.5 -130.5t-211 -44q-155 0 -245 79t-90 180q0 56 27.5 89.5t75.5 33.5q45 0 73.5 -28.5t28.5 -71.5q0 -44 -28.5 -71t-67.5 -27q-38 0 -64.5 23t-31.5 51q0 -92 80.5 -164t199.5 -72
q127 0 207.5 91.5t80.5 249.5q0 169 -100 261t-284 90v13q175 5 266.5 101.5t91.5 242.5z" />
    <glyph glyph-name="four" unicode="4" 
d="M103 202q-6 0 -9 -1v-101q2 -1 9 -1q19 0 25.5 12.5t6.5 39.5t-6.5 39t-25.5 12zM259 165v-25h-41v-39h48v-24h-78v148h78v-25h-48v-35h41zM101 75q-23 0 -36 2v146q26 4 37 4q34 0 48.5 -18.5t14.5 -57.5q0 -40 -15 -58t-49 -18zM293 225h40l19 -82l20 82h41
q1 -21 3.5 -79.5t2.5 -68.5h-30q0 53 -3 106l-20 -84h-28l-21 84h-1q-2 -70 -2 -106h-28q2 85 7 148zM494 75q-30 0 -42.5 18t-12.5 58t12.5 58t42.5 18t42.5 -18t12.5 -58t-12.5 -58t-42.5 -18zM494 202q-25 0 -25 -51q0 -52 25 -52q15 0 20 12t5 40t-5 39.5t-20 11.5z
M483 508q35 0 49.5 -21t14.5 -44q0 -22 -17 -36t-36 -17q-106 -11 -170 -74q3 8 8.5 21t23 46t35 58t43 46t49.5 21zM142 455q27 0 53.5 -20t44.5 -48t33 -56t22 -48l7 -20q-59 74 -160 74q-25 0 -44 15t-19 38q0 27 16.5 46t46.5 19zM322 607q19 -19 24 -51.5t-1.5 -65.5
t-15.5 -63.5t-18 -49.5l-9 -19q10 96 -62 165q-18 18 -22 41t12 42q19 19 43 20.5t49 -19.5z" />
    <glyph glyph-name="five" unicode="5" horiz-adv-x="967" 
d="M459 537q181 0 302 -111t121 -284q0 -183 -136 -311t-329 -128q-159 0 -257 83.5t-98 195.5q0 58 29 91t75 33q44 0 73.5 -28.5t29.5 -71.5q0 -41 -27 -70t-70 -29q-38 0 -64.5 23t-33.5 58q1 -105 80 -179t208 -74q160 0 245.5 113t85.5 291q0 169 -72.5 269.5
t-208.5 100.5q-57 0 -107.5 -16.5t-84.5 -42.5t-55 -48.5t-34 -44.5l-13 3l103 697h539q51 0 67.5 16.5t18.5 66.5h12q-1 -76 -15.5 -125.5t-46 -76t-71.5 -37t-100 -10.5h-415l-75 -509q42 61 122.5 108t201.5 47z" />
    <glyph glyph-name="six" unicode="6" horiz-adv-x="1074" 
d="M842 1412l3 -12q-137 -31 -236 -92.5t-163.5 -155.5t-101 -211t-54.5 -274q29 78 97 131.5t182 53.5q169 0 290.5 -126t121.5 -303q0 -82 -28.5 -161t-81.5 -144t-138 -105t-187 -40q-114 0 -203.5 49.5t-142.5 131t-80.5 178t-27.5 198.5q0 130 43.5 255t117.5 226
t170 184.5t203.5 138.5t215.5 78zM534 831q-93 0 -156.5 -57t-87.5 -138q-4 -52 -4 -123q0 -211 44 -342q63 -184 214 -184q70 0 120.5 35.5t77.5 96.5t39 130.5t12 150.5q0 198 -67.5 314.5t-191.5 116.5z" />
    <glyph glyph-name="seven" unicode="7" horiz-adv-x="1016" 
d="M964 1057l5 -13l-326 -460q-184 -259 -184 -485q0 -67 15 -147t15 -113q0 -64 -27 -100t-77 -36t-75 34.5t-25 94.5q0 128 98 338t251 423l211 298h-598q-45 0 -68 -4t-44.5 -21.5t-33 -51.5t-20.5 -94l-13 2l31 175q17 93 67 126.5t149 33.5h649z" />
    <glyph glyph-name="eight" unicode="8" horiz-adv-x="1034" 
d="M629 736q54 -29 93 -53.5t83.5 -61t72.5 -74t46.5 -88t18.5 -107.5q0 -112 -62 -200t-159 -133.5t-209 -45.5t-209 47t-155 129.5t-58 180.5q0 107 74 190.5t222 134.5q-78 46 -128.5 91t-84.5 110t-34 143q0 81 33.5 148t89 109.5t124 66t140.5 23.5q150 0 259.5 -89.5
t109.5 -221.5q0 -59 -24.5 -111t-64.5 -88t-85 -61t-93 -39zM266 1115q0 -98 67.5 -178.5t241.5 -172.5l39 -21q67 27 108.5 103.5t41.5 175.5q0 133 -73 220.5t-195 87.5q-103 0 -166.5 -61t-63.5 -154zM538 -12q122 0 200.5 75t78.5 189q0 36 -10 68.5t-25 58.5t-42 53
t-51 46.5t-63 43.5t-67 39.5t-74 39.5q-34 17 -85 46q-75 -30 -121.5 -105.5t-46.5 -198.5q0 -158 81 -256.5t225 -98.5z" />
    <glyph glyph-name="nine" unicode="9" horiz-adv-x="1072" 
d="M517 1075q140 0 245.5 -79.5t158 -205t52.5 -275.5q0 -133 -44 -262t-119 -232.5t-171 -186.5t-204.5 -134t-214.5 -66l-2 14q116 18 208 68t153 118t102.5 159t62 184.5t27.5 201.5q-11 -31 -32 -61.5t-53.5 -59.5t-81 -47t-105.5 -18q-168 0 -291 128t-123 305
q0 85 31 165.5t85.5 143.5t137 101.5t178.5 38.5zM514 1062q-66 0 -114 -33t-74.5 -93t-38.5 -132t-12 -161q0 -128 25.5 -222t83 -151t142.5 -57q93 0 159 61t87 144q5 58 5 118q0 178 -33 303q-59 223 -230 223z" />
    <glyph glyph-name="colon" unicode=":" horiz-adv-x="523" 
d="M362 799q0 -43 -29.5 -73t-70.5 -30q-43 0 -72 30t-29 73t29 72t72 29q42 0 71 -29t29 -72zM362 91q0 -43 -29.5 -72.5t-70.5 -29.5q-43 0 -72 29.5t-29 72.5t29 72.5t72 29.5q42 0 71 -29.5t29 -72.5z" />
    <glyph glyph-name="semicolon" unicode=";" horiz-adv-x="523" 
d="M349 799q0 -43 -29.5 -73t-70.5 -30q-43 0 -72.5 30t-29.5 73t29.5 72t72.5 29q42 0 71 -29t29 -72zM253 193q46 0 77.5 -37t31.5 -96q0 -114 -67.5 -201.5t-184.5 -123.5l-6 11q114 37 179.5 120t66.5 203q-9 -35 -35.5 -58.5t-65.5 -23.5q-43 0 -71 29.5t-28 74.5
t28.5 73.5t74.5 28.5z" />
    <glyph glyph-name="less" unicode="&#x3c;" 
d="M103 202q-6 0 -9 -1v-101q2 -1 9 -1q19 0 25.5 12.5t6.5 39.5t-6.5 39t-25.5 12zM259 165v-25h-41v-39h48v-24h-78v148h78v-25h-48v-35h41zM101 75q-23 0 -36 2v146q26 4 37 4q34 0 48.5 -18.5t14.5 -57.5q0 -40 -15 -58t-49 -18zM293 225h40l19 -82l20 82h41
q1 -21 3.5 -79.5t2.5 -68.5h-30q0 53 -3 106l-20 -84h-28l-21 84h-1q-2 -70 -2 -106h-28q2 85 7 148zM494 75q-30 0 -42.5 18t-12.5 58t12.5 58t42.5 18t42.5 -18t12.5 -58t-12.5 -58t-42.5 -18zM494 202q-25 0 -25 -51q0 -52 25 -52q15 0 20 12t5 40t-5 39.5t-20 11.5z
M483 508q35 0 49.5 -21t14.5 -44q0 -22 -17 -36t-36 -17q-106 -11 -170 -74q3 8 8.5 21t23 46t35 58t43 46t49.5 21zM142 455q27 0 53.5 -20t44.5 -48t33 -56t22 -48l7 -20q-59 74 -160 74q-25 0 -44 15t-19 38q0 27 16.5 46t46.5 19zM322 607q19 -19 24 -51.5t-1.5 -65.5
t-15.5 -63.5t-18 -49.5l-9 -19q10 96 -62 165q-18 18 -22 41t12 42q19 19 43 20.5t49 -19.5z" />
    <glyph glyph-name="equal" unicode="=" 
d="M103 202q-6 0 -9 -1v-101q2 -1 9 -1q19 0 25.5 12.5t6.5 39.5t-6.5 39t-25.5 12zM259 165v-25h-41v-39h48v-24h-78v148h78v-25h-48v-35h41zM101 75q-23 0 -36 2v146q26 4 37 4q34 0 48.5 -18.5t14.5 -57.5q0 -40 -15 -58t-49 -18zM293 225h40l19 -82l20 82h41
q1 -21 3.5 -79.5t2.5 -68.5h-30q0 53 -3 106l-20 -84h-28l-21 84h-1q-2 -70 -2 -106h-28q2 85 7 148zM494 75q-30 0 -42.5 18t-12.5 58t12.5 58t42.5 18t42.5 -18t12.5 -58t-12.5 -58t-42.5 -18zM494 202q-25 0 -25 -51q0 -52 25 -52q15 0 20 12t5 40t-5 39.5t-20 11.5z
M483 508q35 0 49.5 -21t14.5 -44q0 -22 -17 -36t-36 -17q-106 -11 -170 -74q3 8 8.5 21t23 46t35 58t43 46t49.5 21zM142 455q27 0 53.5 -20t44.5 -48t33 -56t22 -48l7 -20q-59 74 -160 74q-25 0 -44 15t-19 38q0 27 16.5 46t46.5 19zM322 607q19 -19 24 -51.5t-1.5 -65.5
t-15.5 -63.5t-18 -49.5l-9 -19q10 96 -62 165q-18 18 -22 41t12 42q19 19 43 20.5t49 -19.5z" />
    <glyph glyph-name="greater" unicode="&#x3e;" 
d="M103 202q-6 0 -9 -1v-101q2 -1 9 -1q19 0 25.5 12.5t6.5 39.5t-6.5 39t-25.5 12zM259 165v-25h-41v-39h48v-24h-78v148h78v-25h-48v-35h41zM101 75q-23 0 -36 2v146q26 4 37 4q34 0 48.5 -18.5t14.5 -57.5q0 -40 -15 -58t-49 -18zM293 225h40l19 -82l20 82h41
q1 -21 3.5 -79.5t2.5 -68.5h-30q0 53 -3 106l-20 -84h-28l-21 84h-1q-2 -70 -2 -106h-28q2 85 7 148zM494 75q-30 0 -42.5 18t-12.5 58t12.5 58t42.5 18t42.5 -18t12.5 -58t-12.5 -58t-42.5 -18zM494 202q-25 0 -25 -51q0 -52 25 -52q15 0 20 12t5 40t-5 39.5t-20 11.5z
M483 508q35 0 49.5 -21t14.5 -44q0 -22 -17 -36t-36 -17q-106 -11 -170 -74q3 8 8.5 21t23 46t35 58t43 46t49.5 21zM142 455q27 0 53.5 -20t44.5 -48t33 -56t22 -48l7 -20q-59 74 -160 74q-25 0 -44 15t-19 38q0 27 16.5 46t46.5 19zM322 607q19 -19 24 -51.5t-1.5 -65.5
t-15.5 -63.5t-18 -49.5l-9 -19q10 96 -62 165q-18 18 -22 41t12 42q19 19 43 20.5t49 -19.5z" />
    <glyph glyph-name="question" unicode="?" horiz-adv-x="1004" 
d="M455 341l-13 -1q-8 44 -8 92q0 85 30 157t88 152q142 194 142 415q0 127 -74.5 206.5t-212.5 79.5q-114 0 -194.5 -70.5t-82.5 -175.5q11 31 37.5 53.5t64.5 22.5q45 0 75 -30.5t30 -73.5q0 -44 -31.5 -73.5t-78.5 -29.5q-49 0 -78.5 34.5t-29.5 95.5q0 117 98.5 198
t262.5 81q183 0 304 -100.5t121 -257.5q0 -53 -15.5 -101t-38 -83t-62 -72.5t-71.5 -62t-83 -59.5q-102 -70 -145 -144t-43 -165q0 -38 8 -88zM573 91q0 -43 -29.5 -72.5t-70.5 -29.5q-43 0 -72 29.5t-29 72.5t29 72.5t72 29.5q42 0 71 -29.5t29 -72.5z" />
    <glyph glyph-name="at" unicode="@" 
d="M103 202q-6 0 -9 -1v-101q2 -1 9 -1q19 0 25.5 12.5t6.5 39.5t-6.5 39t-25.5 12zM259 165v-25h-41v-39h48v-24h-78v148h78v-25h-48v-35h41zM101 75q-23 0 -36 2v146q26 4 37 4q34 0 48.5 -18.5t14.5 -57.5q0 -40 -15 -58t-49 -18zM293 225h40l19 -82l20 82h41
q1 -21 3.5 -79.5t2.5 -68.5h-30q0 53 -3 106l-20 -84h-28l-21 84h-1q-2 -70 -2 -106h-28q2 85 7 148zM494 75q-30 0 -42.5 18t-12.5 58t12.5 58t42.5 18t42.5 -18t12.5 -58t-12.5 -58t-42.5 -18zM494 202q-25 0 -25 -51q0 -52 25 -52q15 0 20 12t5 40t-5 39.5t-20 11.5z
M483 508q35 0 49.5 -21t14.5 -44q0 -22 -17 -36t-36 -17q-106 -11 -170 -74q3 8 8.5 21t23 46t35 58t43 46t49.5 21zM142 455q27 0 53.5 -20t44.5 -48t33 -56t22 -48l7 -20q-59 74 -160 74q-25 0 -44 15t-19 38q0 27 16.5 46t46.5 19zM322 607q19 -19 24 -51.5t-1.5 -65.5
t-15.5 -63.5t-18 -49.5l-9 -19q10 96 -62 165q-18 18 -22 41t12 42q19 19 43 20.5t49 -19.5z" />
    <glyph glyph-name="A" unicode="A" horiz-adv-x="1399" 
d="M707 1460l535 -1447h143v-13h-524v13h161l-187 513h-454q-77 -227 -77 -345q0 -52 13.5 -87t39.5 -52t53.5 -23t66.5 -6h12v-13h-475v13h2q51 0 86.5 14.5t71.5 56.5t69.5 115t75.5 193l375 1068h13zM602 1160l-217 -620h444z" />
    <glyph glyph-name="B" unicode="B" horiz-adv-x="1284" 
d="M66 1434h557q236 0 378 -89t142 -247q0 -42 -10.5 -81.5t-42 -83.5t-80.5 -77.5t-133.5 -58t-194.5 -31.5l1 -1l-1 -1q256 -7 392.5 -108.5t136.5 -279.5q0 -97 -40.5 -170.5t-112.5 -117.5t-164 -66t-202 -22h-626v13h184v1407h-184v14zM452 769h75q161 0 234 26
q173 61 173 302q0 98 -24.5 164t-71.5 99.5t-100 46.5t-124 13h-162v-651zM452 13h206q57 0 101.5 8t89.5 31.5t75 63t48.5 106.5t18.5 158q0 66 -11 120t-39.5 108t-87 90.5t-144.5 50.5q-45 7 -152 7h-105v-743z" />
    <glyph glyph-name="C" unicode="C" horiz-adv-x="1382" 
d="M1237 956h-13q-6 109 -39.5 197t-81.5 144t-109.5 93.5t-121 53t-118.5 15.5q-90 0 -163.5 -39.5t-123 -108t-83 -163.5t-48.5 -203.5t-15 -230.5q0 -112 12.5 -213t44.5 -199t80.5 -169t125 -114.5t174.5 -43.5q96 0 181 45.5t143.5 120t96.5 166t49 188.5h14l-21 -534
h-11q-12 58 -52 99.5t-87 48.5q-138 -148 -323 -148q-111 0 -214 44.5t-180.5 120.5t-136 173.5t-88.5 207t-30 216.5q0 138 50.5 273.5t135 240.5t206 170.5t253.5 65.5q182 0 314 -116q59 2 101.5 37t51.5 79h12z" />
    <glyph glyph-name="D" unicode="D" horiz-adv-x="1550" 
d="M66 1434h593q187 0 338 -59t246.5 -160t146.5 -231t51 -277q0 -105 -26 -205t-83 -191.5t-140 -160t-205.5 -109.5t-270.5 -41h-650v13h184v1407h-184v14zM666 1420h-214v-1407h266q91 0 165 21.5t125 58t90 90.5t61.5 111t36.5 128.5t19 135t5 137.5q0 81 -6 152.5
t-23 146.5t-43.5 136t-69.5 116.5t-99.5 92.5t-136 59t-176.5 22z" />
    <glyph glyph-name="E" unicode="E" horiz-adv-x="1284" 
d="M1143 400l5 103h13l-24 -503h-1071v13h184v1407h-184v14h1063l17 -479h-13l-6 93q-4 85 -25.5 149t-67 116t-125.5 79.5t-192 27.5h-265v-695h86q81 0 127 11q70 17 109.5 90t43.5 172h12v-559h-12q-9 230 -148 263q-47 11 -132 11h-86v-700h264q211 0 314 98.5
t113 288.5z" />
    <glyph glyph-name="F" unicode="F" horiz-adv-x="1186" 
d="M658 13v-13h-592v13h184v1407h-184v14h1038l15 -479h-12l-5 92q-4 64 -15.5 114.5t-40 100.5t-73 83.5t-116 54t-166.5 20.5h-239v-709h78q86 0 127 10q70 17 110 90.5t44 172.5h13v-560h-13q-9 230 -148 263q-43 10 -133 10h-78v-684h206z" />
    <glyph glyph-name="G" unicode="G" horiz-adv-x="1509" 
d="M884 540h581v-14h-177v-447q-77 0 -149.5 -18.5t-120.5 -40.5t-119.5 -40.5t-146.5 -18.5q-116 0 -221 45.5t-182.5 122t-134.5 174.5t-86 207t-29 215q0 139 51 274t137 240t208.5 169.5t256.5 64.5q179 0 313 -116q61 3 103 37.5t51 78.5h11l14 -517h-13
q-7 109 -40.5 197t-81.5 144t-109.5 93.5t-121 53t-118.5 15.5q-94 0 -169 -40.5t-124.5 -109t-83 -164t-48 -201.5t-14.5 -226q0 -114 13 -216.5t45.5 -200.5t81.5 -169t127 -114.5t176 -43.5q135 0 219 73.5t104 172.5v306h-203v14z" />
    <glyph glyph-name="H" unicode="H" horiz-adv-x="1576" 
d="M1511 1434v-14h-184v-1407h184v-13h-570v13h184v699h-673v-699h184v-13h-570v13h184v1407h-184v14h570v-14h-184v-695h673v695h-184v14h570z" />
    <glyph glyph-name="I" unicode="I" horiz-adv-x="701" 
d="M636 1420h-184v-1407h184v-13h-570v13h184v1407h-184v14h570v-14z" />
    <glyph glyph-name="J" unicode="J" horiz-adv-x="897" 
d="M266 1420v14h572v-14h-186v-1040q0 -149 -24.5 -270.5t-73.5 -213.5t-129 -142.5t-186 -50.5q-125 0 -188.5 63.5t-63.5 140.5q0 55 32.5 93t85.5 38q48 0 81.5 -33t33.5 -85q0 -50 -32.5 -80t-77.5 -30t-73.5 28t-36.5 64q1 -67 60.5 -126.5t175.5 -59.5q117 0 189 68
t72 211q0 115 -45 278v1147h-186z" />
    <glyph glyph-name="K" unicode="K" horiz-adv-x="1577" 
d="M842 920l555 -907h157v-13h-555v13h161l-465 753l-243 -253v-500h184v-13h-570v13h184v1407h-184v14h570v-14h-184v-886l494 514q95 99 138 165t43 117q0 90 -104 90h-17v14h510v-14h-7q-104 0 -231 -89t-337 -308z" />
    <glyph glyph-name="L" unicode="L" horiz-adv-x="1258" 
d="M1148 400l6 104l13 -1l-24 -503h-1077v13h184v1407h-184v14h570v-14h-184v-1407h269q211 0 314 98.5t113 288.5z" />
    <glyph glyph-name="M" unicode="M" horiz-adv-x="1793" 
d="M1727 1434v-14h-184v-1407h184v-13h-570v13h184v1397l-494 -1410h-19l-528 1401v-967q0 -226 50 -323.5t169 -97.5h15v-13h-487v13h14q117 0 171 99.5t54 321.5v986h-195v14h415l429 -1132l399 1132h393z" />
    <glyph glyph-name="N" unicode="N" horiz-adv-x="1599" 
d="M1068 1420v14h485v-14h-15q-117 0 -169.5 -98.5t-52.5 -321.5v-1000h-19l-998 1354v-921q0 -225 50.5 -322.5t169.5 -97.5h15v-13h-487v13h14q116 0 170 99.5t54 320.5v940l-35 47h-149v14h395l806 -1097v663q0 223 -51.5 321.5t-168.5 98.5h-14z" />
    <glyph glyph-name="O" unicode="O" horiz-adv-x="1547" 
d="M774 1473q123 0 232 -43.5t188.5 -118t137.5 -171t87 -205t29 -218.5t-29 -218.5t-87 -205t-137.5 -171t-188.5 -118t-232 -43.5t-232 43.5t-189 118t-138 171t-87 205t-29 218.5t29 218.5t87 205t138 171t189 118t232 43.5zM1227 717q0 114 -12.5 215.5t-45 200t-82 169
t-130 114t-183.5 43.5t-183.5 -43.5t-130 -114t-82 -169t-45 -200t-12.5 -215.5t12.5 -215.5t45 -200.5t82 -169.5t130 -114t183.5 -43.5t183.5 43.5t130 114t82 169.5t45 200.5t12.5 215.5z" />
    <glyph glyph-name="P" unicode="P" horiz-adv-x="1258" 
d="M66 1434h558q259 0 414 -116.5t155 -310.5q0 -80 -29.5 -151.5t-90 -132t-166.5 -96t-245 -35.5q-126 0 -210 31v-610h204v-13h-590v13h184v1407h-184v14zM630 607q80 0 141 22.5t98.5 59.5t61 91t32 110t8.5 124q0 206 -109 306t-304 100h-106v-782q77 -31 178 -31z" />
    <glyph glyph-name="Q" unicode="Q" horiz-adv-x="1547" 
d="M1494 -95l13 -1q-7 -144 -69.5 -217t-165.5 -73q-61 0 -112.5 25.5t-96 77.5t-79.5 110.5t-77 145.5l-1 1q-68 -13 -132 -13q-123 0 -232 43.5t-189 118t-138 171t-87 205t-29 218.5t29 218.5t87 205t138 171t189 118t232 43.5t232 -43.5t188.5 -118t137.5 -171t87 -205
t29 -218.5q0 -199 -93 -383t-256 -283q25 -48 52 -116q5 -13 17.5 -44.5t18.5 -45l18 -40.5t19.5 -40.5t20 -33.5t23 -30t24 -21t28 -15.5t30.5 -4.5q62 0 100.5 70t43.5 175zM321 717q0 -218 50 -395t164 -268q36 117 102 170.5t149 53.5q169 0 281 -173q160 189 160 612
q0 114 -12.5 215.5t-45 200t-82 169t-130 114t-183.5 43.5t-183.5 -43.5t-130 -114t-82 -169t-45 -200t-12.5 -215.5zM774 -26q63 0 124 18q-68 140 -95 177q-45 60 -98 61q-51 0 -92.5 -49.5t-67.5 -134.5q96 -72 229 -72z" />
    <glyph glyph-name="R" unicode="R" horiz-adv-x="1361" 
d="M1339 225l14 -1q-7 -123 -49.5 -187t-129.5 -64q-109 0 -162 89.5t-77 299.5q-6 55 -10.5 90t-14 72t-16 57.5t-25 43t-31.5 32.5t-45.5 22t-57 15.5t-75.5 8.5t-92.5 6.5t-115.5 3.5v-700h184v-13h-570v13h184v1407h-184v14h581q232 0 366.5 -98.5t134.5 -266.5
q0 -76 -31 -136.5t-80.5 -98t-118 -64t-134.5 -38.5t-140 -16v-1q107 -6 183.5 -19.5t133 -39.5t91.5 -59t57 -86.5t31 -114.5t12 -150q1 -42 3 -67.5t5 -56t8.5 -48t14 -33.5t21 -23t29.5 -7q43 0 71.5 57.5t34.5 156.5zM452 1420v-694q72 -2 121 -2q132 0 206 31
q148 60 148 304q0 177 -81.5 269t-266.5 92h-127z" />
    <glyph glyph-name="S" unicode="S" horiz-adv-x="1199" 
d="M540 1459q-136 0 -216 -68t-80 -182q0 -40 9.5 -73t34 -62.5t51 -52t76.5 -50t92 -48t116 -53.5t122 -56t103.5 -54t89.5 -57t68 -61t52 -71t29.5 -82t11.5 -99q0 -194 -129 -311.5t-326 -117.5q-195 0 -340 127q-55 -2 -98.5 -36.5t-54.5 -88.5h-12l-22 540l13 1
q5 -118 48.5 -218.5t112.5 -168t158 -105.5t187 -38q152 0 249.5 86.5t97.5 223.5q0 39 -9 72t-23.5 59.5t-44.5 52.5t-59.5 46t-83 46t-100 46t-123.5 52q-79 32 -134.5 60t-108.5 65.5t-84 78.5t-50 96.5t-19 122.5q0 172 113.5 282t286.5 110q174 0 305 -112
q61 -1 105 32.5t54 79.5h10l16 -523h-12q-4 133 -61 247.5t-167.5 188t-253.5 73.5z" />
    <glyph glyph-name="T" unicode="T" horiz-adv-x="1377" 
d="M85 1434h1206l18 -477h-14l-5 90q-5 86 -26.5 150.5t-66.5 116.5t-124 79t-190 27h-95v-1407h186v-13h-572v13h186v1407h-94q-93 0 -164 -20t-115 -53.5t-72.5 -83t-40.5 -101t-16 -115.5l-5 -90h-12z" />
    <glyph glyph-name="U" unicode="U" horiz-adv-x="1530" 
d="M1006 1434h486v-14h-15q-112 0 -167.5 -100.5t-55.5 -319.5v-478q0 -154 -34 -263.5t-101 -174t-157 -94t-211 -29.5q-510 0 -510 520v939h-186v14h571v-14h-185v-962q0 -246 84 -359.5t275 -113.5q440 0 440 537v478q0 222 -51.5 321t-165.5 99h-17v14z" />
    <glyph glyph-name="V" unicode="V" horiz-adv-x="1423" 
d="M929 1420v14h480v-14h-6q-103 0 -179 -111t-193 -425l-335 -898h-13l-525 1434h-144v14h532v-14h-173l417 -1145l232 625q76 202 76 332q0 95 -41 141.5t-114 46.5h-14z" />
    <glyph glyph-name="W" unicode="W" horiz-adv-x="2027" 
d="M1532 1420v14h481v-14h-5q-112 0 -187.5 -117t-172.5 -417l-290 -900h-13l-361 1089l-346 -1089h-13l-473 1434h-144v14h530v-14h-174l363 -1109l251 786l-108 323h-141v14h527v-14h-174l366 -1111l190 594q66 207 66 328q0 189 -159 189h-13z" />
    <glyph glyph-name="X" unicode="X" horiz-adv-x="1412" 
d="M774 809l467 -796h144v-13h-541v13h173l-380 642l-147 -226q-126 -194 -126 -302q0 -53 33 -83.5t101 -30.5h12v-13h-485v13h4q89 0 199.5 104t252.5 323l148 228l-446 752h-144v14h548v-14h-172l352 -599l115 183q123 195 123 304q0 57 -30 84.5t-99 27.5h-8v14h481v-14
h-6q-95 0 -195.5 -90.5t-246.5 -320.5z" />
    <glyph glyph-name="Y" unicode="Y" horiz-adv-x="1427" 
d="M1412 1434v-14h-7q-175 0 -403 -402l-212 -375v-630h185v-13h-572v13h186v593l-431 814h-144v14h531v-14h-166l403 -764l194 343q111 196 111 310q0 111 -142 111h-13v14h480z" />
    <glyph glyph-name="Z" unicode="Z" horiz-adv-x="1260" 
d="M1127 398l8 105h12l-35 -503h-1030l-5 13l851 1407h-383q-195 0 -288.5 -84t-106.5 -263l-10 -118h-13l35 479h998l4 -14l-852 -1407h389q110 0 191 27.5t130 80.5t74 120.5t31 156.5z" />
    <glyph glyph-name="bracketleft" unicode="[" 
d="M103 202q-6 0 -9 -1v-101q2 -1 9 -1q19 0 25.5 12.5t6.5 39.5t-6.5 39t-25.5 12zM259 165v-25h-41v-39h48v-24h-78v148h78v-25h-48v-35h41zM101 75q-23 0 -36 2v146q26 4 37 4q34 0 48.5 -18.5t14.5 -57.5q0 -40 -15 -58t-49 -18zM293 225h40l19 -82l20 82h41
q1 -21 3.5 -79.5t2.5 -68.5h-30q0 53 -3 106l-20 -84h-28l-21 84h-1q-2 -70 -2 -106h-28q2 85 7 148zM494 75q-30 0 -42.5 18t-12.5 58t12.5 58t42.5 18t42.5 -18t12.5 -58t-12.5 -58t-42.5 -18zM494 202q-25 0 -25 -51q0 -52 25 -52q15 0 20 12t5 40t-5 39.5t-20 11.5z
M483 508q35 0 49.5 -21t14.5 -44q0 -22 -17 -36t-36 -17q-106 -11 -170 -74q3 8 8.5 21t23 46t35 58t43 46t49.5 21zM142 455q27 0 53.5 -20t44.5 -48t33 -56t22 -48l7 -20q-59 74 -160 74q-25 0 -44 15t-19 38q0 27 16.5 46t46.5 19zM322 607q19 -19 24 -51.5t-1.5 -65.5
t-15.5 -63.5t-18 -49.5l-9 -19q10 96 -62 165q-18 18 -22 41t12 42q19 19 43 20.5t49 -19.5z" />
    <glyph glyph-name="backslash" unicode="\" 
d="M103 202q-6 0 -9 -1v-101q2 -1 9 -1q19 0 25.5 12.5t6.5 39.5t-6.5 39t-25.5 12zM259 165v-25h-41v-39h48v-24h-78v148h78v-25h-48v-35h41zM101 75q-23 0 -36 2v146q26 4 37 4q34 0 48.5 -18.5t14.5 -57.5q0 -40 -15 -58t-49 -18zM293 225h40l19 -82l20 82h41
q1 -21 3.5 -79.5t2.5 -68.5h-30q0 53 -3 106l-20 -84h-28l-21 84h-1q-2 -70 -2 -106h-28q2 85 7 148zM494 75q-30 0 -42.5 18t-12.5 58t12.5 58t42.5 18t42.5 -18t12.5 -58t-12.5 -58t-42.5 -18zM494 202q-25 0 -25 -51q0 -52 25 -52q15 0 20 12t5 40t-5 39.5t-20 11.5z
M483 508q35 0 49.5 -21t14.5 -44q0 -22 -17 -36t-36 -17q-106 -11 -170 -74q3 8 8.5 21t23 46t35 58t43 46t49.5 21zM142 455q27 0 53.5 -20t44.5 -48t33 -56t22 -48l7 -20q-59 74 -160 74q-25 0 -44 15t-19 38q0 27 16.5 46t46.5 19zM322 607q19 -19 24 -51.5t-1.5 -65.5
t-15.5 -63.5t-18 -49.5l-9 -19q10 96 -62 165q-18 18 -22 41t12 42q19 19 43 20.5t49 -19.5z" />
    <glyph glyph-name="bracketright" unicode="]" 
d="M103 202q-6 0 -9 -1v-101q2 -1 9 -1q19 0 25.5 12.5t6.5 39.5t-6.5 39t-25.5 12zM259 165v-25h-41v-39h48v-24h-78v148h78v-25h-48v-35h41zM101 75q-23 0 -36 2v146q26 4 37 4q34 0 48.5 -18.5t14.5 -57.5q0 -40 -15 -58t-49 -18zM293 225h40l19 -82l20 82h41
q1 -21 3.5 -79.5t2.5 -68.5h-30q0 53 -3 106l-20 -84h-28l-21 84h-1q-2 -70 -2 -106h-28q2 85 7 148zM494 75q-30 0 -42.5 18t-12.5 58t12.5 58t42.5 18t42.5 -18t12.5 -58t-12.5 -58t-42.5 -18zM494 202q-25 0 -25 -51q0 -52 25 -52q15 0 20 12t5 40t-5 39.5t-20 11.5z
M483 508q35 0 49.5 -21t14.5 -44q0 -22 -17 -36t-36 -17q-106 -11 -170 -74q3 8 8.5 21t23 46t35 58t43 46t49.5 21zM142 455q27 0 53.5 -20t44.5 -48t33 -56t22 -48l7 -20q-59 74 -160 74q-25 0 -44 15t-19 38q0 27 16.5 46t46.5 19zM322 607q19 -19 24 -51.5t-1.5 -65.5
t-15.5 -63.5t-18 -49.5l-9 -19q10 96 -62 165q-18 18 -22 41t12 42q19 19 43 20.5t49 -19.5z" />
    <glyph glyph-name="asciicircum" unicode="^" 
d="M103 202q-6 0 -9 -1v-101q2 -1 9 -1q19 0 25.5 12.5t6.5 39.5t-6.5 39t-25.5 12zM259 165v-25h-41v-39h48v-24h-78v148h78v-25h-48v-35h41zM101 75q-23 0 -36 2v146q26 4 37 4q34 0 48.5 -18.5t14.5 -57.5q0 -40 -15 -58t-49 -18zM293 225h40l19 -82l20 82h41
q1 -21 3.5 -79.5t2.5 -68.5h-30q0 53 -3 106l-20 -84h-28l-21 84h-1q-2 -70 -2 -106h-28q2 85 7 148zM494 75q-30 0 -42.5 18t-12.5 58t12.5 58t42.5 18t42.5 -18t12.5 -58t-12.5 -58t-42.5 -18zM494 202q-25 0 -25 -51q0 -52 25 -52q15 0 20 12t5 40t-5 39.5t-20 11.5z
M483 508q35 0 49.5 -21t14.5 -44q0 -22 -17 -36t-36 -17q-106 -11 -170 -74q3 8 8.5 21t23 46t35 58t43 46t49.5 21zM142 455q27 0 53.5 -20t44.5 -48t33 -56t22 -48l7 -20q-59 74 -160 74q-25 0 -44 15t-19 38q0 27 16.5 46t46.5 19zM322 607q19 -19 24 -51.5t-1.5 -65.5
t-15.5 -63.5t-18 -49.5l-9 -19q10 96 -62 165q-18 18 -22 41t12 42q19 19 43 20.5t49 -19.5z" />
    <glyph glyph-name="underscore" unicode="_" 
d="M103 202q-6 0 -9 -1v-101q2 -1 9 -1q19 0 25.5 12.5t6.5 39.5t-6.5 39t-25.5 12zM259 165v-25h-41v-39h48v-24h-78v148h78v-25h-48v-35h41zM101 75q-23 0 -36 2v146q26 4 37 4q34 0 48.5 -18.5t14.5 -57.5q0 -40 -15 -58t-49 -18zM293 225h40l19 -82l20 82h41
q1 -21 3.5 -79.5t2.5 -68.5h-30q0 53 -3 106l-20 -84h-28l-21 84h-1q-2 -70 -2 -106h-28q2 85 7 148zM494 75q-30 0 -42.5 18t-12.5 58t12.5 58t42.5 18t42.5 -18t12.5 -58t-12.5 -58t-42.5 -18zM494 202q-25 0 -25 -51q0 -52 25 -52q15 0 20 12t5 40t-5 39.5t-20 11.5z
M483 508q35 0 49.5 -21t14.5 -44q0 -22 -17 -36t-36 -17q-106 -11 -170 -74q3 8 8.5 21t23 46t35 58t43 46t49.5 21zM142 455q27 0 53.5 -20t44.5 -48t33 -56t22 -48l7 -20q-59 74 -160 74q-25 0 -44 15t-19 38q0 27 16.5 46t46.5 19zM322 607q19 -19 24 -51.5t-1.5 -65.5
t-15.5 -63.5t-18 -49.5l-9 -19q10 96 -62 165q-18 18 -22 41t12 42q19 19 43 20.5t49 -19.5z" />
    <glyph glyph-name="grave" unicode="`" 
d="M103 202q-6 0 -9 -1v-101q2 -1 9 -1q19 0 25.5 12.5t6.5 39.5t-6.5 39t-25.5 12zM259 165v-25h-41v-39h48v-24h-78v148h78v-25h-48v-35h41zM101 75q-23 0 -36 2v146q26 4 37 4q34 0 48.5 -18.5t14.5 -57.5q0 -40 -15 -58t-49 -18zM293 225h40l19 -82l20 82h41
q1 -21 3.5 -79.5t2.5 -68.5h-30q0 53 -3 106l-20 -84h-28l-21 84h-1q-2 -70 -2 -106h-28q2 85 7 148zM494 75q-30 0 -42.5 18t-12.5 58t12.5 58t42.5 18t42.5 -18t12.5 -58t-12.5 -58t-42.5 -18zM494 202q-25 0 -25 -51q0 -52 25 -52q15 0 20 12t5 40t-5 39.5t-20 11.5z
M483 508q35 0 49.5 -21t14.5 -44q0 -22 -17 -36t-36 -17q-106 -11 -170 -74q3 8 8.5 21t23 46t35 58t43 46t49.5 21zM142 455q27 0 53.5 -20t44.5 -48t33 -56t22 -48l7 -20q-59 74 -160 74q-25 0 -44 15t-19 38q0 27 16.5 46t46.5 19zM322 607q19 -19 24 -51.5t-1.5 -65.5
t-15.5 -63.5t-18 -49.5l-9 -19q10 96 -62 165q-18 18 -22 41t12 42q19 19 43 20.5t49 -19.5z" />
    <glyph glyph-name="a" unicode="a" horiz-adv-x="969" 
d="M944 91l10 -8q-57 -110 -170 -110q-73 0 -112 47t-42 125q-28 -70 -107 -121t-176 -51q-49 0 -97.5 13.5t-92.5 41.5t-71 77.5t-27 113.5q0 90 57 136.5t189 83.5q44 12 71.5 20.5t66.5 23.5t63 29.5t51 36.5t42.5 46.5t25.5 58t10 73.5q0 101 -59.5 162.5t-178.5 61.5
t-189.5 -56.5t-70.5 -132.5q7 34 30.5 56.5t61.5 22.5q41 0 68 -29t27 -69q0 -39 -26.5 -67.5t-68.5 -28.5q-43 0 -73.5 31t-30.5 84q0 90 83.5 149t219.5 59q175 0 273.5 -100.5t98.5 -283.5v-520q0 -24 12 -39t36 -15q56 0 96 79zM629 179v448q-31 -78 -109.5 -122.5
t-225.5 -82.5q-26 -21 -43.5 -70.5t-17.5 -121.5q0 -118 49.5 -172.5t123.5 -54.5q86 0 150 60.5t73 115.5z" />
    <glyph glyph-name="b" unicode="b" horiz-adv-x="1138" 
d="M645 970q180 0 302.5 -138.5t122.5 -353.5q0 -217 -123 -361t-306 -144q-103 0 -172.5 46.5t-99.5 107.5q-41 -52 -54 -127h-296v13h160v1407h-160v14q202 0 331 26v-684q31 77 105 135.5t190 58.5zM883 482q0 91 -15 171.5t-45.5 148.5t-85 108t-126.5 40
q-102 0 -176.5 -72t-88.5 -155q-11 -61 -11 -225q0 -229 23 -314q20 -75 86.5 -130.5t157.5 -55.5q62 0 111 29t80.5 76t52 111t29 130t8.5 138z" />
    <glyph glyph-name="c" unicode="c" horiz-adv-x="937" 
d="M876 180l10 -7q-48 -86 -143.5 -143t-201.5 -57q-65 0 -131.5 21t-128 63.5t-108.5 101t-75.5 140t-28.5 173.5q0 91 27.5 172t74.5 139.5t107.5 101.5t128 64t135.5 21q131 0 226 -67t95 -163q0 -54 -31 -86t-76 -32q-44 0 -74 29t-30 71q0 41 29.5 71t70.5 30
q34 0 61.5 -20.5t37.5 -53.5q-2 75 -83 138t-197 63q-82 0 -144.5 -39.5t-98.5 -107.5t-54 -151.5t-18 -179.5q0 -74 10.5 -141t34.5 -128.5t60 -106t90 -71t121 -26.5q94 0 176.5 51t127.5 130z" />
    <glyph glyph-name="d" unicode="d" horiz-adv-x="1138" 
d="M959 1460v-1447h160v-13h-296q-14 83 -53 128q-32 -62 -103 -108.5t-175 -46.5q-179 0 -301 146.5t-122 360.5q0 212 122 351t298 139q64 0 117.5 -19t89 -50t57.5 -62.5t35 -63.5v645h-158v14q202 0 329 26zM793 723q-15 85 -92 156.5t-179 71.5q-90 0 -151.5 -67
t-88 -170t-26.5 -233q0 -92 14.5 -174.5t45 -154t85.5 -114t129 -42.5q90 0 159 55.5t90 129.5q25 87 25 325q0 154 -11 217z" />
    <glyph glyph-name="e" unicode="e" horiz-adv-x="968" 
d="M877 186l10 -7q-51 -90 -146 -148t-206 -58q-88 0 -171.5 36.5t-149 100t-105.5 158t-40 202.5q0 106 38 200t101.5 159t147.5 103t175 38q89 0 160.5 -35t115 -94.5t66.5 -132t23 -151.5q0 -21 -1 -31h-639q-5 -248 73 -387.5t243 -139.5q94 0 176.5 53t128.5 134z
M257 540h449q1 14 1 43q0 71 -11.5 134.5t-34.5 118.5t-64 87.5t-95 32.5q-75 0 -130 -59.5t-82 -150.5t-33 -206z" />
    <glyph glyph-name="f" unicode="f" 
d="M555 1445q62 0 90 -60q-11 41 -46 64.5t-82 23.5q-92 0 -147 -75t-55 -208q0 -119 38 -246h218v-13h-217v-918h183v-13h-512v13h159v846q0 24 2 72h-161v13h161q15 251 108 396t223 145q63 0 103 -35.5t40 -91.5q0 -48 -29 -79.5t-74 -31.5q-44 0 -73 29t-29 71
q0 40 28.5 69t71.5 29z" />
    <glyph glyph-name="g" unicode="g" horiz-adv-x="955" 
d="M597 131q151 0 240.5 -67.5t89.5 -188.5q0 -107 -69.5 -191.5t-182 -128.5t-243.5 -44q-172 0 -283 71t-111 175q0 55 34.5 99.5t81.5 68.5t101 35q-87 13 -131.5 60t-44.5 111q0 68 55 121.5t149 77.5q-84 44 -132.5 121t-48.5 170q0 65 24.5 126.5t69.5 111.5t117 80.5
t159 30.5q79 0 156 -28q9 -1 26 -1q80 0 127.5 47t45.5 108q-4 -32 -29.5 -55t-62.5 -23q-38 0 -66.5 26t-28.5 67q0 43 28 70.5t69 27.5q45 0 74.5 -31t29.5 -86q0 -66 -50 -114.5t-133 -48.5q92 -43 146.5 -122t54.5 -177q0 -88 -42.5 -165.5t-130.5 -129.5t-205 -52
q-102 0 -181 38q-83 -19 -131 -54.5t-48 -78.5q0 -64 111 -64q19 0 178.5 3.5t186.5 3.5zM479 956q-196 0 -196 -329q0 -331 196 -331q57 0 97.5 27t62 75t31 104t9.5 125q0 329 -200 329zM440 -476q172 0 289 79t117 199q0 84 -58.5 121.5t-171.5 37.5q-29 0 -151 -3
t-144 -3q-169 -13 -169 -191q0 -114 70 -177t218 -63z" />
    <glyph glyph-name="h" unicode="h" horiz-adv-x="1139" 
d="M957 631v-618h160v-13h-486v13h156v711q0 108 -39 161t-111 53q-55 0 -103.5 -31t-81 -78.5t-56 -106t-34.5 -113t-11 -98.5v-498h158v-13h-490v13h160v1407h-160v14q202 0 331 26v-852q11 50 27 96.5t44.5 96.5t64.5 86t90 59.5t117 23.5q127 0 195.5 -88.5t68.5 -250.5
z" />
    <glyph glyph-name="i" unicode="i" horiz-adv-x="537" 
d="M372 1268q0 -42 -29.5 -71t-70.5 -29q-42 0 -70.5 29t-28.5 71t28.5 70.5t70.5 28.5q41 0 70.5 -28.5t29.5 -70.5zM358 971v-958h160v-13h-489v13h159v918h-159v13q194 0 329 27z" />
    <glyph glyph-name="j" unicode="j" horiz-adv-x="481" 
d="M354 1268q0 -42 -29 -71t-70 -29t-70 29t-29 71t28.5 70.5t70.5 28.5q41 0 70 -28.5t29 -70.5zM348 971v-886q0 -274 -69 -424t-194 -150q-64 0 -101 36.5t-37 88.5q0 49 30 83t76 34q42 0 70.5 -28t28.5 -70q0 -41 -27.5 -69t-68.5 -28q-40 0 -65.5 24.5t-31.5 55.5
q0 -50 34.5 -82.5t90.5 -32.5q77 0 121 62.5t44 164.5q0 116 -72 287v894h-160v13q196 0 331 27z" />
    <glyph glyph-name="k" unicode="k" horiz-adv-x="1125" 
d="M600 614l386 -601h118v-13h-441v13h127l-311 476l-129 -134v-342h153v-13h-484v13h160v1407h-160v14q202 0 331 26v-1087l307 318q91 94 91 167q0 33 -21 53t-54 20h-10v13h404v-13h-5q-70 0 -175.5 -65t-221.5 -185z" />
    <glyph glyph-name="l" unicode="l" horiz-adv-x="529" 
d="M350 1460v-1447h160v-13h-491v13h160v1407h-160v14q201 0 331 26z" />
    <glyph glyph-name="m" unicode="m" horiz-adv-x="1643" 
d="M1461 632v-619h160v-13h-471v13h141v703q0 119 -31 170.5t-97 51.5q-51 0 -94 -28t-71.5 -71.5t-49 -97t-29.5 -104.5t-9 -95v-529h134v-13h-445v13h140v703q0 118 -33.5 170t-97.5 52q-61 0 -111.5 -43.5t-79.5 -108t-44 -129t-15 -115.5v-529h135v-13h-464v13h159v918
h-159v13q194 0 329 27v-331q13 61 34 114t56 104.5t90.5 81.5t125.5 30q118 0 181 -84.5t65 -242.5q12 62 33 115.5t56 103.5t90.5 79t125.5 29q120 0 183 -87.5t63 -250.5z" />
    <glyph glyph-name="n" unicode="n" horiz-adv-x="1130" 
d="M948 632v-619h160v-13h-482v13h151v704q0 221 -151 221q-53 0 -99 -29.5t-76 -74.5t-51.5 -100.5t-31 -105.5t-9.5 -91v-524h152v-13h-482v13h159v918h-159v13q195 0 329 27v-337q10 46 24 88t40.5 89t60 80.5t85 56t113.5 22.5q129 0 198 -88t69 -250z" />
    <glyph glyph-name="o" unicode="o" horiz-adv-x="1060" 
d="M529 970q89 0 173 -37.5t148 -102.5t103 -159t39 -200q0 -105 -39 -199t-103 -159t-148 -102.5t-172 -37.5q-89 0 -172.5 37.5t-147.5 102.5t-102.5 159t-38.5 199q0 106 38.5 200t102.5 159t147.5 102.5t171.5 37.5zM805 480q0 95 -13.5 176t-43.5 150.5t-85.5 109.5
t-131.5 40t-131.5 -40t-86 -109.5t-44 -149t-13.5 -173.5q0 -107 14.5 -194t45.5 -156.5t85.5 -108t128.5 -38.5t128.5 38.5t85.5 108t46 155.5t15 191z" />
    <glyph glyph-name="p" unicode="p" horiz-adv-x="1147" 
d="M188 -435v1366h-159v13q195 0 329 27v-196q14 35 36.5 66.5t57.5 62t87 48.5t115 18q179 0 302 -140.5t123 -352.5q0 -213 -124 -358.5t-304 -145.5q-111 0 -189 56t-104 143v-607h160v-14h-489v14h159zM367 183q19 -75 86 -130t158 -55q74 0 130 41.5t87.5 112t47 153.5
t15.5 176q0 127 -26.5 229t-89.5 171t-154 69q-103 1 -177 -70.5t-89 -155.5q-12 -69 -12 -227q0 -221 24 -314z" />
    <glyph glyph-name="q" unicode="q" horiz-adv-x="1147" 
d="M1119 944v-13h-160v-1366h160v-14h-489v14h158v609q-29 -92 -110 -146.5t-188 -54.5q-118 0 -214.5 67t-151.5 183.5t-55 256.5q0 212 121.5 351t297.5 139q64 0 118 -19t89.5 -50t57.5 -62.5t35 -63.5v196q132 -27 331 -27zM256 484q0 -93 15 -176.5t45.5 -155
t85.5 -114t128 -42.5q91 0 160 56t89 128q25 93 25 319q0 161 -11 224q-15 85 -92 156.5t-180 71.5q-90 0 -151.5 -67t-87.5 -169t-26 -231z" />
    <glyph glyph-name="r" unicode="r" horiz-adv-x="821" 
d="M786 840q0 -51 -30 -81.5t-73 -30.5q-41 0 -70.5 28t-29.5 70q0 43 28.5 72t68.5 29q28 0 52.5 -15t36.5 -39q-11 36 -42.5 60t-82.5 24q-72 0 -128.5 -53t-88.5 -138.5t-48.5 -182.5t-16.5 -197v-373h169v-13h-502v13h159v918h-159v13q197 0 333 27v-425q11 86 33 160
t56 134.5t83.5 95t109.5 34.5q65 0 103.5 -37t38.5 -93z" />
    <glyph glyph-name="s" unicode="s" horiz-adv-x="832" 
d="M710 646h-14q-15 127 -109 218.5t-216 91.5q-87 0 -144 -46t-57 -115q0 -33 13.5 -61.5t35.5 -49.5t59.5 -41.5t74.5 -35.5t92 -34q51 -18 81.5 -29.5t71.5 -31.5t65 -40.5t47.5 -49t34 -65t10.5 -81.5q0 -133 -90.5 -218t-220.5 -85q-123 0 -224 90q-79 -11 -109 -77
h-11l-17 335l12 1q6 -55 34 -113.5t72 -108t108 -81.5t135 -32q100 0 159.5 51.5t59.5 134.5q0 37 -13.5 66.5t-32.5 49.5t-60.5 40.5t-74.5 33t-97 34.5q-138 47 -211.5 119.5t-73.5 188.5q0 126 81 195.5t191 69.5t194 -71q41 -2 72 17t45 54h10z" />
    <glyph glyph-name="t" unicode="t" horiz-adv-x="632" 
d="M585 93l10 -7q-74 -113 -203 -113q-114 0 -166 75.5t-52 225.5v657h-150v13h150v174q43 12 94 52.5t77 82.5v-309h244v-13h-244v-776q0 -151 102 -151q43 0 79 27t59 62z" />
    <glyph glyph-name="u" unicode="u" horiz-adv-x="1124" 
d="M945 971v-958h160v-13q-173 0 -331 -16v280q-9 -35 -23 -70.5t-40.5 -76.5t-59.5 -72t-82.5 -51.5t-106.5 -20.5q-134 0 -207 98.5t-73 268.5v591h-159v13q196 0 330 27v-745q0 -111 42.5 -165t121.5 -54q55 0 104.5 35.5t81 88t50.5 107t21 98.5v595h-160v13
q197 0 331 27z" />
    <glyph glyph-name="v" unicode="v" horiz-adv-x="1025" 
d="M647 931v13h360v-13h-5q-70 0 -129 -83t-118 -232l-248 -630h-11l-363 945h-115v13h450v-13h-156l270 -723l154 397q46 118 46 196q0 130 -128 130h-7z" />
    <glyph glyph-name="w" unicode="w" horiz-adv-x="1458" 
d="M1082 931v13h356v-13h-8q-69 0 -126 -78.5t-109 -232.5l-214 -634h-12l-255 744l-251 -744h-10l-325 945h-110v13h408v-13h-117l231 -679l168 497l-63 182h-87v13h380v-13h-112l230 -679l123 361q34 101 34 178q0 140 -122 140h-9z" />
    <glyph glyph-name="x" unicode="x" horiz-adv-x="1026" 
d="M569 545l322 -532h115v-13h-432v13h129l-253 415l-104 -156q-63 -96 -63 -175q0 -84 78 -84h18v-13h-359v13h5q64 0 152 80.5t156 181.5l109 164l-302 492h-110v13h433v-13h-128l226 -374l78 119q60 89 60 165q0 41 -20 65.5t-57 24.5h-11v13h356v-13h-6
q-65 0 -142.5 -65.5t-145.5 -168.5z" />
    <glyph glyph-name="y" unicode="y" horiz-adv-x="1070" 
d="M223 -489q-69 0 -113 43t-44 106q0 54 28.5 88t76.5 34q44 0 73 -28t29 -71t-27.5 -71.5t-67.5 -28.5q-41 0 -67.5 24.5t-32.5 58.5q0 -63 40.5 -102.5t104.5 -39.5q82 0 138 61t104 188l57 150q10 26 10 41q0 36 -50 36h-15l-326 931h-123v13h458v-13h-155l279 -804
l186 491q34 90 34 164q0 68 -29 108.5t-86 40.5h-16v13h363v-13h-9q-34 0 -63 -16t-52 -41t-48 -73t-44.5 -93.5t-47.5 -120.5l-308 -812q-50 -132 -109.5 -198t-147.5 -66z" />
    <glyph glyph-name="z" unicode="z" horiz-adv-x="900" 
d="M811 319h13l-28 -319h-726l-4 13l561 918h-174q-155 0 -237 -68.5t-95 -179.5l-4 -37h-14l29 298h679l4 -13l-559 -918h189q330 0 362 273z" />
    <glyph glyph-name="braceleft" unicode="{" 
d="M103 202q-6 0 -9 -1v-101q2 -1 9 -1q19 0 25.5 12.5t6.5 39.5t-6.5 39t-25.5 12zM259 165v-25h-41v-39h48v-24h-78v148h78v-25h-48v-35h41zM101 75q-23 0 -36 2v146q26 4 37 4q34 0 48.5 -18.5t14.5 -57.5q0 -40 -15 -58t-49 -18zM293 225h40l19 -82l20 82h41
q1 -21 3.5 -79.5t2.5 -68.5h-30q0 53 -3 106l-20 -84h-28l-21 84h-1q-2 -70 -2 -106h-28q2 85 7 148zM494 75q-30 0 -42.5 18t-12.5 58t12.5 58t42.5 18t42.5 -18t12.5 -58t-12.5 -58t-42.5 -18zM494 202q-25 0 -25 -51q0 -52 25 -52q15 0 20 12t5 40t-5 39.5t-20 11.5z
M483 508q35 0 49.5 -21t14.5 -44q0 -22 -17 -36t-36 -17q-106 -11 -170 -74q3 8 8.5 21t23 46t35 58t43 46t49.5 21zM142 455q27 0 53.5 -20t44.5 -48t33 -56t22 -48l7 -20q-59 74 -160 74q-25 0 -44 15t-19 38q0 27 16.5 46t46.5 19zM322 607q19 -19 24 -51.5t-1.5 -65.5
t-15.5 -63.5t-18 -49.5l-9 -19q10 96 -62 165q-18 18 -22 41t12 42q19 19 43 20.5t49 -19.5z" />
    <glyph glyph-name="bar" unicode="|" 
d="M103 202q-6 0 -9 -1v-101q2 -1 9 -1q19 0 25.5 12.5t6.5 39.5t-6.5 39t-25.5 12zM259 165v-25h-41v-39h48v-24h-78v148h78v-25h-48v-35h41zM101 75q-23 0 -36 2v146q26 4 37 4q34 0 48.5 -18.5t14.5 -57.5q0 -40 -15 -58t-49 -18zM293 225h40l19 -82l20 82h41
q1 -21 3.5 -79.5t2.5 -68.5h-30q0 53 -3 106l-20 -84h-28l-21 84h-1q-2 -70 -2 -106h-28q2 85 7 148zM494 75q-30 0 -42.5 18t-12.5 58t12.5 58t42.5 18t42.5 -18t12.5 -58t-12.5 -58t-42.5 -18zM494 202q-25 0 -25 -51q0 -52 25 -52q15 0 20 12t5 40t-5 39.5t-20 11.5z
M483 508q35 0 49.5 -21t14.5 -44q0 -22 -17 -36t-36 -17q-106 -11 -170 -74q3 8 8.5 21t23 46t35 58t43 46t49.5 21zM142 455q27 0 53.5 -20t44.5 -48t33 -56t22 -48l7 -20q-59 74 -160 74q-25 0 -44 15t-19 38q0 27 16.5 46t46.5 19zM322 607q19 -19 24 -51.5t-1.5 -65.5
t-15.5 -63.5t-18 -49.5l-9 -19q10 96 -62 165q-18 18 -22 41t12 42q19 19 43 20.5t49 -19.5z" />
    <glyph glyph-name="braceright" unicode="}" 
d="M103 202q-6 0 -9 -1v-101q2 -1 9 -1q19 0 25.5 12.5t6.5 39.5t-6.5 39t-25.5 12zM259 165v-25h-41v-39h48v-24h-78v148h78v-25h-48v-35h41zM101 75q-23 0 -36 2v146q26 4 37 4q34 0 48.5 -18.5t14.5 -57.5q0 -40 -15 -58t-49 -18zM293 225h40l19 -82l20 82h41
q1 -21 3.5 -79.5t2.5 -68.5h-30q0 53 -3 106l-20 -84h-28l-21 84h-1q-2 -70 -2 -106h-28q2 85 7 148zM494 75q-30 0 -42.5 18t-12.5 58t12.5 58t42.5 18t42.5 -18t12.5 -58t-12.5 -58t-42.5 -18zM494 202q-25 0 -25 -51q0 -52 25 -52q15 0 20 12t5 40t-5 39.5t-20 11.5z
M483 508q35 0 49.5 -21t14.5 -44q0 -22 -17 -36t-36 -17q-106 -11 -170 -74q3 8 8.5 21t23 46t35 58t43 46t49.5 21zM142 455q27 0 53.5 -20t44.5 -48t33 -56t22 -48l7 -20q-59 74 -160 74q-25 0 -44 15t-19 38q0 27 16.5 46t46.5 19zM322 607q19 -19 24 -51.5t-1.5 -65.5
t-15.5 -63.5t-18 -49.5l-9 -19q10 96 -62 165q-18 18 -22 41t12 42q19 19 43 20.5t49 -19.5z" />
    <glyph glyph-name="asciitilde" unicode="~" 
d="M103 202q-6 0 -9 -1v-101q2 -1 9 -1q19 0 25.5 12.5t6.5 39.5t-6.5 39t-25.5 12zM259 165v-25h-41v-39h48v-24h-78v148h78v-25h-48v-35h41zM101 75q-23 0 -36 2v146q26 4 37 4q34 0 48.5 -18.5t14.5 -57.5q0 -40 -15 -58t-49 -18zM293 225h40l19 -82l20 82h41
q1 -21 3.5 -79.5t2.5 -68.5h-30q0 53 -3 106l-20 -84h-28l-21 84h-1q-2 -70 -2 -106h-28q2 85 7 148zM494 75q-30 0 -42.5 18t-12.5 58t12.5 58t42.5 18t42.5 -18t12.5 -58t-12.5 -58t-42.5 -18zM494 202q-25 0 -25 -51q0 -52 25 -52q15 0 20 12t5 40t-5 39.5t-20 11.5z
M483 508q35 0 49.5 -21t14.5 -44q0 -22 -17 -36t-36 -17q-106 -11 -170 -74q3 8 8.5 21t23 46t35 58t43 46t49.5 21zM142 455q27 0 53.5 -20t44.5 -48t33 -56t22 -48l7 -20q-59 74 -160 74q-25 0 -44 15t-19 38q0 27 16.5 46t46.5 19zM322 607q19 -19 24 -51.5t-1.5 -65.5
t-15.5 -63.5t-18 -49.5l-9 -19q10 96 -62 165q-18 18 -22 41t12 42q19 19 43 20.5t49 -19.5z" />
    </font>
</defs>
</svg>
