<svg id="insta-icon" xmlns="http://www.w3.org/2000/svg" width="13" height="13" viewBox="0 0 13 13">
  <rect id="background" width="13" height="13" fill="none"/>
  <g id="Dribbble-Light-Preview">
    <g id="icons">
      <path id="instagram-_167_" data-name="instagram-[#167]" d="M287.691,7279.077a3.467,3.467,0,0,0-3.64,3.631c-.029.632-.2,5.409.291,6.662a3.171,3.171,0,0,0,1.83,1.825,4.6,4.6,0,0,0,1.519.29c5.572.252,7.638.115,8.509-2.115a4.552,4.552,0,0,0,.29-1.516c.255-5.587-.041-6.8-1.012-7.768-.77-.769-1.676-1.291-7.787-1.01m.051,11.284a3.483,3.483,0,0,1-1.162-.214,2.046,2.046,0,0,1-1.188-1.185c-.372-.952-.248-5.473-.215-6.2a2.67,2.67,0,0,1,.683-1.877c.626-.625,1.434-.931,6.939-.682a2.682,2.682,0,0,1,1.882.682c.626.624.936,1.438.683,6.922a3.446,3.446,0,0,1-.215,1.159c-.566,1.451-1.869,1.653-7.407,1.4m5.118-8.412a.751.751,0,1,0,.751-.749.75.75,0,0,0-.751.749m-5.8,3.332a3.213,3.213,0,1,0,3.213-3.205,3.21,3.21,0,0,0-3.213,3.205m1.128,0a2.086,2.086,0,1,1,2.086,2.081,2.084,2.084,0,0,1-2.086-2.081" transform="translate(-284 -7279)" fill="#fff" fill-rule="evenodd"/>
    </g>
  </g>
</svg>
