<svg xmlns="http://www.w3.org/2000/svg" xmlns:xlink="http://www.w3.org/1999/xlink" width="281.838" height="46.858" viewBox="0 0 281.838 46.858">
  <defs>
    <clipPath id="clip-path8">
      <path id="Path_1124" data-name="Path 1124" d="M0,40.194c76.1-45,78.1,21.719,137.09,2.172C72.454,72.164,76.1,2.838,0,40.194" transform="translate(0 -24.269)"/>
    </clipPath>
    <clipPath id="clip-path-2">
      <path id="Path_1125" data-name="Path 1125" d="M240.2,7.643c46.478-15.029,82.271-.348,54.037,31.1-4.691,5.3,4.691,13.466,12.249,3.128,4.431-6.081,11.555-21.111,2.52-32.057C301.36.78,281.292-5.823,240.2,7.643" transform="translate(-240.2 0.015)"/>
    </clipPath>
  </defs>
  <g id="Aquadesign_White" data-name="Aquadesign White" transform="translate(0 0.015)">
    <g id="Group_3148" data-name="Group 3148" transform="translate(0 21.082)">
      <g id="Group_3144" data-name="Group 3144">
        <path id="SVGID_1_" d="M0,40.194c76.1-45,78.1,21.719,137.09,2.172C72.454,72.164,76.1,2.838,0,40.194" transform="translate(0 -24.269)" fill="#fff"/>
      </g>
      <g id="Group_3147" data-name="Group 3147">
        <g id="Group_3146" data-name="Group 3146" clip-path="url(#clip-path8)">
          <g id="Group_3145" data-name="Group 3145" transform="translate(0 0.114)">
            <rect id="SVGID_3_" width="137.09" height="25.715" fill="#fff"/>
          </g>
        </g>
      </g>
    </g>
    <g id="Group_3153" data-name="Group 3153" transform="translate(208.675 -0.015)">
      <g id="Group_3149" data-name="Group 3149">
        <path id="SVGID_5_" d="M240.2,7.643c46.478-15.029,82.271-.348,54.037,31.1-4.691,5.3,4.691,13.466,12.249,3.128,4.431-6.081,11.555-21.111,2.52-32.057C301.36.78,281.292-5.823,240.2,7.643" transform="translate(-240.2 0.015)" fill="#fff"/>
      </g>
      <g id="Group_3152" data-name="Group 3152">
        <g id="Group_3151" data-name="Group 3151" clip-path="url(#clip-path-2)">
          <g id="Group_3150" data-name="Group 3150" transform="translate(-0.087 0.013)">
            <rect id="SVGID_7_" width="73.236" height="46.913" fill="#fff"/>
          </g>
        </g>
      </g>
    </g>
    <path id="Path_1126" data-name="Path 1126" d="M169.44,35.627c6.6,0,9.9-3.649,9.9-11.033,0-6.516-3.3-9.73-9.9-9.73h-6.6v20.85h6.6ZM161.1,37.1V13.3h8.514c7.732,0,11.641,3.736,11.641,11.294,0,8.34-3.909,12.51-11.815,12.51H161.1" transform="translate(-21.143 -1.747)" fill="#fff"/>
    <path id="Path_1127" data-name="Path 1127" d="M212.908,36.2V34.371a24.92,24.92,0,0,0,8.253,1.3c4.952,0,7.471-1.911,7.471-5.647,0-2.78-1.651-4.17-4.865-4.17H218.9c-4.431,0-6.6-2-6.6-5.994,0-4.518,3.214-6.863,9.73-6.863a32.493,32.493,0,0,1,7.732.956v1.651a25.628,25.628,0,0,0-7.732-1.129c-5.3,0-7.993,1.738-7.993,5.3,0,2.867,1.651,4.344,4.865,4.344h4.865c4.431,0,6.6,1.911,6.6,5.821,0,4.778-3.041,7.124-9.209,7.124a24.869,24.869,0,0,1-8.253-.869" transform="translate(-27.863 -1.708)" fill="#fff"/>
    <rect id="Rectangle_1120" data-name="Rectangle 1120" width="1.738" height="23.804" transform="translate(207.806 11.553)" fill="#fff"/>
    <path id="Path_1128" data-name="Path 1128" d="M266.513,36.122a19.486,19.486,0,0,1-6.342,1.129c-8.514,0-12.771-4.17-12.771-12.423q0-11.728,12.51-11.728a24.891,24.891,0,0,1,6.689.956v1.564a20.449,20.449,0,0,0-6.342-.956c-7.384,0-11.033,3.388-11.033,10.251,0,7.3,3.562,10.946,10.773,10.946a20.5,20.5,0,0,0,4.865-.7V26.218H266.6l-.087,9.9" transform="translate(-32.47 -1.721)" fill="#fff"/>
    <path id="Path_1129" data-name="Path 1129" d="M275.2,37.1V13.3h2.259l15.9,20.85V13.3h1.564V37.1h-1.39l-16.68-21.893V37.1H275.2" transform="translate(-36.118 -1.747)" fill="#fff"/>
    <path id="Path_1130" data-name="Path 1130" d="M204.638,13.3v1.477h-13.9v9.469h13.379V25.81H190.737v9.817H204.9V37.1H189V13.3h15.638" transform="translate(-24.805 -1.747)" fill="#fff"/>
    <path id="Path_1131" data-name="Path 1131" d="M34.241,14.59l-9.817,22.5H22.6L33.373,13.2h2.085L46.23,37.091H44.145l-9.9-22.5" transform="translate(-2.966 -1.734)" fill="#fff"/>
    <path id="Path_1132" data-name="Path 1132" d="M86.929,39.58C83.02,43.055,78.589,44.1,72.681,44.1,59.3,44.1,52.7,37.408,52.7,23.942,52.7,10.389,59.389,3.7,72.681,3.7,85.8,3.7,92.4,10.476,92.4,23.942a28.518,28.518,0,0,1-1.564,9.73L88.753,32.63a27.028,27.028,0,0,0,1.3-8.948c0-12.423-5.821-18.591-17.462-18.591-11.815,0-17.723,6.168-17.723,18.591q0,18.765,17.723,18.765c4.952,0,9.3-1.3,12.249-4l2.085,1.129" transform="translate(-6.917 -0.488)" fill="#fff"/>
    <path id="Path_1133" data-name="Path 1133" d="M104.3,27.8V13.2h1.737V27.8q0,7.819,7.819,7.819t7.819-7.819V13.2h1.737V27.8c0,6.255-3.214,9.383-9.556,9.383-6.342-.087-9.556-3.128-9.556-9.383" transform="translate(-13.689 -1.734)" fill="#fff"/>
    <path id="Path_1134" data-name="Path 1134" d="M130.611,37.078H128.7L139.559,13.1h2.085l10.946,23.978h-2.085l-3.562-7.993H136.171l.521-1.564h9.643L140.515,14.4l-9.9,22.675" transform="translate(-16.891 -1.721)" fill="#fff"/>
  </g>
</svg>
