<svg xmlns="http://www.w3.org/2000/svg" width="258.329" height="39.884" viewBox="0 0 258.329 39.884">
  <g id="AD_Waters_Colour" data-name="AD Waters Colour" transform="translate(-73.82 -163.876)">
    <path id="Path_1115" data-name="Path 1115" d="M177.807,202.95h1.865l12.243-38.473H190l-11.281,35.395-10.608-35.395h-2.041L155.4,199.932l-.1-.386-11.063-35.069h-2.034l12.245,38.473h1.864l10.716-35.663Z" transform="translate(15.003 0.105)" fill="#fff" stroke="#fff" stroke-width="0.25"/>
    <path id="Path_1116" data-name="Path 1116" d="M206.29,202.95h2.028l-12.769-38.473H193.32L180.552,202.95h1.967L194.4,166.6l.1.278Z" transform="translate(23.438 0.105)" fill="#fff" stroke="#fff" stroke-width="0.25"/>
    <path id="Path_1117" data-name="Path 1117" d="M211.552,202.95h1.925V166.17H224.75v-1.693H200.338v1.693h11.214Z" transform="translate(27.79 0.105)" fill="#fff" stroke="#fff" stroke-width="0.25"/>
    <path id="Path_1118" data-name="Path 1118" d="M225.394,202.95h18.485v-1.693h-16.56V183.135h14.236v-1.692H227.319V166.17h16.154v-1.693H225.394Z" transform="translate(33.301 0.105)" fill="#fff" stroke="#fff" stroke-width="0.25"/>
    <g id="Group_3141" data-name="Group 3141" transform="translate(309.92 164.001)">
      <path id="Path_1119" data-name="Path 1119" d="M267.383,199.958a15.5,15.5,0,0,0,10.594,3.677c6.883,0,11.509-3.993,11.509-9.939,0-6.313-5.426-9.15-10.217-11.653l-.929-.49c-4.291-2.274-7.68-4.07-7.68-8.89,0-4.2,3.315-7.026,8.247-7.026a14.713,14.713,0,0,1,8.514,2.625l.977-1.44A16.3,16.3,0,0,0,279.023,164c-6.216,0-10.231,3.468-10.231,8.836,0,5.789,4.309,8.1,8.872,10.543l.461.246c4.638,2.431,9.434,4.946,9.434,10.187,0,4.821-3.893,8.188-9.467,8.188a14.554,14.554,0,0,1-9.632-3.381Z" transform="translate(-267.383 -164.001)" fill="#fff" stroke="#fff" stroke-width="0.25"/>
    </g>
    <path id="Path_1120" data-name="Path 1120" d="M103.433,202.95h2.026L90.845,164.477H88.618l-6.993,18.4H74v1.694h6.982l-.057.151L74,202.95H75.97l6.942-18.374h10.7v-1.694H83.551l.056-.152L89.7,166.6Z" transform="translate(0 0.105)" fill="#fff" stroke="#fff" stroke-width="0.25"/>
    <g id="Group_3142" data-name="Group 3142" transform="translate(111.482 164.582)">
      <path id="Path_1121" data-name="Path 1121" d="M104.724,202.95h7.626c13.282,0,21.212-7.278,21.212-19.469,0-5.934-1.953-10.8-5.65-14.071-3.645-3.227-9.007-4.932-15.5-4.932h-7.683v1.635h7.567c6.045,0,10.8,1.488,14.128,4.422,3.423,3.016,5.158,7.411,5.158,13.063,0,11.259-6.966,17.716-19.112,17.716h-7.742v1.636Z" transform="translate(-104.724 -164.477)" fill="#fff" stroke="#fff" stroke-width="0.25"/>
    </g>
    <path id="Path_1122" data-name="Path 1122" d="M106.665,193.935h1.693V183.194H119.1V181.5H108.358V170.759h-1.693V181.5H95.924v1.694h10.741Z" transform="translate(4.822 1.487)" fill="#fff" stroke="#fff" stroke-width="0.25"/>
    <g id="Group_3143" data-name="Group 3143" transform="translate(283.47 164.582)">
      <path id="Path_1123" data-name="Path 1123" d="M247.627,181.965v-15.8h5.864c6.878,0,10.514,2.711,10.514,7.841,0,5.2-3.616,7.955-10.455,7.955Zm9.261,5.591c-.726-.967-1.289-1.677-1.746-2.213l-.01-.015c-.982-1.222-1.257-1.46-1.81-1.765v-.078h.749c7.537-.06,11.859-3.513,11.859-9.474,0-6.147-4.376-9.534-12.323-9.534H245.7v38.474h1.925V183.6h1.505c2.051,0,2.863.449,6.133,4.868l10.658,14.481h2.394Z" transform="translate(-245.702 -164.477)" fill="#fff" stroke="#fff" stroke-width="0.25"/>
    </g>
  </g>
</svg>
