<svg xmlns="http://www.w3.org/2000/svg" width="150.686" height="48.67" viewBox="0 0 150.686 48.67">
  <g id="Franke_Black" data-name="Franke Black" transform="translate(-315.437 -272.67)">
    <g id="Group_3166" data-name="Group 3166" transform="translate(315.437 272.67)">
      <rect id="Rectangle_1129" data-name="Rectangle 1129" width="50.184" height="48.67" fill="#fff"/>
      <rect id="Rectangle_1130" data-name="Rectangle 1130" width="48.429" height="48.67" transform="translate(51.494)" fill="#fff"/>
      <rect id="Rectangle_1131" data-name="Rectangle 1131" width="49.453" height="48.67" transform="translate(101.233)" fill="#fff"/>
      <path id="Path_1227" data-name="Path 1227" d="M319.335,288.873h19.079V295.2h-4.332v-2H329.51v3.41h3.843v4.427H329.51v4.137h2.336v4.33H319.335v-4.231h1.945V293.593h-1.945Z" transform="translate(-315.881 -274.518)" fill="#03363a"/>
      <path id="Path_1228" data-name="Path 1228" d="M365.407,305.225l-3.011-5.987s3.469-1.954,3.254-4.525c-.438-5.306-7.589-5.84-7.589-5.84H343.069v4.674h2.29v11.679h-1.952v4.283H355.58v-4.33h-2v-4.236h2.237l3.648,8.566h8.084v-4.283h-2.145Zm-11.777-7.4V293.2s3.843-.145,3.843,2.336-3.843,2.289-3.843,2.289" transform="translate(-318.588 -274.518)" fill="#03363a"/>
      <path id="Path_1229" data-name="Path 1229" d="M394.67,305.226,391.116,293.2h2.336v-4.331H377.877v4.384h2.139l-3.952,11.916-.914.005v4.33h8.227v-4.281h-2.046l.434-2.291h5.358l.443,2.291h-1.948v4.281h11.289v-4.281H394.67ZM382.6,299.383l2.139-5.79,2.094,5.79Z" transform="translate(-322.245 -274.518)" fill="#03363a"/>
      <path id="Path_1230" data-name="Path 1230" d="M401.514,288.873h8.133l8.074,10.12v-5.738h-1.847v-4.382h8.176v4.284h-1.464v16.351h-6.761l-7.6-10.853v6.523h1.853v4.33h-8.613v-4.281h1.63l.015-12.059-1.6.014Z" transform="translate(-325.246 -274.518)" fill="#03363a"/>
      <path id="Path_1231" data-name="Path 1231" d="M430.958,288.873h12.073v3.946h-1.95v5.054l4.969-5.035-1.458-.019v-3.946h9.733v3.895h-1.459l-5.5,5.886,6.279,6.183h2.235v4.67h-11.39v-4.33h1.953l-5.164-5.453v5.453h1.708v4.33H430.911v-4.33h2.336V293.157l-2.289.025Z" transform="translate(-328.603 -274.518)" fill="#03363a"/>
      <path id="Path_1232" data-name="Path 1232" d="M460.355,288.873h19.13v6.278h-4.721v-2.383h-4.239v4.284h3.556v3.89h-3.6v3.945h4.332v-2.436h4.672v7.057h-19.13v-4.67h2.386v-12.07h-2.386Z" transform="translate(-331.96 -274.518)" fill="#03363a"/>
    </g>
  </g>
</svg>
