<svg id="Group_3405" data-name="Group 3405" xmlns="http://www.w3.org/2000/svg" xmlns:xlink="http://www.w3.org/1999/xlink" width="180.161" height="32.919" viewBox="0 0 180.161 32.919">
  <defs>
    <clipPath id="clip-path4">
      <rect id="Rectangle_1123" data-name="Rectangle 1123" width="180.161" height="32.919" fill="#fff"/>
    </clipPath>
  </defs>
  <g id="Group_3159" data-name="Group 3159" clip-path="url(#clip-path4)">
    <path id="Path_1152" data-name="Path 1152" d="M348.37.087,331.381,33h5.213l4.764-9.442h18.7L364.8,33h5.352L353.3.087Zm-5.122,19.72,6.24-12.367c.278-.6.558-1.162.791-1.767.186-.466.325-.932.465-1.351a12.969,12.969,0,0,0,.372,1.257c.234.559.513,1.118.745,1.677l6.311,12.552Z" transform="translate(-291.018 -0.076)" fill="#fff"/>
    <path id="Path_1153" data-name="Path 1153" d="M1267.086,29.752V.944h-4.647v32.8h26.392v-4Z" transform="translate(-1108.67 -0.829)" fill="#fff"/>
    <rect id="Rectangle_1122" data-name="Rectangle 1122" width="4.647" height="32.804" transform="translate(135.172 0.115)" fill="#fff"/>
    <path id="Path_1154" data-name="Path 1154" d="M751.58,10.607a8.917,8.917,0,0,0-2.928-7.015c-2.834-2.555-6.319-2.6-9.2-2.648h-22.3v32.8h4.645V4.893h17.983c2.137.047,4.505.047,5.993,2.416a6.341,6.341,0,0,1,.977,3.485,5.56,5.56,0,0,1-1.116,3.484c-1.858,2.465-5.112,2.511-7.667,2.511H726.5v3.856H737.64l11.1,13.1h6.086L742.751,19.9c2.183-.371,8.828-1.44,8.828-9.294" transform="translate(-629.797 -0.829)" fill="#fff"/>
    <path id="Path_1155" data-name="Path 1155" d="M28.864,15.858a14.649,14.649,0,0,0,1.632-.746,7.732,7.732,0,0,0,2.985-6.532A8.1,8.1,0,0,0,31.848,3.5C29.19.139,24.668,0,21.124,0H0V32.919H21.124c3.543,0,8.066,0,11.051-2.518a8.565,8.565,0,0,0,2.938-6.669c0-6.294-4.8-7.407-6.248-7.874M28.491,27.51C26.719,29,24.481,29.1,22.523,29.1H4.663V3.825H21.077c1.726,0,3.776,0,5.41,1.025A4.726,4.726,0,0,1,28.63,8.907c0,1.584-.7,3.92-2.332,4.806a9.01,9.01,0,0,1-4.429.745H9.353v3.777H22.523c1.911,0,4.1.047,5.783,1.352a4,4,0,0,1,1.957,3.772,5.3,5.3,0,0,1-1.772,4.15" transform="translate(0 0)" fill="#fff"/>
  </g>
</svg>
