<svg xmlns="http://www.w3.org/2000/svg" xmlns:xlink="http://www.w3.org/1999/xlink" width="159.117" height="28.806" viewBox="0 0 159.117 28.806">
  <defs>
    <clipPath id="clip-path-10">
      <rect id="Rectangle_1125" data-name="Rectangle 1125" width="159.117" height="28.806" fill="none"/>
    </clipPath>
  </defs>
  <g id="Group_3407" data-name="Group 3407" transform="translate(0 0)">
    <g id="Group_3163" data-name="Group 3163" transform="translate(0 0)" clip-path="url(#clip-path-10)">
      <path id="Path_1215" data-name="Path 1215" d="M0,1.148H11.812c5.405,0,10.921,1.3,10.921,7.738,0,2.444-1.221,4.986-3.665,5.764a6.849,6.849,0,0,1,4.961,6.714c0,5.74-5.332,7.7-10.219,7.7H0ZM10.33,11.885c1.482,0,3.148-.147,3.148-2.073,0-2.073-1.889-1.925-3.37-1.925H9.4v4ZM9.4,22.4h1.147c1.666,0,4.073-.037,4.073-2.332,0-2.332-2.592-2.3-4.22-2.3h-1Z" transform="translate(0 -0.703)" fill="#fff"/>
      <path id="Path_1216" data-name="Path 1216" d="M64.646,1.148H74.791V20.1h8.516v8.96H64.646Z" transform="translate(-39.62 -0.703)" fill="#fff"/>
      <path id="Path_1217" data-name="Path 1217" d="M196.955,1.148h9.739L215.8,16.625h.3a41.8,41.8,0,0,1-.852-7.109V1.148h9.7V29.065h-9.7L206.323,14.4h-.3a32.869,32.869,0,0,1,.628,5.591v9.071h-9.7Z" transform="translate(-120.708 -0.703)" fill="#fff"/>
      <path id="Path_1218" data-name="Path 1218" d="M294.288,11.774a9.052,9.052,0,0,0-5.961-2.813,5.467,5.467,0,0,0-5.515,5.441,5.57,5.57,0,0,0,5.664,5.443,8.08,8.08,0,0,0,5.813-2.591L293.993,27.7c-1.629.777-5.407,1.11-7.22,1.11a13.989,13.989,0,0,1-14.182-14.143A14.515,14.515,0,0,1,287.179,0a21.241,21.241,0,0,1,6.814,1.147Z" transform="translate(-167.064 0)" fill="#fff"/>
      <path id="Path_1219" data-name="Path 1219" d="M362.139,14.476c0,8.961-6.923,14.329-15.439,14.329s-15.438-5.368-15.438-14.329C331.262,5.7,338.222,0,346.7,0s15.439,5.7,15.439,14.476m-20.659.149a5.224,5.224,0,1,0,10.443,0,5.226,5.226,0,1,0-10.443,0" transform="translate(-203.021 0)" fill="#fff"/>
      <path id="Path_1220" data-name="Path 1220" d="M125.6,29.065H114.864l9.7-27.917h11.218l9.961,27.917H135.006l-.926-3.48h-7.665Zm4.684-18.63c0,1.174-2.054,8.522-2.054,8.522H132.3s-2.018-7.283-2.018-8.522" transform="translate(-70.397 -0.703)" fill="#fff"/>
    </g>
  </g>
</svg>
