<svg id="TOTO_White" data-name="TOTO White" xmlns="http://www.w3.org/2000/svg" width="221.972" height="46.623" viewBox="0 0 221.972 46.623">
  <path id="Path_962" data-name="Path 962" d="M53.328,89.789v28.057c0,3.251.81,4.375,4.237,4.375H63.17v4.806H32.184v-4.806h5.6c3.279,0,4.254-1.682,4.254-4.375V89.789H37.843c-8.42,0-9.59,6.822-9.59,10.511l-5.374-.049V84.645H71.94v15.606l-5.1.049c0-3.689-1.158-10.511-9.583-10.511Z" transform="translate(-22.88 -82.967)" fill="#fff"/>
  <path id="Path_963" data-name="Path 963" d="M174.459,89.789v28.057c0,3.251.823,4.375,4.255,4.375h5.612v4.806H153.339v-4.806h5.591c3.278,0,4.252-1.682,4.252-4.375V89.789h-4.2c-8.414,0-9.574,6.822-9.574,10.511l-5.369-.049V84.645h49.057v15.606l-5.086.049c0-3.689-1.179-10.511-9.613-10.511Z" transform="translate(-38.567 -82.967)" fill="#fff"/>
  <path id="Path_964" data-name="Path 964" d="M107.455,82.7c-15.85,0-26.061,10.249-26.061,23.318,0,14.382,11.228,23.3,26.061,23.3,15.716,0,26.04-9.539,26.04-23.3C133.495,93.1,122.642,82.7,107.455,82.7Zm0,41.131c-9.323,0-13.8-7.085-13.8-17.836,0-10.458,4.309-17.8,13.8-17.8,8.958,0,13.772,6.564,13.772,17.8C121.227,116.4,116.842,123.83,107.455,123.83Z" transform="translate(-30.456 -82.699)" fill="#fff"/>
  <path id="Path_965" data-name="Path 965" d="M228.845,82.7c-15.827,0-26.057,10.249-26.057,23.318,0,14.382,11.228,23.3,26.057,23.3,15.726,0,26.062-9.539,26.062-23.3C254.906,93.1,244.054,82.7,228.845,82.7Zm0,41.131c-9.3,0-13.771-7.085-13.771-17.836,0-10.458,4.285-17.8,13.771-17.8,8.966,0,13.792,6.564,13.792,17.8C242.636,116.4,238.248,123.83,228.845,123.83Z" transform="translate(-46.174 -82.699)" fill="#fff"/>
  <g id="Group_3101" data-name="Group 3101" transform="translate(209.895 32.09)">
    <path id="Path_966" data-name="Path 966" d="M268.884,123.121h.874a1.592,1.592,0,0,1,.852.177,1.339,1.339,0,0,1,.362.422,1.082,1.082,0,0,1,.138.554,1.537,1.537,0,0,1-.323.943,1.3,1.3,0,0,1-1.106.417h-.8Zm0,3.41h.874c.1,0,.321.247.59.724l.241.435,1.013,1.935h1.328l-1.224-2.256a3.4,3.4,0,0,0-.821-1.061,2.32,2.32,0,0,0,1.071-.871,2.29,2.29,0,0,0,.332-1.223,2.07,2.07,0,0,0-.245-1.024,1.767,1.767,0,0,0-.69-.714,2.583,2.583,0,0,0-1.274-.251h-2.357v7.4h1.161v-3.094ZM273,131.116a5.99,5.99,0,0,0,3.073-5.219,5.818,5.818,0,0,0-.821-2.981,5.556,5.556,0,0,0-2.208-2.2,5.845,5.845,0,0,0-3.029-.8,6.131,6.131,0,0,0-5.238,3,6.068,6.068,0,0,0,.05,6.039A6.09,6.09,0,0,0,273,131.116Zm-5.509-.788a5.174,5.174,0,0,1-2.582-4.4,5.1,5.1,0,0,1,.683-2.558,4.949,4.949,0,0,1,1.868-1.876,5.354,5.354,0,0,1,5.114,0,4.9,4.9,0,0,1,1.889,1.876,5.083,5.083,0,0,1,.675,2.558,4.811,4.811,0,0,1-.692,2.543,4.993,4.993,0,0,1-1.887,1.861,5.4,5.4,0,0,1-5.068,0Z" transform="translate(-263.995 -119.917)" fill="#fff"/>
  </g>
</svg>
