<svg id="twitter-icon" xmlns="http://www.w3.org/2000/svg" width="13" height="13" viewBox="0 0 13 13">
  <rect id="background" width="13" height="13" fill="none"/>
  <g id="Dribbble-Light-Preview" transform="translate(0 1.258)">
    <g id="icons">
      <path id="twitter-_154_" data-name="twitter-[#154]" d="M7.956,7371.062a7.233,7.233,0,0,0,7.342-7.229c0-.11,0-.22-.008-.328a5.21,5.21,0,0,0,1.287-1.315,5.19,5.19,0,0,1-1.482.4,2.558,2.558,0,0,0,1.134-1.405,5.23,5.23,0,0,1-1.639.617,2.613,2.613,0,0,0-3.651-.11,2.519,2.519,0,0,0-.746,2.428,7.368,7.368,0,0,1-5.318-2.654,2.518,2.518,0,0,0,.8,3.391,2.586,2.586,0,0,1-1.172-.317v.032a2.552,2.552,0,0,0,2.07,2.49,2.593,2.593,0,0,1-1.165.043,2.576,2.576,0,0,0,2.41,1.765,5.231,5.231,0,0,1-3.2,1.09,5.177,5.177,0,0,1-.614-.036,7.393,7.393,0,0,0,3.956,1.139" transform="translate(-4 -7361)" fill="#fff" fill-rule="evenodd"/>
    </g>
  </g>
</svg>
